<svg fill="none" height="39" width="76" xmlns="http://www.w3.org/2000/svg"><path d="m49 34.959-12.844 3.548c-.31-.4-.615-.801-.92-1.202a8354.188 8354.188 0 0 1 -8.197-10.842 1.507 1.507 0 0 1 -.322-.827c-.016-7.245-.02-14.49-.011-21.734 0-.043.012-.087.03-.214l12.82-3.55c.733.96 1.47 1.924 2.206 2.892 2.324 3.06 4.645 6.12 6.961 9.185a1.4 1.4 0 0 1 .3.768c.016 7.244.02 14.488.01 21.733a2.012 2.012 0 0 1 -.033.243zm-21.707-30.64c0 .067-.02.134-.02.199v20.922c.01.211.085.415.212.584.89 1.218 1.795 2.43 2.713 3.632 1.999 2.64 4.003 5.278 6.012 7.914l.12.114c.055.026.12.086.164.074 2.678-.748 5.356-1.5 8.033-2.257l1.98-.543 1.953-.497c.015-.143.028-.209.028-.274v-20.874a2.549 2.549 0 0 0 -.099-.498 1.783 1.783 0 0 0 -.148-.284 5226.344 5226.344 0 0 0 -6.36-8.416c-.846-1.104-1.7-2.193-2.519-3.262-3.299.906-6.521 1.781-9.737 2.68-.79.222-1.556.527-2.332.786zm-3.874 21.215h-1.228v-5.144c0-1.105-.318-1.42-1.423-1.424h-1.646v6.568h-1.202v-10.875l1.202-.282v3.363c.668 0 1.286-.012 1.903 0 1.544.034 2.383.875 2.393 2.405.009 1.78.001 3.555.001 5.389zm32.4-1.6 1.04-.312v11.25l-.925-.267v.116c-.828 0-1.673.107-2.48-.026-1.068-.178-1.622-.96-1.642-2.038-.022-1.11-.012-2.22-.01-3.328 0-1.483.795-2.297 2.289-2.343.549-.018 1.1 0 1.723 0v-3.052h.006zm-.01 4.296c-.632 0-1.203-.034-1.773.009-.509.039-.925.322-.943.862a45.116 45.116 0 0 0 0 3.583c.03.642.48.903 1.249.894.903-.011 1.43-.3 1.45-.936.049-1.455.017-2.91.017-4.413zm-51.203-3.022c-.996.58-2.112.495-3.193.11-.982-.352-1.424-1.38-1.228-2.54.174-1.025.982-1.748 2.091-1.81.706-.04 1.415-.008 2.178-.008 0-.468.043-.89-.01-1.3-.077-.614-.525-.837-1.092-.845-.82-.01-1.642 0-2.567 0l.297-1.057c.876 0 1.72-.041 2.556.01 1.344.081 2.102.907 2.11 2.253.012 1.819 0 3.637 0 5.62zm-.164-3.021c-.702 0-1.362-.028-2.018.008-.609.035-.984.392-1.019 1.011-.032.583.258 1.037.846 1.077 1.664.114 2.363.148 2.223-1.814-.004-.066-.015-.131-.032-.282zm53.89 5.788c.089-.306.178-.62.277-.966.908 0 1.797-.064 2.672.016 1.288.116 1.99.942 2.004 2.223.01 1.643.013 3.286-.008 4.93 0 .243-.16.485-.267.793l-.754-.526v.19c-.792.068-1.59.217-2.378.184-1.392-.056-2.197-.975-2.181-2.34.016-1.363.873-2.223 2.261-2.277.66-.027 1.32 0 2.012 0 .014-.268.031-.464.032-.658.007-1.158-.319-1.476-1.51-1.48-.667 0-1.335 0-2.003-.008-.039-.01-.076-.045-.156-.081zm3.608 3.507c-.724 0-1.412-.032-2.094.01-.576.035-.862.433-.887.982-.025.519.208.887.735 1.045 1.586.476 2.397-.148 2.306-1.782a1.645 1.645 0 0 0 -.06-.255zm12.406-4.468h1.379l-3.355 10.863h-1.098c.12-.511.182-1.04.369-1.516.442-1.13.25-2.194-.134-3.295-.618-1.78-1.165-3.584-1.737-5.38-.066-.207-.118-.42-.188-.668h1.218l1.753 5.657.21-.007c.52-1.866 1.044-3.73 1.583-5.654zm-57.45-7.58-1.203.3c-.51-1.025-1.432-.802-2.271-.706-.521.058-.802.465-.808.993-.014 1.069-.027 2.131 0 3.196.021.759.413 1.083 1.202 1.1 1.336.026 1.336.026 1.91-.886l1.167.427c-.08.786-.534 1.336-1.202 1.451a8.958 8.958 0 0 1 -2.87.053c-.935-.153-1.43-.948-1.45-1.906a93.01 93.01 0 0 1 0-3.727c.016-.922.535-1.717 1.431-1.839a9.447 9.447 0 0 1 2.818.07c.69.116 1.184.654 1.276 1.475zm-8.836-1.584 2.72-.154v1.132c-.496 0-.978-.01-1.46 0-.782.021-1.133.37-1.136 1.157-.01 1.838 0 3.677 0 5.546h-1.202v-7.828l1.103.251-.024-.104zm59.535 6.033 1.14-.267v11.172h-1.14zm-1.699 10.932h-1.002v-7.805h1.002v7.806zm-1.01-10.18v-1.001h1.015v1h-1.015z" fill="#ececec"/><path d="m44.52 35.502-8.034 2.256c-.044.012-.108-.048-.163-.073.01-.268.028-.535.028-.802v-20.693c2.165-.596 4.285-1.172 6.398-1.766 1.88-.527 3.753-1.07 5.63-1.613.049.162.082.33.098.498.005 6.958.005 13.916 0 20.874 0 .066-.013.134-.028.274l-1.953.497v-4.71l-1.98.535.004 4.721zm1.936-19.74-5.775 1.603v4.782l5.775-1.603zm-7.912 9.848v4.77l3.882-1.057v-4.78z" fill="#ececec"/><path d="m36.202 37.57-6.012-7.914a334.585 334.585 0 0 1 -2.713-3.632 1.069 1.069 0 0 1 -.207-.588c-.008-6.974-.008-13.948 0-20.922 0-.067.013-.134.02-.2 2.88 3.795 5.757 7.592 8.63 11.392.178.249.276.546.28.852.012 7.005.013 14.01.002 21.012zm-1.86-16.142c0-1.259-.106-2.329.023-3.37.234-1.878-1.309-2.717-2.087-4.008a66.548 66.548 0 0 0 -.062 4.15c-.004.217.056.43.172.613.593.825 1.214 1.629 1.955 2.615z" fill="#69768a"/><path d="m36.203 37.57v-21.009a1.504 1.504 0 0 0 -.28-.852 2420.175 2420.175 0 0 0 -8.631-11.391c.776-.267 1.543-.564 2.333-.784 3.215-.9 6.438-1.775 9.736-2.68.82 1.068 1.673 2.156 2.51 3.26 2.126 2.802 4.246 5.608 6.36 8.416.058.09.108.185.149.284-1.87.534-3.75 1.086-5.629 1.612-2.114.595-4.234 1.17-6.398 1.766v20.698c0 .266-.019.533-.028.8zm8.317-2.07v-4.72l1.98-.534v4.714l-1.98.541z" fill="#9eb0b8"/><path d="m46.456 15.762v4.782l-5.774 1.603v-4.776zm-7.912 9.848 3.882-1.069v4.776l-3.882 1.062v-4.77z" fill="#9eb0b8"/><path d="m34.343 21.428c-.74-.982-1.362-1.786-1.955-2.613a1.116 1.116 0 0 1 -.172-.614 66.548 66.548 0 0 1 .063-4.15c.777 1.29 2.32 2.129 2.087 4.009-.13 1.035-.023 2.105-.023 3.368z" fill="#ececec"/></svg>