<svg fill="none" height="20" width="103" xmlns="http://www.w3.org/2000/svg"><path d="m9.381 19.137v-1.529c-.815 1.122-2.242 1.733-4.077 1.733-2.854 0-4.587-1.733-4.587-4.077 0-2.447 1.835-3.976 5.097-3.976h3.67v-.306c0-1.427-.918-2.242-2.753-2.242-1.223 0-2.548.408-3.975 1.121l-1.224-2.446c1.937-1.02 3.67-1.53 6.015-1.53 3.567 0 5.606 1.734 5.606 4.69v8.562zm-3.058-2.547c1.631 0 2.855-.815 3.058-1.937v-1.121h-2.956c-1.427 0-2.14.408-2.14 1.529 0 .917.713 1.529 2.038 1.529zm13.864-10.602h-3.772v13.15h3.772v-6.32c0-2.243 1.63-3.67 4.383-3.467v-3.465c-1.937 0-3.466.917-4.383 2.548zm12.13-.102c-4.077 0-6.83 2.752-6.83 6.728 0 3.975 2.753 6.625 6.728 6.625 2.752 0 4.791-1.121 5.913-2.854l-2.65-1.733c-.714 1.02-1.734 1.53-3.059 1.53-1.835 0-3.16-1.428-3.16-3.568 0-2.141 1.325-3.466 3.16-3.466 1.325 0 2.345.51 3.058 1.427l2.549-1.835c-1.122-1.835-3.16-2.854-5.709-2.854zm16.718 0c-2.039 0-3.67.815-4.587 2.446v-7.34h-3.772v18.145h3.772v-6.422c0-1.936 1.12-3.364 3.058-3.364 1.63 0 2.65 1.02 2.65 2.65v7.136h3.772v-8.257c0-3.058-1.937-4.994-4.893-4.994z" fill="#ececec"/><path d="m50.972 5.886c-2.039 0-3.67.815-4.587 2.446v-7.34h-3.772v18.145h3.772v-6.422c0-1.936 1.121-3.364 3.058-3.364 1.631 0 2.65 1.02 2.65 2.65v7.136h3.772v-8.257c0-3.058-1.937-4.994-4.893-4.994z" fill="#cff4ff"/><path d="m49.034 5.886c-2.04 0-3.67.815-4.587 2.446v-7.34h-3.772v18.145h3.772v-6.422c0-1.936 1.12-3.364 3.058-3.364 1.63 0 2.65 1.02 2.65 2.65v7.136h3.772v-8.257c0-3.058-1.937-4.994-4.893-4.994z" fill="#000" opacity=".296"/><path d="m64.834 5.886c4.69 0 6.83 3.058 6.524 7.849h-9.48c.408 1.63 1.733 2.65 3.466 2.65 1.223 0 2.446-.51 3.364-1.427l2.038 2.039c-1.325 1.427-3.262 2.344-5.708 2.344-4.281 0-6.932-2.65-6.932-6.626-.102-4.179 2.65-6.83 6.728-6.83zm-3.058 5.606h6.014c0-1.733-1.223-2.854-2.956-2.854-1.63 0-2.854 1.121-3.058 2.854zm16.004 7.645v-18.144h-3.874v18.144zm7.645 0v-18.144h-3.771v18.144zm9.786-13.251c4.282 0 7.136 2.65 7.136 6.728 0 3.975-2.854 6.727-7.136 6.727-4.281 0-7.135-2.752-7.135-6.728 0-4.077 2.854-6.727 7.135-6.727zm0 3.16c-1.937 0-3.262 1.427-3.262 3.568 0 2.14 1.325 3.67 3.262 3.67s3.262-1.428 3.262-3.569c0-2.14-1.325-3.67-3.262-3.67z" fill="#cff4ff"/></svg>