<svg fill="none" height="17" width="85" xmlns="http://www.w3.org/2000/svg"><path d="m11.722 15.805-4.453-13.253-3.888 11.308h5.488v1.83h-8.226l5.602-15.532h2.278l5.488 15.531h-2.29v.115zm9.249-9.25c-.23 0-.46-.115-.69-.115a3.37 3.37 0 0 0 -3.187 3.659v5.752h-1.945v-10.895h1.945v2.06a3.452 3.452 0 0 1 3.313-2.301c.2-.031.403.01.575.115zm5.143 9.48c-3.198 0-5.142-2.174-5.142-5.752s2.174-5.752 5.142-5.752a4.66 4.66 0 0 1 4.602 2.968l-1.599.805a2.98 2.98 0 0 0 -2.967-2.174c-1.945 0-3.198 1.484-3.198 4.107s1.369 4.107 3.198 4.107a3.371 3.371 0 0 0 3.198-1.944l1.484.805a4.855 4.855 0 0 1 -4.717 2.83zm14.968-.229h-1.944v-6.281c0-2.405-.91-3.084-2.508-3.084a2.91 2.91 0 0 0 -2.854 3.199v6.281h-1.944v-15.646h1.944v6.282a3.785 3.785 0 0 1 3.544-1.83 3.451 3.451 0 0 1 3.083 1.37c.522.897.763 1.931.69 2.968v6.741zm3.542-10.85h-1.944v10.85h1.944zm-.919-2.404a1.265 1.265 0 0 1 -1.254-1.254 1.254 1.254 0 1 1 2.508 0 1.15 1.15 0 0 1 -1.254 1.254zm8.915 3.89h-2.404v9.25h-1.944v-9.25h-2.048v-1.6h2.048v-3.427h1.944v3.429h2.404v1.599zm3.429-1.485h-1.944v10.849h1.944v-10.85zm-.92-2.405a1.254 1.254 0 1 0 0-2.508 1.254 1.254 0 0 0 0 2.508zm10.963 13.254h-8.56v-1.484l6.168-7.766h-5.833v-1.6h8.226v1.485l-6.282 7.88h6.282v1.485zm10.633-5.258c0-3.198-1.599-5.752-4.912-5.752-2.969 0-5.143 2.3-5.143 5.603 0 3.543 2.06 5.752 5.143 5.752a5.51 5.51 0 0 0 4.763-2.508l-1.37-1.024a3.6 3.6 0 0 1 -3.198 1.83 3.348 3.348 0 0 1 -3.451-3.66h8.053l.115-.24zm-7.996-1.3a3.164 3.164 0 0 1 3.245-3.037c1.599 0 2.623 1.15 2.853 3.083zm15.301-2.693c-.23 0-.46-.115-.69-.115a3.371 3.371 0 0 0 -3.198 3.659v5.752h-1.933v-10.895h1.944v2.06a3.451 3.451 0 0 1 3.314-2.301c.199-.031.403.01.575.115z" fill="#ececec"/></svg>