<svg width="117" height="14" fill="none" xmlns="http://www.w3.org/2000/svg"><path d="M95.243 1.023c.345 0 .673-.057.968.02.202.052.386.267.527.449.927 1.187 1.837 2.386 2.757 3.578.921 1.191 1.822 2.336 2.723 3.508.43.559.834 1.136 1.259 1.698.113.1.238.187.371.258V1.038h1.319c.009.174.022.328.022.482v11.033c0 .616-.353.855-.929.573a2.222 2.222 0 0 1-.733-.605c-.916-1.15-1.807-2.322-2.705-3.485L98.037 5.44c-.402-.52-.795-1.047-1.202-1.563a1.1 1.1 0 0 0-.293-.176v8.963c0 .508 0 .52-.507.517-.88 0-.828.126-.827-.813.006-3.667.006-7.332 0-10.993.012-.111.025-.217.035-.353zm18.072 6.33h3.686v4.305c0 .293-.134.447-.374.593a7.107 7.107 0 0 1-2.492.899c-.675.118-1.386.042-2.079.073a5.19 5.19 0 0 1-2.754-.655 5.781 5.781 0 0 1-2.492-2.693c-.616-1.319-.611-2.677-.526-4.055.032-.516.23-1.035.418-1.527a4.73 4.73 0 0 1 1.338-1.963 8.323 8.323 0 0 1 1.758-1.098c1.358-.65 2.825-.542 4.251-.387.988.109 1.874.587 2.653 1.226.036.029.094.09.083.111a4.719 4.719 0 0 1-.439.87c-.065.089-.355.087-.497.024-.371-.161-.702-.412-1.073-.569-1.026-.44-2.052-.622-3.2-.406-.998.188-1.836.587-2.503 1.286-.626.66-1.055 1.466-1.111 2.414-.031.526-.214 1.057-.167 1.57.146 1.648.68 3.146 2.198 4.034a4.917 4.917 0 0 0 3.78.516 11.91 11.91 0 0 0 1.519-.479.643.643 0 0 0 .35-.44c.037-.716.021-1.436.015-2.154 0-.274-.166-.387-.428-.386-.477 0-.953-.013-1.428 0-.344.012-.498-.127-.484-.47.005-.207-.002-.41-.002-.64zM71.59 12.93c1.612-3.957 3.213-7.915 4.844-11.926.505 0 1.026-.02 1.542.015.111.007.252.187.309.318.33.765.649 1.536.956 2.312.22.556.409 1.126.633 1.682.224.555.492 1.109.722 1.67.23.562.44 1.142.657 1.71.214.545.44 1.084.66 1.626.174.433.343.868.521 1.299.18.43.373.88.594 1.394-.55.036-1.055.146-1.546-.094a.554.554 0 0 1-.203-.28c-.31-.733-.615-1.479-.919-2.22-.026-.065-.022-.146-.046-.21-.115-.312-.264-.541-.669-.537-1.55.018-3.1.015-4.65 0-.364 0-.601.124-.733.463-.293.774-.594 1.545-.87 2.324-.146.428-.292.573-.754.586-.324.012-.648 0-.97 0l-.078-.132zm5.624-10.273c-.14.427-.23.75-.35 1.06-.294.756-.606 1.51-.914 2.261-.239.587-.52 1.157-.71 1.76-.09.292-.439.559-.204.93h4.581c-.586-1.971-1.527-3.742-2.11-5.639-.03-.114-.153-.199-.293-.372zM70.619.897v1.242h-5.833v4.182c.18.012.335.032.49.032h3.847c.473 0 .485.013.485.5v.632h-4.806v4.397h5.831c.014.376.008.753-.017 1.128-.009.07-.248.161-.381.163-1.44.012-2.882.007-4.32.007-.77 0-1.54-.011-2.308 0-.328.008-.426-.13-.426-.44V1.227c0-.243.063-.392.347-.391h6.81c.095.015.189.036.28.062zM18.998 6.35h4.722l.077 1.141H19.01v4.397h5.85c.013.375.007.75-.018 1.123-.009.07-.245.166-.377.167-1.207.013-2.417.008-3.624.008-1 0-2-.01-3.002 0-.317 0-.44-.112-.44-.424V1.253c0-.265.077-.409.374-.407h6.771c.099.008.197.023.294.044v1.24h-5.841v4.22zM26.131.885c.19-.015.332-.035.476-.035h6.554c.512 0 .535.026.534.538v.293c.037.356-.135.47-.473.469-1.673-.01-3.345 0-5.017 0-.167 0-.335.02-.532.033-.017.162-.038.294-.04.42 0 1.096.009 2.198-.007 3.288 0 .35.123.475.47.472 1.32-.011 2.638 0 3.957 0h.455v1.12c-.156.009-.293.022-.44.024h-3.92c-.439 0-.514.067-.514.505v3.4c0 .12.014.24.024.417.185.039.373.065.563.077h4.983c.47 0 .497.03.495.499 0 .783 0 .783-.782.783h-6.298c-.487 0-.509-.018-.509-.483V1.34c-.004-.138.01-.27.02-.454zm64.213 2.157a5.422 5.422 0 0 1-.77-.397c-.719-.529-1.512-.79-2.4-.671-1.076.146-1.894.835-1.973 1.905-.056.765.545 1.377 1.113 1.645.644.305 1.333.514 1.993.79.612.238 1.21.513 1.788.823a1.98 1.98 0 0 1 .99 1.506c.034.237.156.466.168.702.078 1.514-.966 3.086-2.383 3.623-.953.36-1.956.335-2.919.19a4.618 4.618 0 0 1-2.557-1.294c-.158-.155-.19-.255-.012-.407a1.38 1.38 0 0 0 .211-.293c.236-.358.522-.421.88-.18.58.428 1.226.756 1.912.973.944.266 2.345-.094 2.939-.927.501-.7.608-1.465.198-2.235a1.567 1.567 0 0 0-.652-.646c-.557-.268-1.163-.44-1.737-.672-.773-.312-1.621-.461-2.278-1.025-.656-.565-1.08-1.195-1.026-2.09.022-.363-.063-.754.041-1.088.14-.453.36-.878.647-1.255C85.32.993 86.447.713 87.706.743c.923.02 1.787.186 2.582.677.622.382.69.573.324 1.194-.067.115-.133.214-.268.428zM7.168 6.582V7.78c-.223-.01-.412-.026-.603-.026h-3.81c-.587 0-.67.083-.67.677v4.544H.473V1.395c0-.556 0-.568.574-.568h6.555c.518 0 .538.022.535.534 0 .69 0 .689-.708.689h-4.65c-.233.02-.464.059-.69.117v3.857c0 .488.05.54.55.54h4.066c.142-.002.285.01.463.019zm33.149 6.367h-1.635V2.165h-3.906V.856h9.527V2.13H40.38a4.48 4.48 0 0 0-.112.666c-.006 3.155-.006 6.309 0 9.463-.001.215.03.43.049.69zm6.028-7.155l-.04-.2c-.633-.164-.9-.664-1.153-1.172-.205-.408-.224-.85-.227-1.303a2.14 2.14 0 0 1 1.04-1.897 3.651 3.651 0 0 1 2.955-.48c.377.09.733.147 1.026.427.047.047.159.027.255.038l.075-.403.094.01v2.328l-.073.024a5.652 5.652 0 0 1-.228-.743c-.098-.587-.485-.93-.954-1.207-.501-.293-1.073-.293-1.594-.186a1.986 1.986 0 0 0-1.454 1.193 2.51 2.51 0 0 0-.156 1.376c.096.807.477 1.485 1.2 1.888.323.179.734.21 1.173.33-.089.06-.185.11-.286.147-.344.06-.697.082-1.036.165a2.241 2.241 0 0 0-1.416 1.085 4.642 4.642 0 0 0-.6 2.47c.048 1.292.586 2.346 1.777 2.903.741.36 1.578.473 2.388.32.6-.112 1.172-.232 1.677-.559a2.666 2.666 0 0 0 1.269-1.945c.146-1.082-.179-1.929-1.061-2.558a1.73 1.73 0 0 0-2.215.13c-.17.168-.236.45-.327.687a1.374 1.374 0 0 0-.04.35l-.127.053c-.069-.116-.202-.235-.195-.346.047-.778.245-1.494 1.064-1.813.415-.17.846-.297 1.287-.38.622-.105 1.256-.132 1.884-.203.989-.112 1.434-.546 1.626-1.563a.671.671 0 0 1 .09-.173l.12.01c0 .41-.019.826 0 1.238.04.68-.35 1.122-.88 1.396-.364.19-.829.203-1.252.269a4.166 4.166 0 0 1-.635 0l-.035.1c.147.14.287.286.417.44.415.543.642 1.206.648 1.89.044 1.307-.57 2.222-1.633 2.855-.4.239-.914.277-1.352.461-.72.305-1.475.27-2.199.154-1.25-.199-2.434-.604-3.19-1.745-.292-.44-.547-.888-.537-1.44.01-.55-.087-1.122.05-1.637.24-.91.714-1.725 1.558-2.233.397-.206.805-.39 1.222-.551zm-35.431 6.101h5.3c.015.353.01.707-.016 1.06-.01.088-.216.214-.336.217-.683.02-1.366.01-2.052.01H9.75c-.406 0-.526-.122-.526-.517V1.372c0-.096.011-.19.02-.32H10.8V11.31c.02.198.059.394.114.585zM55.011 1.041h1.465c.01.189.025.356.025.521v9.754c0 .516.038.56.565.562h4.354c.167 0 .336.019.556.03 0 .365.013.701 0 1.037-.015.262-.235.234-.417.234h-6.227c-.244 0-.356-.085-.356-.34V1.222c.008-.06.02-.122.035-.181zm37.433.004h1.523c.009.146.022.271.022.4 0 3.763.003 7.525.007 11.286 0 .328-.098.475-.44.451-.28-.019-.566.028-.839-.019-.117-.02-.293-.2-.293-.306 0-1.777.017-3.555.023-5.33v-5.52l-.003-.962z" fill="#ECECEC"/></svg>