<svg fill="none" height="19" width="92" xmlns="http://www.w3.org/2000/svg"><path d="m20.593 2.86h16.657c.529 0 .76.146.865.539.118.428-.108.807-.542.885-.196.029-.394.04-.592.032h-32.575c-.613 0-1.166.107-1.624.55a2.003 2.003 0 0 0 -.636 1.439c-.018.779 0 1.559-.01 2.338 0 .23.088.284.298.281.72-.009 1.44-.007 2.159 0 .536 0 .829.483.6.968a.474.474 0 0 1 -.466.294c-.739-.007-1.48.011-2.219 0-.284-.006-.374.09-.373.372.009 2.25 0 4.498.01 6.747 0 .328-.072.584-.388.72-.37.161-.747.154-1.046-.118-.118-.111-.17-.35-.171-.53-.01-3.217-.012-6.432-.007-9.647v-1.42c.026-1.477 1.102-2.91 2.521-3.306a4.406 4.406 0 0 1 1.17-.125c5.456-.017 10.912-.023 16.369-.019z" fill="#a0cee0"/><path d="m62.144 10.202c.678-1.028 1.596-1.486 2.742-1.373 1.183.118 2.037.786 2.62 1.81.33.598.496 1.271.483 1.953v4.735c0 .542-.262.72-.796.75s-.816-.252-.817-.768v-4.705c0-.947-.433-1.64-1.258-2.097-1.074-.592-2.335 0-2.75.988-.142.328-.22.68-.231 1.038-.025 1.607-.01 3.215-.012 4.822 0 .445-.302.724-.8.72-.463 0-.804-.258-.802-.716.012-4.39.015-8.78.008-13.17 0-.624.567-.98 1.153-.725a.665.665 0 0 1 .45.689c-.016 1.883-.009 3.768-.008 5.652 0 .114.01.226.018.397zm25.757 3.784c-.68 0-1.361.007-2.042 0-.245 0-.328.093-.33.33-.02 1.557.909 2.421 2.477 2.559.806.07 1.521-.18 2.187-.618.228-.15.48-.203.718 0 .238.202.4.457.274.722a1.599 1.599 0 0 1 -.603.673 4.818 4.818 0 0 1 -3.113.545c-.867-.119-1.657-.401-2.317-.976-.632-.546-1.075-1.222-1.13-2.073-.063-.96-.142-1.929-.076-2.885.118-1.658 1.338-3.053 3.103-3.362 1.461-.256 2.696.17 3.635 1.311a3.178 3.178 0 0 1 .64 2.96.931.931 0 0 1 -.884.746c-.845.052-1.691.072-2.538.106zm-.355-1.097c.56 0 1.123-.01 1.685 0 .668.015.775-.462.666-.916-.012-.048-.038-.091-.047-.139-.279-1.503-1.914-2.13-3.203-1.449-.995.526-1.174 1.463-1.109 2.36 0 .053.152.133.237.136.586.014 1.178.007 1.77.007zm-31.85 1.097c-.69 0-1.382.008-2.072 0-.221 0-.273.071-.288.288-.105 1.679 1.077 2.494 2.432 2.604a3.21 3.21 0 0 0 2.037-.511c.542-.345.71-.33 1.043.059.266.31.249.526-.02.843-.355.415-.829.61-1.327.766-.86.27-1.775.306-2.654.107-1.687-.378-3.107-1.585-3.096-3.597 0-.651.024-1.302 0-1.953-.073-1.672 1.058-3.039 2.486-3.552 1.692-.608 3.607.017 4.512 1.54.465.783.63 1.628.413 2.52-.1.415-.4.77-.888.803-.855.06-1.713.077-2.569.113l-.01-.03zm-2.33-1.114c.08.006.157.016.237.016h3.368c.614 0 .779-.201.718-.745a3.075 3.075 0 0 0 -.109-.537c-.423-1.462-2.142-1.848-3.253-1.153-.91.57-1.073 1.43-.96 2.42z" fill="#ececec"/><path d="m39.367 13.992c-.681 0-1.362.008-2.041 0-.23 0-.295.073-.31.305-.103 1.657 1.073 2.457 2.412 2.572a3.166 3.166 0 0 0 1.977-.464 3.01 3.01 0 0 1 .355-.198.572.572 0 0 1 .761.196c.223.294.237.564.008.835-.356.424-.83.633-1.34.792a5.11 5.11 0 0 1 -2.711.1c-1.23-.28-2.224-.92-2.762-2.101a3.498 3.498 0 0 1 -.278-1.217c-.045-.757-.017-1.518-.02-2.277 0-1.593.79-2.693 2.181-3.358 1.96-.938 4.318-.024 5.076 1.941.264.634.313 1.336.141 2-.125.459-.427.77-.914.801-.844.057-1.691.076-2.538.11zm-2.298-1.104h1.283c.809 0 1.617 0 2.426-.006.426 0 .603-.181.592-.592a2.986 2.986 0 0 0 -.134-.777c-.338-1.043-1.674-1.687-2.698-1.317-1.172.418-1.725 1.418-1.469 2.692zm-8.816-.721c0 .76.008 1.52 0 2.279a3.812 3.812 0 0 1 -2.841 3.67c-2.177.616-4.38-.954-4.694-3.003a6.1 6.1 0 0 1 -.076-.88c-.008-1.5 0-2.999 0-4.499 0-.418.14-.63.487-.75.383-.133.813-.04 1.01.266.082.154.121.328.112.502.008 1.55 0 3.098.007 4.646 0 .958.424 1.69 1.26 2.14 1.086.58 2.476.031 2.908-1.144.132-.358.203-.736.21-1.118.025-1.53.01-3.057.012-4.587 0-.498.277-.762.79-.766.514-.003.815.282.816.785zm-14.706.117v2.22c.008 1.494-.72 2.567-1.976 3.27-1.993 1.117-4.531.15-5.326-2.002a3.7 3.7 0 0 1 -.229-1.197c-.025-1.648-.012-3.295-.01-4.942 0-.434.31-.71.788-.71.454 0 .81.31.81.71v4.942c.005 1.208 1.089 2.24 2.292 2.195.797-.03 1.678-.699 1.91-1.483.081-.27.124-.552.127-.835.011-1.58.005-3.157.007-4.735 0-.384.148-.61.473-.727.393-.143.82-.07 1.028.212.07.115.103.249.097.383.013.905.01 1.802.01 2.7z" fill="#a0cee0"/><path d="m47.29 15.62c.188-.49.38-.979.562-1.471.37-.998.733-1.998 1.103-2.996.237-.645.489-1.288.73-1.932.088-.237.27-.367.499-.308.3.073.586.191.85.35.237.144.19.425.106.644-.395 1.035-.808 2.064-1.215 3.095l-1.42 3.6c-.142.355-.28.71-.408 1.077-.167.466-.66.692-1.163.552-.31-.09-.439-.315-.542-.583l-1.065-2.753c-.474-1.211-.954-2.42-1.429-3.63-.168-.433-.323-.871-.492-1.303-.183-.474-.119-.689.305-.91a1.42 1.42 0 0 1 .535-.144c.407-.028.504.06.643.42.364.94.694 1.894 1.043 2.84.426 1.152.86 2.303 1.291 3.454l.068-.002zm25.392-2.088c.05-.636.06-1.277.158-1.906.177-1.125.767-1.997 1.834-2.434 1.44-.592 2.88-.572 4.237.277.438.274.584.65.336 1.081-.249.43-.516.51-.918.243a2.95 2.95 0 0 0 -1.894-.516c-.904.061-1.617.417-1.954 1.302-.093.259-.141.532-.144.807-.02.75-.032 1.5 0 2.25.055 1.316.76 2.038 2.117 2.14.76.059 1.414-.195 2.044-.583.392-.237.911.058.971.522.054.406-.169.656-.473.855-.925.612-1.952.75-3.03.636-.733-.076-1.42-.294-2.005-.765a3.257 3.257 0 0 1 -1.008-1.49c-.287-.786-.212-1.604-.271-2.42z" fill="#ececec"/><path d="m15.248 11.028v-4.556c0-.474.293-.743.785-.741.513 0 .81.28.81.759 0 .72.008 1.44 0 2.16 0 .207.064.275.27.272.662-.01 1.323-.007 1.983 0a.65.65 0 0 1 .557.994.474.474 0 0 1 -.451.267c-.69-.012-1.382 0-2.072-.008-.224 0-.287.072-.285.289.007 1.627 0 3.255.007 4.883 0 .932.498 1.249 1.255 1.308.293.022.591.007.886.013.402.01.682.25.71.606.035.454-.163.759-.598.787-.964.062-1.928.064-2.79-.482a2.015 2.015 0 0 1 -.947-1.388 6.792 6.792 0 0 1 -.118-1.135c-.014-1.34-.002-2.685-.002-4.028z" fill="#a0cee0"/><path d="m82.325 10.738v6.57c0 .515-.28.78-.805.77-.507-.009-.798-.295-.8-.787 0-4.37-.001-8.74-.005-13.108 0-.396.175-.624.512-.744.338-.12.876.027 1.018.278a.958.958 0 0 1 .076.454c.005 2.188.006 4.377.004 6.567z" fill="#ececec"/><path d="m31.457 10.208c.4-.465.81-.872 1.353-1.135.601-.293 1.239-.307 1.878-.248.355.033.552.404.516.843a.646.646 0 0 1 -.638.606c-.48.01-.967-.043-1.42.168-1 .46-1.54 1.263-1.57 2.336a62.045 62.045 0 0 0 0 4.38c.023.675-.524 1.065-1.137.883-.282-.084-.465-.245-.498-.547a2.71 2.71 0 0 1 -.016-.295v-7.427c0-.692.473-1.014 1.124-.78a.553.553 0 0 1 .417.57c-.013.214-.01.43-.01.646z" fill="#a0cee0"/><path d="m69.632 13.48v-3.846c0-.474.26-.705.77-.71.508-.007.828.272.828.71v7.718c0 .432-.336.74-.817.722-.44-.015-.801-.204-.79-.727.025-1.288.009-2.58.009-3.868z" fill="#ececec"/><g fill="#a0cee0"><path d="m40.807 6.9c-.355-.017-.53-.228-.644-.488-.129-.293.057-.512.237-.702.473-.5.947-1.012 1.469-1.47.449-.397.428-.884 0-1.278-.521-.473-1.011-.983-1.496-1.494-.19-.197-.347-.43-.177-.737.146-.265.347-.437.655-.377.16.036.307.115.425.23.85.841 1.693 1.69 2.53 2.547.293.301.293.668 0 .971-.843.859-1.694 1.71-2.551 2.552-.122.114-.299.166-.448.245z"/><path d="m37.893 6.897a.646.646 0 0 1 -.582-.396.61.61 0 0 1 .118-.71c.537-.544 1.073-1.09 1.608-1.635.407-.416.407-.681 0-1.108-.52-.535-1.051-1.065-1.569-1.598-.346-.362-.268-.828.16-1.05.236-.128.507-.07.764.185.652.65 1.302 1.302 1.95 1.96.192.196.392.384.577.586.29.316.31.611.018.915-.852.885-1.715 1.759-2.588 2.621-.116.115-.303.155-.456.23zm32.264-5.99c1.572 0 2.76.355 3.758 1.237.307.272.346.543.132.793-.142.166-.493.245-.79-.018-1.024-.9-2.257-1.1-3.552-.954a3.892 3.892 0 0 0 -2.194.965c-.262.237-.566.226-.76.008-.215-.237-.195-.509.093-.766a4.915 4.915 0 0 1 3.313-1.265zm.254 6.979a1.616 1.616 0 0 1 -1.648-1.61 1.657 1.657 0 0 1 1.624-1.637c.954-.025 1.657.818 1.657 1.629-.015.861-.722 1.66-1.633 1.618zm-.547-1.604c0 .337.223.566.54.56a.558.558 0 0 0 .546-.576.54.54 0 0 0 -.56-.556c-.335.004-.534.223-.53.572z"/><path d="m70.453 2.622c.877.034 1.722.263 2.416.906.25.236.295.56.104.771-.212.237-.49.23-.781 0a2.733 2.733 0 0 0 -2.477-.552 2.575 2.575 0 0 0 -1.133.568c-.259.226-.567.216-.763 0a.544.544 0 0 1 .08-.764c.71-.659 1.565-.906 2.554-.929z"/></g></svg>