<svg width="90" height="16" fill="none" xmlns="http://www.w3.org/2000/svg"><path d="M90 11.593v-1.28a7.737 7.737 0 0 0-1.295-.205V6.084c0-1.374-.569-2.494-2.336-2.494-1.28 0-2.194.647-2.668 1.563h-.016c.08-.426.11-1.058.11-1.421a22.618 22.618 0 0 0-3.282.142v1.263c.457.032.994.095 1.373.158v4.813a9.022 9.022 0 0 0-1.373.206v1.279h4.545v-1.295a6.763 6.763 0 0 0-1.152-.19V7.804c0-1.373.805-2.526 1.831-2.526.742 0 .963.49.963 1.294v5.02H90zm-9.883 0v-1.28a7.794 7.794 0 0 0-1.279-.205V3.732a23.483 23.483 0 0 0-3.394.142v1.262c.459.032.995.095 1.374.158v4.814a9.03 9.03 0 0 0-1.374.206v1.279h4.673zM79.09 1.364c0-.694-.568-1.23-1.263-1.23-.679 0-1.247.552-1.247 1.23 0 .679.568 1.216 1.247 1.216.695 0 1.263-.553 1.263-1.216zM74.9 11.593V8.988h-1.31c-.08.348-.127.679-.158.994h-.805c-.458 0-1.073 0-1.405.017l3.582-4.768V3.748h-5.856v2.478h1.327c.063-.348.11-.631.157-.963h.71c.49 0 1.105-.016 1.405-.032l-3.646 4.877v1.485H74.9zm-9.802-3.268c0 .962-.68 1.894-1.673 1.894-.584 0-.931-.38-.931-.9 0-.805.789-1.184 2.604-1.184v.19zm3.314 3.157v-1.279c-.41-.031-.915-.095-1.294-.157V6.305c0-1.72-.71-2.731-3.267-2.731-.979 0-1.91.158-2.731.394v2.305h1.278c.064-.348.127-.71.158-1.026a4.14 4.14 0 0 1 1.105-.142c1.104 0 1.436.426 1.436 1.263v.473c-2.667.016-4.53.9-4.53 2.778 0 1.263.82 2.13 2.241 2.13 1.17 0 2.13-.615 2.51-1.499l.016.016c-.063.41-.078.884-.078 1.341a22.702 22.702 0 0 0 3.156-.125zm-10.078 1.216c0 .74-.693 1.309-2.004 1.309-1.01 0-1.673-.442-1.673-1.168 0-.442.268-.868.726-1.2h.363l1.358.048c.868.032 1.23.442 1.23 1.01zm-.663-6.267c0 .836-.536 1.341-1.42 1.341-.947 0-1.452-.52-1.452-1.357 0-.79.536-1.373 1.452-1.373.931 0 1.42.553 1.42 1.389zm2.668 5.998c0-1.515-.978-2.241-2.668-2.305l-1.215-.047c-.916-.031-1.215-.126-1.215-.49 0-.189.126-.394.378-.504.22.047.395.062.616.062 2.242 0 3.361-1.152 3.361-2.824 0-.41-.14-.759-.394-.995h1.073V3.748H57.61a4.64 4.64 0 0 0-1.278-.174c-2.29 0-3.457 1.389-3.457 2.968 0 1.025.442 1.751 1.167 2.146-.536.237-.93.79-.93 1.405 0 .537.3.979.773 1.2-.647.346-1.215 1.104-1.215 1.925 0 1.53 1.278 2.336 3.36 2.336 2.606 0 4.31-1.437 4.31-3.125zM49.136 8.325c0 .962-.68 1.894-1.674 1.894-.583 0-.93-.38-.93-.9 0-.805.789-1.184 2.604-1.184v.19zm3.314 3.157v-1.279c-.41-.031-.915-.095-1.294-.157V6.305c0-1.72-.71-2.731-3.267-2.731a9.91 9.91 0 0 0-2.731.394v2.305h1.278c.063-.348.127-.71.159-1.026a4.15 4.15 0 0 1 1.104-.142c1.105 0 1.436.426 1.436 1.263v.473c-2.667.016-4.53.9-4.53 2.778 0 1.263.822 2.13 2.242 2.13 1.167 0 2.13-.615 2.51-1.499l.016.016a9.06 9.06 0 0 0-.08 1.341 22.714 22.714 0 0 0 3.157-.125zm-8.343.11v-1.278a7.52 7.52 0 0 0-1.278-.206V6.194c0-1.768-.837-2.604-2.352-2.604a2.795 2.795 0 0 0-2.557 1.563c-.19-.758-.774-1.563-2.162-1.563-1.168 0-2.116.615-2.589 1.578l-.016-.016c.063-.442.095-1.057.095-1.42a22.71 22.71 0 0 0-3.283.142v1.262c.457.032.994.095 1.373.158v4.814a9.005 9.005 0 0 0-1.373.206v1.279h4.545v-1.295a6.744 6.744 0 0 0-1.152-.19V7.836c0-1.468.869-2.558 1.8-2.558.773 0 .931.569.931 1.342v4.972h3.141v-1.294a6.511 6.511 0 0 0-1.152-.19V7.836c0-1.532.915-2.558 1.8-2.558.741 0 .93.521.93 1.358v4.956h3.299zm-14.687 0V8.989h-1.31a8.204 8.204 0 0 0-.158.994h-.805c-.458 0-1.073 0-1.405.017l3.584-4.768V3.748H23.47v2.478h1.326c.063-.348.11-.631.157-.963h.71c.49 0 1.106-.016 1.405-.032l-3.646 4.877v1.485h5.998zm-6.566 0v-1.278a7.519 7.519 0 0 0-1.278-.206V.054a23.42 23.42 0 0 0-3.394.142V1.46c.458.032.995.095 1.373.158v8.491a9.035 9.035 0 0 0-1.373.206v1.279h4.672zm-6.708-3.961c0 1.594-.757 2.398-1.752 2.398-1.168 0-1.752-.82-1.752-2.43 0-1.61.884-2.305 1.784-2.305 1.184 0 1.72.822 1.72 2.337zm2.084-.111c0-2.7-1.436-3.93-3.662-3.93-2.383 0-4.009 1.767-4.009 4.213 0 2.795 1.437 3.946 3.662 3.946 2.352 0 4.01-1.767 4.01-4.23zm-7.893 4.073v-1.28a8.279 8.279 0 0 0-1.295-.205V6.084c0-1.374-.568-2.494-2.336-2.494-1.215 0-2.114.584-2.572 1.452h-.032c.11-.474.142-1.12.142-1.594V.054A23.419 23.419 0 0 0 .852.196v1.263c.457.031.994.094 1.373.157v8.492a9.02 9.02 0 0 0-1.373.205v1.28h4.545v-1.295a7.023 7.023 0 0 0-1.152-.19V7.82c0-1.389.805-2.542 1.815-2.542.758 0 .979.49.979 1.294v5.02h3.299z" fill="#ECECEC"/></svg>