<svg fill="none" height="39" width="75" xmlns="http://www.w3.org/2000/svg"><path d="m32.053 23.695c.431 0 .77-.086 1.02-.258.252-.172.378-.483.378-.932 0-.483-.175-.812-.526-.987-.187-.093-.438-.139-.752-.139h-2.242v2.316zm-3.04-3.105h3.137c.517 0 .943.076 1.278.226.637.29.955.823.955 1.601 0 .406-.084.738-.254.997a1.8 1.8 0 0 1 -.7.622c.264.108.462.25.594.425.136.175.211.46.226.853l.033.91c.009.258.03.45.064.576.056.215.154.354.296.415v.152h-1.126a.85.85 0 0 1 -.074-.226 4.354 4.354 0 0 1 -.046-.535l-.055-1.13c-.022-.443-.186-.74-.494-.89-.175-.084-.45-.125-.826-.125h-2.09v2.906h-.918zm10.196 4-1.029-2.994-1.093 2.994zm-1.509-4h1.038l2.46 6.777h-1.008l-.687-2.03h-2.68l-.734 2.03h-.94l2.55-6.777zm7.188-.184c.858 0 1.524.226 1.997.678.474.452.737.966.79 1.54h-.896c-.101-.436-.304-.782-.609-1.037-.301-.256-.726-.383-1.273-.383-.667 0-1.207.235-1.62.706-.408.467-.613 1.185-.613 2.154 0 .794.185 1.438.554 1.933.372.492.926.738 1.66.738.677 0 1.192-.26 1.546-.78.188-.273.328-.633.42-1.079h.895c-.08.714-.345 1.312-.794 1.795-.538.581-1.264.872-2.177.872-.787 0-1.449-.239-1.984-.715-.704-.63-1.056-1.604-1.056-2.92 0-1 .264-1.82.793-2.46.572-.695 1.361-1.042 2.367-1.042zm-15.898 11.207h4.701v.83h-3.783v2.058h3.326v.807h-3.326v3.082h-.918zm7.539 6.242c.55 0 .927-.208 1.13-.623.206-.418.309-.883.309-1.393 0-.461-.074-.837-.222-1.126-.233-.455-.636-.682-1.208-.682-.508 0-.877.193-1.107.58-.231.388-.346.856-.346 1.403 0 .526.115.964.346 1.315.23.35.596.526 1.098.526zm.032-4.549c.636 0 1.175.213 1.614.637.44.424.66 1.049.66 1.873 0 .796-.194 1.455-.581 1.974-.388.52-.989.78-1.804.78-.68 0-1.22-.23-1.62-.687-.4-.462-.599-1.08-.599-1.855 0-.83.21-1.492.632-1.984.421-.492.987-.738 1.698-.738zm4.096.143v3.28c0 .252.04.459.12.618.148.296.423.443.826.443.578 0 .972-.258 1.181-.775.114-.276.17-.656.17-1.14v-2.425h.831v4.941h-.784l.01-.729a1.674 1.674 0 0 1 -.402.475c-.317.259-.701.388-1.154.388-.704 0-1.184-.235-1.439-.706-.138-.252-.207-.589-.207-1.01v-3.359h.848zm4.43 0h.788v.702c.234-.29.481-.497.743-.623a1.98 1.98 0 0 1 .872-.19c.701 0 1.175.245 1.42.734.136.268.204.65.204 1.149v3.17h-.845v-3.115c0-.301-.044-.544-.133-.729-.148-.307-.416-.461-.803-.461-.197 0-.358.02-.484.06a1.247 1.247 0 0 0 -.6.406c-.139.163-.23.332-.272.507-.04.172-.06.42-.06.743v2.588h-.83v-4.94zm5.784 2.528c0 .53.113.972.337 1.329.225.357.584.535 1.08.535.384 0 .7-.164.945-.494.25-.332.374-.807.374-1.425 0-.624-.127-1.086-.383-1.384-.255-.301-.57-.452-.946-.452-.418 0-.758.16-1.02.48-.258.32-.387.79-.387 1.411zm1.25-2.615c.379 0 .696.08.95.24.149.092.316.253.504.484v-2.496h.798v6.8h-.747v-.687c-.194.304-.423.524-.688.66a1.968 1.968 0 0 1 -.909.203c-.55 0-1.027-.231-1.43-.693-.403-.464-.604-1.08-.604-1.85 0-.72.183-1.342.549-1.868.369-.529.895-.793 1.578-.793zm4.12 3.713c0 .24.088.43.263.568a.975.975 0 0 0 .623.207c.292 0 .575-.067.849-.203.461-.224.692-.592.692-1.102v-.67a1.419 1.419 0 0 1 -.392.162c-.16.043-.317.074-.47.093l-.504.064c-.301.04-.527.103-.678.19-.255.144-.383.375-.383.691zm2.012-1.679c.19-.025.318-.105.383-.24a.728.728 0 0 0 .055-.318c0-.283-.102-.488-.305-.614-.2-.129-.487-.193-.862-.193-.434 0-.741.116-.923.35-.101.13-.167.322-.198.577h-.775c.015-.61.212-1.032.59-1.269.382-.24.823-.36 1.324-.36.582 0 1.054.111 1.417.332.36.222.54.566.54 1.034v2.846c0 .086.016.156.05.208.037.052.112.078.226.078.037 0 .079-.001.125-.004.046-.006.095-.014.147-.023v.613c-.129.037-.227.06-.295.07-.068.009-.16.013-.277.013-.286 0-.493-.101-.623-.304a1.174 1.174 0 0 1 -.142-.457c-.17.221-.413.414-.73.577a2.255 2.255 0 0 1 -1.047.244c-.458 0-.833-.138-1.125-.415a1.398 1.398 0 0 1 -.434-1.047c0-.459.143-.814.429-1.066s.661-.407 1.126-.466zm2.777-3.326h.84v1.38h.788v.677h-.788v3.225c0 .172.058.288.175.346.064.034.172.05.323.05h.129c.046-.002.1-.007.161-.013v.655a1.858 1.858 0 0 1 -.3.06 2.77 2.77 0 0 1 -.331.019c-.388 0-.651-.099-.79-.296-.138-.2-.207-.458-.207-.775v-3.27h-.669v-.679h.669v-1.38zm2.463 1.402h.845v4.918h-.844v-4.918zm0-1.859h.845v.941h-.844v-.94zm4.065 6.242c.55 0 .927-.208 1.13-.623.206-.418.31-.883.31-1.393 0-.461-.075-.837-.222-1.126-.234-.455-.637-.682-1.209-.682-.507 0-.876.193-1.107.58-.23.388-.346.856-.346 1.403 0 .526.115.964.346 1.315.23.35.597.526 1.098.526zm.032-4.549c.637 0 1.175.213 1.615.637s.66 1.049.66 1.873c0 .796-.194 1.455-.582 1.974-.387.52-.989.78-1.804.78-.68 0-1.219-.23-1.619-.687-.4-.462-.6-1.08-.6-1.855 0-.83.211-1.492.632-1.984.422-.492.988-.738 1.698-.738zm3.266.143h.79v.702c.233-.29.48-.497.742-.623a1.98 1.98 0 0 1 .872-.19c.701 0 1.175.245 1.42.734.136.268.204.65.204 1.149v3.17h-.844v-3.115c0-.301-.045-.544-.134-.729-.148-.307-.415-.461-.803-.461-.197 0-.358.02-.484.06a1.247 1.247 0 0 0 -.6.406c-.138.163-.23.332-.272.507-.04.172-.06.42-.06.743v2.588h-.83v-4.94zm-47.396-32.718v5.635c-.21.013-.38.03-.54.037-2.157.105-4.35.081-6.497.348s-4.046 1.315-5.616 2.862a11.934 11.934 0 0 0 -3.617 7.29 36.55 36.55 0 0 0 -.229 3.602c-.04 2.286-.019 4.582-.024 6.859v1.188l.186.03c.134-.308.24-.628.318-.954a13.358 13.358 0 0 1 4.815-8.505c1.54-1.288 3.352-2.032 5.303-2.528 1.95-.496 3.878-.539 5.898-.488v5.773h-.712c-2.2.072-4.337.374-6.26 1.59-1.572.991-2.624 2.352-2.967 4.169a25.328 25.328 0 0 0 -.458 3.899c-.073 2.304-.02 4.613-.02 6.977h-12.406v-.671c0-5.805-.022-11.612.013-17.417 0-1.558 0-3.15.318-4.665 1.278-6.262 4.382-11.215 10.519-13.789a15.175 15.175 0 0 1 6.146-1.25c1.913.032 3.838.008 5.829.008z" fill="#ececec"/></svg>