<svg width="109" height="30" fill="none" xmlns="http://www.w3.org/2000/svg"><path d="M.157 17.917v-5.524c.182-.017.351-.043.523-.043h2.317c.847 0 .695-.036.854-.662a14.023 14.023 0 0 1 5.656-8.185A13.616 13.616 0 0 1 15.703 1.1a14.13 14.13 0 0 1 15.555 10.565c0 .033 0 .066.02.1.142.569.142.569.718.569h2.37c.162 0 .33 0 .47.02.122.393.156 4.812.043 5.5-.159 0-.331.043-.503.046h-2.37c-.586 0-.589 0-.725.57a14.119 14.119 0 0 1-11.435 10.59A14.113 14.113 0 0 1 3.874 18.623c-.182-.715-.179-.718-.904-.718H.157v.013zm8.725 0c.036.97 1.095 2.74 2.28 3.879a8.975 8.975 0 0 0 6.288 2.581 9.102 9.102 0 0 0 6.421-2.475c.933-.848 2.297-2.784 2.386-3.909a1.494 1.494 0 0 0-.33-.073l-17.045-.003zm-.087-5.646c.686.122 17.085.092 17.446 0 0-.748-.973-2.463-2.052-3.562a9.22 9.22 0 0 0-12.908-.35 8.737 8.737 0 0 0-2.486 3.915v-.003zm67.637-6.226l.142.45c.097-.037.19-.084.278-.139 1.205-.94 3.058-.427 3.87.758a3.801 3.801 0 0 1 .575 2.873c-.081.45-.237.884-.46 1.284-.705 1.281-2.505 1.715-3.71 1.182l-.526-.232v2.436c0 .364-.037.404-.394.404-1.195 0-1.02.122-1.023-.963V6.373c0-.232.12-.331.331-.331.288.003.586.003.917.003zm.169 3.27v1.082c0 .722.096.841.797.993.109.03.22.05.331.063 1.026.063 1.88-.394 2.095-1.496.032-.143.051-.29.056-.437.044-2.022-1.366-2.594-2.836-2.121-.41.132-.447.215-.45.662-.003.447-.007.817-.007 1.244l.014.01zm14.27 17.17a6.86 6.86 0 0 1-1.078.494 2.938 2.938 0 0 1-3.346-1.639 4.094 4.094 0 0 1 0-3.395c.662-1.543 2.74-2.132 4.001-1.324.106.057.217.106.331.146.032-.182.054-.366.066-.55v-1.873c0-.417.043-.46.447-.46 1.03 0 .93-.096.933.917v7.595c0 .467-.033.487-.52.493h-.244c-.305.06-.533-.036-.59-.403zm0-2.78v-1.323a.57.57 0 0 0-.403-.603 2.551 2.551 0 0 0-1.205-.195 1.76 1.76 0 0 0-1.654 1.443c-.037.226-.05.456-.04.685 0 1.758 1.552 2.376 2.84 1.89a.606.606 0 0 0 .466-.662c-.033-.414-.016-.824-.016-1.235h.013zm-40.513-3.428c1.794.04 3.382 1.324 3.399 3.382a3.31 3.31 0 0 1-3.396 3.422 3.348 3.348 0 0 1-3.386-3.412 3.413 3.413 0 0 1 3.383-3.392zm-1.913 3.386a1.916 1.916 0 1 0 3.829.02 1.916 1.916 0 1 0-3.83-.02zm28.684-.007a3.379 3.379 0 1 1-3.372-3.38 3.334 3.334 0 0 1 3.372 3.38zm-1.446 0a1.962 1.962 0 0 0-1.94-1.986 2.006 2.006 0 1 0 1.94 1.986zm24.93.037a3.302 3.302 0 0 1-.97 2.414 3.29 3.29 0 0 1-2.42.955 3.332 3.332 0 0 1-3.375-3.446 3.372 3.372 0 0 1 3.435-3.339 3.335 3.335 0 0 1 3.33 3.415zm-5.273-.017a1.902 1.902 0 0 0 1.926 1.986 1.966 1.966 0 0 0 1.917-1.986 1.986 1.986 0 0 0-1.926-2.025 1.938 1.938 0 0 0-1.917 2.025zM89.243 9.295a3.329 3.329 0 0 1-3.363 3.369 3.368 3.368 0 0 1-3.402-3.425 3.416 3.416 0 0 1 3.373-3.373 3.353 3.353 0 0 1 3.392 3.429zm-1.43-.04a1.94 1.94 0 0 0-1.93-1.96 1.913 1.913 0 0 0-1.935 1.987 1.936 1.936 0 0 0 1.922 1.969 1.986 1.986 0 0 0 1.943-1.996zM58.071 12.49l-.216-.487-.473.255a3.09 3.09 0 0 1-2.042.331A1.88 1.88 0 0 1 54.3 9.53c.3-.376.7-.659 1.156-.814.54-.179 1.105-.295 1.655-.427.218-.053.447-.076.662-.113a.89.89 0 0 0-.662-1.036 2.932 2.932 0 0 0-1.744.063c-.292.086-.58.189-.904.295a2.623 2.623 0 0 1 .205-1.135.49.49 0 0 1 .301-.225 4.799 4.799 0 0 1 2.618-.196c.834.206 1.625.705 1.655 1.93.02 1.397.02 2.793 0 4.193 0 .358-.053.397-.4.41-.249.024-.51.014-.771.014zm-.275-3.273c-.788.063-1.513.188-2.128.681a.839.839 0 0 0-.156.186.867.867 0 0 0 .692 1.386 2.475 2.475 0 0 0 1.436-.41.405.405 0 0 0 .202-.251c.07-.53.055-1.068-.046-1.592zm-13.422-4.25h-2.29c-.331 0-.361-.043-.371-.377v-.642c0-.355.036-.388.404-.394h5.924c.175 0 .354.016.543.026.08.444.094.897.04 1.344a4.386 4.386 0 0 1-.44.043h-1.778c-.35 0-.394.05-.41.4v6.464c0 .192-.017.387-.03.616H44.42c0-.202-.036-.39-.036-.583v-6.22l-.01-.678zm62.259 21.93c0-.261-.026-.437-.03-.615v-3.241c-.039-1.115-.771-1.654-1.866-1.383-.143.036-.283.08-.421.132a.917.917 0 0 0-.662.993c.047 1.165 0 2.334 0 3.499v.539c-.427.09-.866.11-1.3.06-.133-.354-.169-5.713-.057-6.352a2.183 2.183 0 0 1 1.179-.056l.145.42a.715.715 0 0 0 .215-.072 2.742 2.742 0 0 1 1.215-.517c1.324-.192 2.893.378 2.952 2.28.037 1.298.017 2.599 0 3.896 0 .38-.039.407-.437.417h-.933zm-26.462 0H79c-.16 0-.235-.1-.245-.252v-5.726c0-.13.02-.258.033-.4.4-.153.788-.054 1.188-.074l.156.43c.056 0 .112.02.149 0 .132-.072.251-.158.38-.231a2.767 2.767 0 0 1 2.72-.036 2.019 2.019 0 0 1 1.1 1.654c.038.41.054.82.046 1.232v2.863c0 .532-.02.546-.566.549h-.768c-.02-.238-.046-.414-.046-.59v-2.763a4.797 4.797 0 0 0-.07-.784 1.343 1.343 0 0 0-1.681-1.168 2.65 2.65 0 0 0-.47.142c-.705.278-.764.367-.764 1.125v4.028h.01zm-17.504-14.44c-.235.017-.38.03-.523.033h-.834a4.017 4.017 0 0 1-.056-.46V6.502c0-.45.023-.467.473-.47h.752l.162.437h.139c.112-.063.218-.146.33-.212a2.78 2.78 0 0 1 2.78-.046A1.986 1.986 0 0 1 67 7.965c.06 1.396.033 2.793.04 4.193 0 .215-.084.331-.332.331h-.738a.277.277 0 0 1-.314-.298v-.493c-.02-1.069-.02-2.138-.056-3.207-.03-.94-.798-1.473-1.758-1.271a2.532 2.532 0 0 0-.377.1c-.715.264-.805.393-.805 1.144v3.995l.007-.003zm2.958 5.434v7.463c.245.017.42.037.596.037h2.714c.503 0 .52.02.523.536 0 .262 0 .526-.023.788 0 .043-.044.086-.08.155H64.06c0-.175-.043-.33-.043-.486V18.39c0-.48.02-.497.503-.5.344-.003.685 0 1.105 0zM73.053 7.6c-.589-.188-1.082-.354-1.582-.502a1.466 1.466 0 0 0-1.013.082.563.563 0 0 0-.397.513.54.54 0 0 0 .331.553c.222.103.457.175.689.258.526.186 1.065.331 1.575.56a1.79 1.79 0 0 1 .976 2.18c-.221.778-.804 1.136-1.525 1.324a4.554 4.554 0 0 1-3.148-.453.52.52 0 0 1-.33-.543v-.95l.588.305a4.22 4.22 0 0 0 2.072.543 1.55 1.55 0 0 0 .573-.126.557.557 0 0 0 .175-.933 1.512 1.512 0 0 0-.493-.315c-.35-.139-.715-.238-1.069-.37a11.731 11.731 0 0 1-1.135-.474c-1.159-.586-1.145-2.197-.11-2.902a2.916 2.916 0 0 1 1.682-.48 4.333 4.333 0 0 1 1.814.41.496.496 0 0 1 .33.53c.01.245.007.5-.003.79zm-28.94 13.968v5.269a5.179 5.179 0 0 1-1.397.043c-.06-1.771 0-3.505-.043-5.296-.225-.03-.427-.073-.632-.083-.205-.01-.364-.122-.354-.367.01-.245.02-.42.03-.662l.566-.043c.35-.026.37-.06.417-.407a6.56 6.56 0 0 1 .178-1.013 1.807 1.807 0 0 1 1.59-1.347 5.1 5.1 0 0 1 1.707.093.332.332 0 0 1 .298.232.344.344 0 0 1 .013.132v.79c-.384-.052-.705-.122-1.03-.138a1.183 1.183 0 0 0-1.323 1.28c0 .275.056.362.33.371.46.017.92 0 1.38.017.146 0 .405.08.415.149.03.27.018.544-.037.81 0 .057-.228.1-.354.103-.36.017-.721 0-1.082 0-.202.017-.394.043-.672.067zM99.797 6.045v1.046c-.172.017-.33.046-.483.05h-1.43c-.374 0-.436.066-.44.433v2.81a.938.938 0 0 0 .993 1.043c.31-.008.617-.05.917-.123.159-.026.308-.086.533-.149 0 .394.016.735 0 1.07 0 .089-.153.211-.255.24a3.667 3.667 0 0 1-2.367-.019c-.89-.33-1.2-1.079-1.224-1.956-.023-.877 0-1.807 0-2.71V7.2l-1.023-.106a1.985 1.985 0 0 1 0-1.052l.993-.056c.017-.172.04-.331.047-.484v-.787a.264.264 0 0 1 .297-.308h1.07c.016.212.04.37.042.53v.638c0 .387.05.427.427.434h1.38c.136.036.298.036.523.036zM56.725 26.876h-1.28c-.126-.35-.166-5.722-.05-6.378.394-.092.804-.1 1.201-.023l.166.632.404-.354a1.962 1.962 0 0 1 1.324-.49c.377 0 .46.09.486.46v.15c0 .641 0 .678-.619.708a3.55 3.55 0 0 0-1.112.33.76.76 0 0 0-.486.818c.026 1.182 0 2.367 0 3.548-.007.192-.02.367-.034.6zM92.147 6.045l.116.685c.165-.146.285-.238.394-.33A1.876 1.876 0 0 1 94 5.88c.371 0 .464.105.47.466v.775c-.185.02-.33.026-.466.05a5.579 5.579 0 0 0-.86.175c-.755.264-.851.423-.851 1.214v3.353c0 .175-.017.35-.027.563h-1.343c-.017-.172-.04-.331-.04-.487V6.571c0-.506 0-.51.536-.513l.728-.013zm-41.404 0l.123.662c.162-.139.285-.235.397-.33a1.93 1.93 0 0 1 1.254-.51c.434-.027.556.102.563.532v.715c-.202.017-.33.037-.486.04a2.737 2.737 0 0 0-1.308.39.771.771 0 0 0-.43.762v3.852c0 .182-.09.331-.331.331h-.735a.271.271 0 0 1-.308-.301V6.303a.26.26 0 0 1 .282-.274l.98.016z" fill="#ECECEC"/></svg>