<svg width="109" height="30" viewBox="0 0 109 30" fill="none" xmlns="http://www.w3.org/2000/svg">
<path d="M0.157227 17.9169V12.3931C0.339258 12.3765 0.508052 12.35 0.680154 12.35C1.45462 12.35 2.22687 12.35 2.99692 12.35C3.84419 12.35 3.69195 12.3136 3.85081 11.6881C4.6725 8.36023 6.68464 5.44858 9.50703 3.50331C11.3421 2.20296 13.4707 1.37743 15.7027 1.10049C19.1401 0.645932 22.6247 1.47123 25.4931 3.41928C28.3614 5.36733 30.4133 8.30211 31.2582 11.6649C31.2582 11.698 31.2582 11.7311 31.278 11.7642C31.4203 12.3335 31.4203 12.3335 31.9962 12.3335H34.3659C34.5281 12.3335 34.6969 12.3335 34.8359 12.3534C34.9584 12.7472 34.9915 17.1656 34.8789 17.854C34.7201 17.854 34.548 17.897 34.3759 17.9004H32.0061C31.4203 17.9004 31.417 17.9004 31.2813 18.4696C30.6252 21.1624 29.1911 23.6026 27.1577 25.4859C25.1243 27.3692 22.5815 28.6124 19.8464 29.0606C16.3607 29.6356 12.786 28.8824 9.82869 26.9497C6.87138 25.0169 4.74653 22.0453 3.87398 18.6219C3.69195 17.907 3.69526 17.9037 2.97044 17.9037H0.157227V17.9169ZM8.88151 17.9169C8.91791 18.8866 9.97701 20.6573 11.1619 21.7958C12.8385 23.4475 15.0967 24.3746 17.4502 24.3774C19.832 24.4242 22.1372 23.5354 23.871 21.9017C24.8043 21.0545 26.1679 19.1183 26.2572 17.993C26.15 17.9563 26.039 17.9318 25.9263 17.9202L8.88151 17.9169ZM8.79545 12.2706C9.48055 12.3931 25.88 12.3633 26.2407 12.2706C26.2407 11.5226 25.2677 9.80822 24.1887 8.70941C22.5115 6.97268 20.22 5.96308 17.8065 5.89748C15.393 5.83188 13.0501 6.71552 11.281 8.35859C10.1149 9.41598 9.25616 10.7687 8.79545 12.2739V12.2706Z" fill="#ECECEC"/>
<path d="M76.4318 6.04521L76.5741 6.49532C76.6709 6.45781 76.764 6.41128 76.8521 6.35632C78.0568 5.41638 79.9102 5.92938 80.7211 7.11424C81.0024 7.53114 81.1982 7.99974 81.2971 8.49289C81.396 8.98603 81.3959 9.4939 81.297 9.98703C81.2156 10.4376 81.0602 10.8715 80.8369 11.2712C80.132 12.552 78.3315 12.9856 77.1268 12.4527L76.6006 12.221V12.7837C76.6006 13.4092 76.6006 14.0314 76.6006 14.657C76.6006 15.021 76.5642 15.0607 76.2067 15.0607C75.0119 15.0607 75.1873 15.1832 75.184 14.0976C75.184 11.665 75.184 9.23573 75.184 6.81636C75.184 6.66743 75.184 6.51849 75.184 6.37287C75.184 6.14119 75.3032 6.0419 75.515 6.0419C75.8029 6.04521 76.1008 6.04521 76.4318 6.04521ZM76.6006 9.31516V10.3974C76.6006 11.1189 76.6965 11.2381 77.3982 11.3903C77.5068 11.4193 77.6175 11.4403 77.7292 11.4532C78.7552 11.5161 79.6091 11.0594 79.8242 9.95724C79.8561 9.81362 79.875 9.66739 79.8804 9.52036C79.9235 7.49816 78.5136 6.92558 77.0441 7.39886C76.6337 7.53125 76.5973 7.61399 76.5939 8.0608C76.5906 8.5076 76.5873 8.87829 76.5873 9.30524L76.6006 9.31516Z" fill="#ECECEC"/>
<path d="M90.8718 26.4856C90.527 26.6807 90.166 26.8457 89.7929 26.9787C89.1317 27.1344 88.4371 27.0562 87.8271 26.7575C87.217 26.4589 86.7293 25.9581 86.4468 25.3405C86.2038 24.8074 86.0781 24.2284 86.0781 23.6426C86.0781 23.0568 86.2038 22.4778 86.4468 21.9448C87.1087 20.4024 89.1872 19.8133 90.4482 20.6209C90.5544 20.6783 90.665 20.727 90.7791 20.7665C90.8105 20.5846 90.8326 20.4012 90.8453 20.2171C90.8453 19.5949 90.8453 18.9694 90.8453 18.3438C90.8453 17.9268 90.8884 17.8838 91.2921 17.8838C92.3214 17.8838 92.2221 17.7878 92.2255 18.8006C92.2255 21.2012 92.2255 23.6007 92.2255 25.9991C92.2255 26.1315 92.2255 26.2639 92.2255 26.3962C92.2255 26.8629 92.1924 26.8828 91.7058 26.8894C91.6231 26.8894 91.5404 26.8894 91.4609 26.8894C91.1564 26.949 90.9281 26.853 90.8718 26.4856ZM90.8718 23.7055C90.8718 23.262 90.8718 22.8185 90.8718 22.3816C90.885 22.2499 90.8519 22.1178 90.7782 22.0078C90.7045 21.8979 90.5949 21.8171 90.468 21.7793C90.0882 21.6177 89.6748 21.5507 89.2633 21.584C88.8648 21.6015 88.4841 21.7538 88.1834 22.016C87.8828 22.2781 87.6801 22.6346 87.6085 23.027C87.572 23.2534 87.5587 23.483 87.5688 23.7121C87.5688 25.4695 89.121 26.0884 90.4085 25.6019C90.5542 25.5687 90.6825 25.4826 90.7687 25.3604C90.8548 25.2382 90.8928 25.0885 90.8751 24.94C90.842 24.5263 90.8586 24.1159 90.8586 23.7055H90.8718Z" fill="#ECECEC"/>
<path d="M50.3577 20.2769C52.1515 20.3166 53.7402 21.6007 53.7567 23.6593C53.7722 24.1107 53.6952 24.5604 53.5304 24.9809C53.3656 25.4014 53.1164 25.7836 52.7984 26.1042C52.4803 26.4248 52.0999 26.6769 51.6808 26.8449C51.2616 27.013 50.8124 27.0935 50.361 27.0815C49.9127 27.0865 49.4681 27.0014 49.0533 26.8313C48.6386 26.6613 48.2622 26.4097 47.9464 26.0915C47.6307 25.7733 47.382 25.3949 47.2152 24.9788C47.0484 24.5628 46.9668 24.1175 46.9752 23.6693C46.9804 22.7729 47.3381 21.9145 47.971 21.2797C48.604 20.6449 49.4613 20.2847 50.3577 20.2769V20.2769ZM48.4447 23.6626C48.4327 23.9207 48.473 24.1784 48.5632 24.4205C48.6533 24.6626 48.7915 24.8839 48.9694 25.0712C49.1473 25.2585 49.3612 25.4079 49.5983 25.5104C49.8353 25.613 50.0907 25.6665 50.349 25.6678C50.6073 25.6692 50.8632 25.6183 51.1013 25.5182C51.3395 25.4181 51.5549 25.271 51.7347 25.0855C51.9145 24.9001 52.055 24.6802 52.1476 24.4391C52.2403 24.198 52.2833 23.9406 52.274 23.6825C52.286 23.4245 52.2457 23.1667 52.1555 22.9246C52.0653 22.6826 51.9272 22.4613 51.7493 22.274C51.5714 22.0867 51.3575 21.9373 51.1204 21.8347C50.8833 21.7322 50.628 21.6786 50.3697 21.6773C50.1114 21.676 49.8555 21.7269 49.6174 21.8269C49.3792 21.927 49.1638 22.0742 48.984 22.2596C48.8042 22.4451 48.6637 22.6649 48.571 22.9061C48.4784 23.1472 48.4354 23.4045 48.4447 23.6626V23.6626Z" fill="#ECECEC"/>
<path d="M77.1294 23.6558C77.1294 24.3244 76.9311 24.978 76.5595 25.5338C76.1879 26.0897 75.6597 26.5228 75.0419 26.7784C74.424 27.0339 73.7443 27.1004 73.0886 26.9695C72.4329 26.8386 71.8308 26.5161 71.3585 26.0429C70.8862 25.5696 70.5649 24.9669 70.4352 24.3109C70.3056 23.655 70.3734 22.9754 70.6302 22.358C70.887 21.7407 71.3211 21.2134 71.8777 20.8429C72.4343 20.4724 73.0883 20.2753 73.7569 20.2766C74.2018 20.2713 74.6433 20.3551 75.0553 20.5231C75.4674 20.6911 75.8416 20.9399 76.1559 21.2548C76.4702 21.5698 76.7183 21.9445 76.8855 22.3568C77.0527 22.7692 77.1356 23.2109 77.1294 23.6558V23.6558ZM75.6831 23.6558C75.6862 23.398 75.6384 23.1422 75.5426 22.9029C75.4468 22.6636 75.3048 22.4456 75.1247 22.2612C74.9446 22.0768 74.7299 21.9296 74.493 21.8282C74.256 21.7268 74.0014 21.673 73.7436 21.67C73.3436 21.6568 72.9487 21.7636 72.6098 21.9767C72.271 22.1898 72.0036 22.4994 71.8422 22.8657C71.6808 23.232 71.6326 23.6383 71.704 24.0322C71.7754 24.426 71.963 24.7895 72.2427 25.0759C72.5224 25.3623 72.8814 25.5584 73.2734 25.6391C73.6655 25.7197 74.0728 25.6812 74.4428 25.5285C74.8128 25.3757 75.1287 25.1158 75.3497 24.782C75.5707 24.4483 75.6868 24.0561 75.6831 23.6558Z" fill="#ECECEC"/>
<path d="M100.613 23.6925C100.624 24.1397 100.543 24.5844 100.377 24.9994C100.21 25.4145 99.9604 25.7912 99.6432 26.1066C99.326 26.4219 98.9478 26.6693 98.5317 26.8335C98.1157 26.9977 97.6705 27.0754 97.2235 27.0618C96.7726 27.0679 96.3251 26.9824 95.9082 26.8105C95.4913 26.6386 95.1136 26.3839 94.798 26.0618C94.4824 25.7397 94.2354 25.3569 94.0721 24.9365C93.9087 24.5162 93.8323 24.0671 93.8476 23.6164C93.8519 23.171 93.9444 22.7308 94.1198 22.3213C94.2951 21.9118 94.5499 21.5411 94.8693 21.2306C95.1887 20.9201 95.5665 20.676 95.9808 20.5123C96.3951 20.3486 96.8377 20.2686 97.283 20.277C97.7274 20.2777 98.1671 20.3672 98.5763 20.5402C98.9856 20.7132 99.3561 20.9662 99.6663 21.2844C99.9764 21.6025 100.22 21.9794 100.382 22.393C100.545 22.8065 100.623 23.2483 100.613 23.6925V23.6925ZM95.3403 23.676C95.329 23.9347 95.3706 24.1931 95.4627 24.4352C95.5547 24.6772 95.6952 24.898 95.8755 25.0839C96.0559 25.2698 96.2722 25.4169 96.5114 25.5163C96.7506 25.6157 97.0075 25.6652 97.2665 25.6618C97.7827 25.6488 98.2731 25.4332 98.6316 25.0616C98.9902 24.69 99.1882 24.1923 99.1828 23.676C99.1935 23.1526 98.9971 22.6462 98.6364 22.2669C98.2757 21.8876 97.7798 21.6661 97.2566 21.6505C96.9964 21.6533 96.7395 21.7085 96.5011 21.8127C96.2627 21.9169 96.0478 22.0679 95.869 22.2569C95.6902 22.4459 95.5512 22.6689 95.4604 22.9127C95.3696 23.1565 95.3287 23.4161 95.3403 23.676V23.676Z" fill="#ECECEC"/>
<path d="M89.243 9.29479C89.2487 9.73828 89.1657 10.1784 88.9989 10.5894C88.832 11.0003 88.5847 11.3738 88.2713 11.6877C87.958 12.0016 87.5851 12.2497 87.1745 12.4174C86.7639 12.5851 86.3239 12.6689 85.8803 12.664C85.4303 12.6685 84.984 12.5828 84.5677 12.4119C84.1513 12.2411 83.7734 11.9886 83.4563 11.6693C83.1392 11.35 82.8892 10.9704 82.7212 10.5529C82.5532 10.1354 82.4705 9.68848 82.478 9.23852C82.4892 8.34753 82.8481 7.49617 83.4781 6.8661C84.1082 6.23603 84.9596 5.87712 85.8506 5.86597C86.3007 5.86052 86.7472 5.94576 87.1637 6.11661C87.5801 6.28745 87.9579 6.54041 88.2745 6.86039C88.5911 7.18037 88.84 7.56083 89.0064 7.97907C89.1728 8.39731 89.2532 8.84478 89.243 9.29479V9.29479ZM87.8132 9.25507C87.8158 8.99955 87.7679 8.74602 87.6722 8.50906C87.5766 8.27211 87.435 8.05639 87.2557 7.87432C87.0764 7.69225 86.8629 7.5474 86.6274 7.44811C86.392 7.34882 86.1392 7.29704 85.8837 7.29575C85.6243 7.29242 85.3669 7.34188 85.1272 7.44114C84.8875 7.5404 84.6705 7.68737 84.4894 7.87312C84.3083 8.05887 84.1669 8.27951 84.0737 8.52164C83.9805 8.76376 83.9376 9.02231 83.9475 9.28155C83.9431 9.53747 83.9895 9.79171 84.084 10.0296C84.1785 10.2675 84.3193 10.4842 84.4981 10.6674C84.6769 10.8505 84.8903 10.9963 85.1258 11.0965C85.3614 11.1966 85.6145 11.2491 85.8704 11.2508C86.3913 11.2395 86.8869 11.024 87.2504 10.6506C87.6138 10.2773 87.8159 9.77608 87.8132 9.25507V9.25507Z" fill="#ECECEC"/>
<path d="M58.0705 12.4889L57.8553 12.0024L57.382 12.2572C56.7596 12.5988 56.0385 12.7157 55.34 12.5882C55.0215 12.5204 54.7261 12.371 54.4827 12.1548C54.2393 11.9385 54.0563 11.6627 53.9515 11.3544C53.8468 11.0461 53.8239 10.7159 53.8851 10.3961C53.9463 10.0763 54.0895 9.77787 54.3007 9.53007C54.5999 9.15373 55.0008 8.87116 55.4558 8.71589C55.9953 8.53717 56.5612 8.42133 57.1107 8.28894C57.3291 8.23599 57.5575 8.21282 57.7726 8.17642C57.8166 7.95176 57.7724 7.71878 57.6491 7.52587C57.5259 7.33295 57.333 7.19494 57.1107 7.14049C56.5363 6.98393 55.928 7.00586 55.3665 7.20337C55.0752 7.28942 54.7873 7.39203 54.4629 7.49794C54.4462 7.10899 54.5163 6.72119 54.6681 6.36271C54.701 6.30721 54.7446 6.25876 54.7963 6.22014C54.8479 6.18152 54.9067 6.15349 54.9693 6.13766C55.8068 5.83051 56.7134 5.76289 57.5872 5.94239C58.4213 6.14759 59.2123 6.64735 59.2421 7.87192C59.2619 9.2686 59.2619 10.6653 59.2421 12.0653C59.2421 12.4227 59.1891 12.4624 58.8416 12.4757C58.5934 12.4988 58.3319 12.4889 58.0705 12.4889ZM57.7958 9.21565C57.0081 9.27853 56.2832 9.40431 55.6676 9.89745C55.6071 9.9514 55.5547 10.0138 55.5121 10.0828C55.4158 10.2115 55.3571 10.3644 55.3427 10.5245C55.3282 10.6846 55.3586 10.8456 55.4303 10.9895C55.5021 11.1333 55.6124 11.2544 55.749 11.3392C55.8856 11.4239 56.0431 11.4691 56.2038 11.4695C56.7134 11.4839 57.2151 11.3406 57.6402 11.0591C57.6893 11.0333 57.7326 10.9977 57.7674 10.9544C57.8021 10.9111 57.8275 10.8612 57.8421 10.8076C57.9124 10.2779 57.8968 9.74034 57.7958 9.21565V9.21565Z" fill="#ECECEC"/>
<path d="M44.3739 4.96596H43.3148C42.9044 4.96596 42.494 4.96596 42.0836 4.96596C41.7526 4.96596 41.7228 4.92294 41.7129 4.58866C41.7129 4.37684 41.7129 4.16171 41.7129 3.94659C41.7129 3.59245 41.7493 3.55935 42.1167 3.55273C42.7256 3.55273 43.3346 3.55273 43.9436 3.55273H48.041C48.2164 3.55273 48.3951 3.56928 48.5838 3.57921C48.6649 4.02253 48.6783 4.47559 48.6235 4.92293C48.4776 4.94467 48.3306 4.95903 48.1833 4.96596C47.5909 4.96596 46.9984 4.96596 46.406 4.96596C46.0552 4.96596 46.0121 5.01561 45.9956 5.36643C45.9956 5.6279 45.9956 5.89266 45.9956 6.15413C45.9956 8.04725 45.9956 9.93929 45.9956 11.8302C45.9956 12.0222 45.979 12.2174 45.9658 12.4458H44.4202C44.4202 12.2439 44.3838 12.0553 44.3838 11.8633C44.3838 9.79145 44.3838 7.7185 44.3838 5.64445L44.3739 4.96596Z" fill="#ECECEC"/>
<path d="M106.633 26.8962C106.633 26.6347 106.607 26.4593 106.603 26.2806V23.6328C106.603 23.4343 106.603 23.2357 106.603 23.0404C106.564 21.925 105.832 21.3856 104.737 21.657C104.594 21.6926 104.454 21.7368 104.316 21.7893C104.106 21.8486 103.923 21.9812 103.802 22.1633C103.68 22.3454 103.628 22.565 103.654 22.7822C103.701 23.9472 103.654 25.1156 103.654 26.2806V26.82C103.227 26.9094 102.788 26.9295 102.354 26.8796C102.221 26.5255 102.185 21.1671 102.297 20.5284C102.678 20.4017 103.085 20.3823 103.476 20.4721L103.621 20.8924C103.696 20.8797 103.769 20.8551 103.836 20.8196C104.193 20.5511 104.61 20.3739 105.051 20.3033C106.375 20.1113 107.944 20.6806 108.003 22.5837C108.04 23.8811 108.02 25.1817 108.003 26.4791C108.003 26.8597 107.964 26.8862 107.566 26.8962C107.288 26.8962 106.997 26.8962 106.633 26.8962Z" fill="#ECECEC"/>
<path d="M80.1714 26.896C79.7147 26.896 79.3572 26.896 78.9998 26.896C78.8409 26.896 78.7648 26.7967 78.7549 26.6444C78.7549 26.5617 78.7549 26.479 78.7549 26.3995C78.7549 24.5726 78.7549 22.7457 78.7549 20.9187C78.7549 20.7896 78.7747 20.6606 78.788 20.5183C79.1885 20.366 79.5757 20.4653 79.9762 20.4454L80.1317 20.8757C80.188 20.8757 80.2442 20.8956 80.2806 20.8757C80.413 20.8029 80.5322 20.7168 80.6613 20.644C81.0732 20.4041 81.5401 20.2747 82.0167 20.2683C82.4934 20.2619 82.9636 20.3788 83.3818 20.6076C83.6921 20.7653 83.9563 21.0006 84.1488 21.2905C84.3413 21.5805 84.4556 21.9153 84.4806 22.2624C84.5192 22.6716 84.5347 23.0827 84.5269 23.4936C84.5269 24.449 84.5269 25.4033 84.5269 26.3565C84.5269 26.8894 84.5071 26.9026 83.961 26.9059H83.1931C83.1733 26.6676 83.1468 26.4922 83.1468 26.3168C83.1468 25.3967 83.1468 24.4733 83.1468 23.5532C83.1452 23.2903 83.1219 23.0279 83.0773 22.7688C83.0584 22.575 82.9975 22.3876 82.899 22.2197C82.8005 22.0517 82.6666 21.9071 82.5067 21.796C82.3468 21.6849 82.1647 21.6098 81.9729 21.5761C81.7811 21.5423 81.5842 21.5507 81.396 21.6005C81.2353 21.6333 81.0779 21.6809 80.926 21.7428C80.2211 22.0208 80.1615 22.1102 80.1615 22.8681V26.896H80.1714Z" fill="#ECECEC"/>
<path d="M62.6671 12.4559C62.4321 12.4725 62.2865 12.4857 62.1442 12.489H61.3102C61.2826 12.3369 61.2638 12.1833 61.2539 12.029C61.2539 10.1866 61.2539 8.34422 61.2539 6.50184C61.2539 6.05172 61.2771 6.03517 61.7272 6.03186H62.4785L62.6406 6.46874C62.687 6.46874 62.7433 6.46874 62.7797 6.46874C62.8922 6.40586 62.9981 6.32312 63.1106 6.25693C63.5292 6.00584 64.0065 5.86936 64.4945 5.86123C64.9825 5.85309 65.4641 5.97358 65.8907 6.21059C66.2193 6.3723 66.4968 6.62173 66.6925 6.9313C66.8881 7.24087 66.9944 7.59851 66.9995 7.9647C67.0591 9.36138 67.0326 10.7581 67.0392 12.1581C67.0392 12.3732 66.9565 12.489 66.7082 12.489H65.9702C65.929 12.4946 65.8871 12.4909 65.8476 12.4781C65.808 12.4654 65.7718 12.4439 65.7417 12.4154C65.7115 12.3868 65.6881 12.3518 65.6733 12.313C65.6584 12.2742 65.6524 12.2326 65.6558 12.1912C65.6558 12.0257 65.6558 11.8602 65.6558 11.698C65.6359 10.629 65.6359 9.55997 65.5995 8.49095C65.5697 7.551 64.8019 7.01814 63.8421 7.22003C63.7139 7.24339 63.5878 7.27659 63.4648 7.31933C62.7499 7.5841 62.6605 7.71317 62.6605 8.46447V12.4592L62.6671 12.4559Z" fill="#ECECEC"/>
<path d="M65.6251 17.8901C65.6251 20.432 65.6251 22.8745 65.6251 25.3534C65.87 25.37 66.0454 25.3898 66.2208 25.3898H68.9348C69.4378 25.3898 69.4544 25.4097 69.4577 25.926C69.4577 26.1875 69.4577 26.4522 69.4345 26.7137C69.4345 26.7567 69.3915 26.7998 69.3551 26.8693H64.0596C64.0596 26.6939 64.0166 26.5383 64.0166 26.3827C64.0166 23.7196 64.0166 21.0553 64.0166 18.3899C64.0166 17.91 64.0365 17.8935 64.5197 17.8901C64.8639 17.8868 65.2048 17.8901 65.6251 17.8901Z" fill="#ECECEC"/>
<path d="M73.0532 7.60063C72.4641 7.41198 71.971 7.24649 71.4712 7.09756C71.1346 7.00353 70.7754 7.03288 70.4585 7.1803C70.3474 7.21435 70.2496 7.28194 70.1785 7.37379C70.1074 7.46564 70.0664 7.57726 70.0613 7.6933C70.0497 7.80878 70.0756 7.92491 70.1352 8.02448C70.1948 8.12405 70.285 8.20174 70.3923 8.24601C70.614 8.34861 70.849 8.42142 71.0807 8.50417C71.6069 8.68951 72.1464 8.83513 72.6561 9.0635C73.0588 9.24303 73.3812 9.56487 73.5613 9.96733C73.7415 10.3698 73.7668 10.8246 73.6324 11.2446C73.4107 12.0223 72.8282 12.3798 72.1067 12.5684C71.0371 12.8004 69.9198 12.6394 68.9592 12.115C68.8517 12.0739 68.7609 11.9984 68.701 11.9001C68.6411 11.8019 68.6155 11.6866 68.6282 11.5722C68.6282 11.281 68.6282 10.9897 68.6282 10.6223L69.2173 10.9268C69.8498 11.2829 70.5634 11.4699 71.2892 11.4696C71.4863 11.4645 71.6806 11.4218 71.8617 11.3439C71.951 11.3101 72.03 11.254 72.0913 11.1809C72.1525 11.1078 72.194 11.0202 72.2116 10.9265C72.2292 10.8327 72.2224 10.736 72.1919 10.6457C72.1613 10.5553 72.108 10.4744 72.0372 10.4105C71.8948 10.2746 71.7273 10.1678 71.544 10.0961C71.1932 9.95711 70.8291 9.85782 70.475 9.72543C70.0886 9.58764 69.7097 9.42966 69.3398 9.25215C68.1814 8.66634 68.1946 7.05454 69.2306 6.34958C69.7287 6.02139 70.3155 5.85389 70.9119 5.86967C71.539 5.87358 72.1578 6.01361 72.7256 6.28007C72.833 6.31712 72.9245 6.38991 72.9847 6.48629C73.045 6.58267 73.0703 6.6968 73.0565 6.80962C73.0665 7.05453 73.0632 7.30938 73.0532 7.60063Z" fill="#ECECEC"/>
<path d="M44.113 21.5676V26.8366C43.6515 26.914 43.1816 26.9284 42.7163 26.8796C42.6567 25.1089 42.7163 23.3746 42.6732 21.5841C42.4482 21.5543 42.2463 21.5113 42.0411 21.5014C41.8359 21.4914 41.677 21.3789 41.687 21.134C41.6969 20.8891 41.7068 20.7137 41.7168 20.4721L42.2827 20.429C42.6335 20.4026 42.6534 20.3695 42.6997 20.022C42.7327 19.6802 42.7924 19.3416 42.8784 19.0092C42.9719 18.6482 43.1747 18.3249 43.4592 18.0838C43.7436 17.8426 44.0957 17.6953 44.4671 17.6622C45.0375 17.5967 45.6149 17.628 46.1749 17.7548C46.2196 17.7573 46.2633 17.7688 46.3034 17.7886C46.3436 17.8085 46.3793 17.8363 46.4083 17.8703C46.4374 17.9043 46.4593 17.9439 46.4726 17.9866C46.486 18.0294 46.4905 18.0744 46.486 18.1189C46.486 18.377 46.486 18.6352 46.486 18.9099C46.1021 18.8569 45.781 18.7874 45.4567 18.7709C45.2813 18.7489 45.1032 18.7665 44.9355 18.8224C44.7678 18.8783 44.6148 18.9711 44.4878 19.0941C44.3608 19.217 44.2629 19.3668 44.2015 19.5326C44.14 19.6983 44.1166 19.8757 44.1328 20.0517C44.1328 20.3264 44.1891 20.4125 44.4638 20.4224C44.9238 20.439 45.3839 20.4224 45.8439 20.439C45.9895 20.439 46.2477 20.5184 46.2576 20.5879C46.2885 20.8584 46.2762 21.1321 46.2212 21.3988C46.2212 21.455 45.9928 21.4981 45.8671 21.5014C45.5063 21.5179 45.1456 21.5014 44.7848 21.5014C44.5829 21.5179 44.391 21.5444 44.113 21.5676Z" fill="#ECECEC"/>
<path d="M99.7974 6.04519V7.09105C99.6253 7.10759 99.4665 7.13738 99.3142 7.14069C98.8376 7.14069 98.361 7.14069 97.8844 7.14069C97.5104 7.14069 97.4476 7.20688 97.4442 7.57425C97.4442 8.51089 97.4442 9.44752 97.4442 10.3842C97.4284 10.5206 97.4428 10.6589 97.4863 10.7892C97.5299 10.9195 97.6016 11.0386 97.6964 11.1381C97.7911 11.2376 97.9066 11.315 98.0346 11.3649C98.1626 11.4148 98.3001 11.4359 98.4371 11.4267C98.7462 11.4185 99.0535 11.3775 99.3539 11.3043C99.5128 11.2778 99.6617 11.2182 99.8868 11.1553C99.8868 11.5492 99.9033 11.8901 99.8868 12.2243C99.8868 12.3137 99.7345 12.4362 99.6319 12.4659C98.8626 12.721 98.0305 12.714 97.2655 12.4461C96.3752 12.1151 96.0641 11.3671 96.0409 10.4901C96.0178 9.61301 96.0409 8.68299 96.0409 7.77945V7.20026L95.0183 7.09436C94.9236 6.74992 94.9236 6.38632 95.0183 6.04188L96.0112 5.98562C96.0277 5.81352 96.0509 5.65464 96.0575 5.5024C96.0575 5.24094 96.0575 4.97617 96.0575 4.71471C96.0503 4.67356 96.0529 4.6313 96.0652 4.59136C96.0775 4.55143 96.099 4.51496 96.128 4.48495C96.1571 4.45493 96.1928 4.43221 96.2323 4.41865C96.2718 4.40509 96.314 4.40105 96.3554 4.4069H97.4244C97.4409 4.61872 97.4641 4.77759 97.4674 4.93645C97.4674 5.14827 97.4674 5.36339 97.4674 5.57521C97.4674 5.96244 97.5171 6.00217 97.8944 6.00879C98.3544 6.00879 98.8144 6.00879 99.2745 6.00879C99.4102 6.0452 99.5724 6.04519 99.7974 6.04519Z" fill="#ECECEC"/>
<path d="M56.7255 26.8761H55.4446C55.3189 26.5253 55.2792 21.1537 55.395 20.4984C55.7894 20.4061 56.1988 20.3982 56.5964 20.4752L56.7619 21.1073L57.1657 20.7532C57.5309 20.4314 58.0028 20.2568 58.4895 20.2634C58.8668 20.2634 58.9496 20.3527 58.9761 20.7234C58.9761 20.7731 58.9761 20.8227 58.9761 20.8723C58.9761 21.5144 58.9761 21.5508 58.3572 21.5806C57.9708 21.6292 57.5951 21.741 57.2451 21.9116C57.0832 21.9723 56.9468 22.0864 56.8584 22.235C56.77 22.3835 56.7348 22.5578 56.7586 22.7291C56.7851 23.9106 56.7586 25.0955 56.7586 26.277C56.752 26.469 56.7387 26.6444 56.7255 26.8761Z" fill="#ECECEC"/>
<path d="M92.1461 6.04498L92.262 6.73008C92.4274 6.58445 92.5466 6.49178 92.6558 6.39911C92.8345 6.22825 93.0452 6.09438 93.2758 6.00521C93.5064 5.91604 93.7524 5.87332 93.9995 5.87949C94.3702 5.87949 94.4629 5.9854 94.4695 6.34616C94.4695 6.59107 94.4695 6.83268 94.4695 7.12062C94.2842 7.14047 94.1385 7.14709 94.0028 7.17026C93.712 7.20669 93.4243 7.26533 93.1423 7.34567C92.3877 7.61044 92.2918 7.76931 92.2918 8.56032V11.913C92.2918 12.0884 92.2752 12.2638 92.2653 12.4757H90.9216C90.905 12.3036 90.8818 12.1447 90.8818 11.9891C90.8818 10.1821 90.8818 8.37608 90.8818 6.57121C90.8818 6.06483 90.8818 6.06153 91.418 6.05822L92.1461 6.04498Z" fill="#ECECEC"/>
<path d="M50.7424 6.0453C50.7855 6.28691 50.8185 6.45901 50.8649 6.70723C51.0271 6.56823 51.1495 6.47225 51.262 6.37627C51.6049 6.06043 52.0504 5.87938 52.5164 5.86658C52.95 5.8401 53.0724 5.96918 53.0791 6.39944C53.0791 6.6245 53.0791 6.84955 53.0791 7.11433C52.8772 7.13088 52.7481 7.15073 52.5925 7.15404C52.1308 7.17178 51.681 7.30613 51.2852 7.54458C51.1449 7.61299 51.0286 7.72239 50.9518 7.85831C50.8749 7.99424 50.8412 8.15027 50.855 8.3058C50.855 9.40792 50.855 10.5133 50.855 11.6155C50.855 11.7975 50.855 11.9762 50.855 12.1583C50.855 12.3403 50.7656 12.4892 50.524 12.4892H49.7892C49.748 12.4951 49.706 12.4914 49.6665 12.4785C49.6269 12.4655 49.5908 12.4436 49.5611 12.4145C49.5313 12.3854 49.5087 12.3498 49.4949 12.3106C49.481 12.2713 49.4765 12.2294 49.4814 12.188C49.4814 12.0887 49.4814 11.9895 49.4814 11.8935V6.59802C49.4814 6.49873 49.4814 6.39944 49.4814 6.30345C49.4789 6.26615 49.4845 6.22873 49.4978 6.1938C49.5111 6.15886 49.5319 6.12723 49.5586 6.10111C49.5854 6.07498 49.6175 6.05499 49.6527 6.04249C49.688 6.03 49.7255 6.02531 49.7628 6.02876L50.7424 6.0453Z" fill="#ECECEC"/>
</svg>
