<svg width="110" height="20" viewBox="0 0 110 20" fill="none" xmlns="http://www.w3.org/2000/svg">
<path fill-rule="evenodd" clip-rule="evenodd" d="M101.168 5.88013C102.233 5.88013 102.96 6.19779 103.346 6.8331C103.682 6.45306 104.096 6.14935 104.559 5.94237C105.054 5.74343 105.583 5.64683 106.115 5.65842C106.928 5.62597 107.725 5.89155 108.356 6.40524C108.638 6.63501 108.863 6.92625 109.015 7.25664C109.166 7.58702 109.24 7.94776 109.231 8.31118C109.241 8.61031 109.182 8.90766 109.059 9.18064C108.936 9.45362 108.753 9.69503 108.523 9.88651C107.998 10.2702 107.366 10.4809 106.716 10.4893C106.066 10.4976 105.429 10.3033 104.894 9.93318C104.676 9.76686 104.499 9.55259 104.377 9.30694C104.255 9.06584 104.192 8.79916 104.194 8.52901C104.188 8.30501 104.23 8.08235 104.318 7.87625C104.406 7.67015 104.537 7.48548 104.703 7.33487C105.056 7.01868 105.518 6.8526 105.991 6.872C106.026 6.81478 106.045 6.74877 106.045 6.68141C106.045 6.51026 105.917 6.42469 105.656 6.42469C105.389 6.42058 105.123 6.47501 104.878 6.58416C104.634 6.69166 104.416 6.84937 104.237 7.04704C104.042 7.24495 103.89 7.48056 103.789 7.7394C103.684 7.99586 103.634 8.27142 103.642 8.54846C103.632 9.02107 103.78 9.48338 104.062 9.86317C104.373 10.2673 104.789 10.5792 105.264 10.7656C105.4 10.8159 105.519 10.9052 105.606 11.0223C105.675 11.1705 105.704 11.3339 105.691 11.4968V14.7797C105.691 15.1687 105.477 15.3748 105.057 15.3748H101.261C101.181 15.3849 101.1 15.3763 101.025 15.3496C100.949 15.323 100.88 15.279 100.824 15.2213C100.768 15.1635 100.727 15.0936 100.703 15.0169C100.679 14.9403 100.673 14.8591 100.685 14.7797V8.17893C100.704 7.8356 100.64 7.49284 100.499 7.17929C100.332 6.90688 100.094 6.68504 99.8102 6.53749C99.7484 6.50849 99.6938 6.46595 99.6507 6.41302C99.6303 6.37486 99.6208 6.33176 99.6235 6.28855V6.07073C99.6235 5.94626 99.6974 5.88402 99.8452 5.88402L101.168 5.88013Z" fill="#ECECEC"/>
<path fill-rule="evenodd" clip-rule="evenodd" d="M93.9324 11.0461C93.9324 11.3339 94.1736 11.5984 94.6598 11.824C95.1636 12.0731 95.7199 12.1971 96.2818 12.1858C96.8232 12.2034 97.3622 12.1065 97.8636 11.9014C98.365 11.6963 98.8174 11.3876 99.1912 10.9955C99.2378 10.9418 99.2914 10.8947 99.3507 10.8555C99.3937 10.8328 99.4424 10.8233 99.4907 10.8283H99.7125C99.7466 10.8173 99.7834 10.8173 99.8175 10.8283C99.8483 10.8442 99.8739 10.8684 99.8914 10.8983C99.9302 11.0067 99.9461 11.1219 99.9381 11.2367C99.9417 11.9943 99.7241 12.7365 99.3118 13.3721C98.8725 14.0453 98.2615 14.5891 97.542 14.9475C96.7496 15.3605 95.8684 15.5741 94.9748 15.5698C94.0311 15.5863 93.0972 15.3755 92.2521 14.9552C91.4546 14.5607 90.7816 13.9537 90.3072 13.201C89.8244 12.4243 89.5759 11.5248 89.5915 10.6105C89.5766 9.71347 89.808 8.82957 90.2605 8.05494C90.7189 7.30123 91.3792 6.69086 92.1665 6.29292C93.0677 5.8478 94.0633 5.62759 95.0682 5.65112C95.8353 5.63977 96.5977 5.77168 97.3164 6.04009C97.9309 6.26843 98.4743 6.65484 98.8917 7.16032C99.2736 7.63471 99.4773 8.22786 99.4674 8.83677C99.4792 9.21451 99.4076 9.5902 99.2577 9.93711C99.1078 10.284 98.8832 10.5936 98.6 10.8438C97.9877 11.3772 97.1942 11.6556 96.3829 11.6218C95.9761 11.6365 95.5709 11.5639 95.1945 11.4089C94.8181 11.2539 94.4793 11.0201 94.2008 10.7233C94.1632 10.7231 94.1261 10.7311 94.0919 10.7466C94.0583 10.7614 94.0279 10.7825 94.0024 10.8088C93.9747 10.837 93.9523 10.87 93.9363 10.9061C93.9239 10.9438 93.9173 10.9831 93.9168 11.0228L93.9324 11.0461ZM94.4925 9.76252C94.5256 9.80894 94.5697 9.84637 94.6209 9.87143C94.673 9.89669 94.7302 9.90998 94.7881 9.91032C95.0137 9.91032 95.1265 9.78196 95.1265 9.52136V6.88804C95.1265 6.63521 95.0137 6.49907 94.7881 6.49907C94.7302 6.49941 94.673 6.5127 94.6209 6.53797C94.5695 6.56452 94.5254 6.60325 94.4925 6.65077V9.76252Z" fill="#ECECEC"/>
<path fill-rule="evenodd" clip-rule="evenodd" d="M85.648 4.28967C85.6449 4.12422 85.6781 3.96012 85.7453 3.80891C85.8125 3.6577 85.9121 3.52307 86.0369 3.41449C86.2968 3.16827 86.6437 3.03535 87.0016 3.04497C87.2295 3.04127 87.4545 3.09618 87.655 3.20444C87.6853 3.17459 87.7091 3.13884 87.7251 3.09942C87.741 3.06124 87.7489 3.02021 87.7484 2.97884C87.7484 2.86604 87.6745 2.77658 87.5228 2.71045C87.3343 2.63303 87.1313 2.5972 86.9277 2.60543C86.4517 2.59443 85.9901 2.76877 85.6402 3.09164C85.4727 3.24442 85.34 3.43147 85.2512 3.64009C85.1589 3.84434 85.1099 4.06552 85.1073 4.28967C85.1069 4.65484 85.2319 5.00908 85.4613 5.2932C85.7353 5.63204 86.0878 5.89904 86.4881 6.07114C87.2967 6.41423 88.0173 6.93544 88.5963 7.5959C89.0315 8.18137 89.2551 8.89723 89.2304 9.62631C89.2428 10.3823 89.0317 11.1252 88.6236 11.7617C88.1956 12.4096 87.5909 12.9213 86.881 13.2359C86.0482 13.6064 85.1434 13.7871 84.2321 13.7649C83.1078 13.8027 81.9961 13.5194 81.027 12.9481C80.9812 12.988 80.9441 13.037 80.9181 13.092C80.8939 13.1461 80.8794 13.204 80.8753 13.2632C80.8753 13.4382 81.0231 13.6055 81.3149 13.7727C81.7007 13.9617 82.1122 14.0927 82.5362 14.1617C83.0948 14.271 83.6629 14.3244 84.2321 14.3212C84.73 14.3212 85.1968 14.29 85.6324 14.2278C86.068 14.1656 86.4648 14.1345 86.8226 14.1345C87.5249 14.0899 88.2184 14.309 88.7675 14.749C89.0042 14.9651 89.1898 15.2311 89.3109 15.5278C89.432 15.8245 89.4856 16.1444 89.4676 16.4644C89.4783 17.1108 89.2497 17.7383 88.8258 18.2264C88.3227 18.7742 87.6821 19.1771 86.9705 19.3933C86.0455 19.7035 85.0754 19.8573 84.0999 19.8484C83.0128 19.8889 81.9289 19.7075 80.9142 19.3155C80.1052 18.9629 79.7006 18.5 79.7006 17.9269C79.7027 17.6102 79.8219 17.3054 80.0352 17.0712C79.7507 16.795 79.5273 16.4623 79.3792 16.0945C79.2312 15.7267 79.1618 15.332 79.1755 14.9357C79.1723 14.4559 79.2843 13.9824 79.5023 13.5549C79.717 13.1354 80.034 12.7768 80.4241 12.5125C80.0318 12.165 79.7189 11.7371 79.5068 11.2578C79.2947 10.7786 79.1884 10.2593 79.195 9.73522C79.1887 9.01088 79.3957 8.3007 79.7901 7.69314C80.2122 7.05881 80.7982 6.55071 81.486 6.22284C82.2649 5.84544 83.1216 5.65624 83.9871 5.6705C84.0999 5.6705 84.2127 5.6705 84.3216 5.6705C84.4353 5.67842 84.5484 5.69401 84.66 5.71718C84.5547 5.53623 84.4724 5.34284 84.4149 5.14151C84.3407 4.88086 84.3028 4.61123 84.3021 4.34023C84.2929 4.01399 84.3582 3.68993 84.493 3.3927C84.6278 3.09546 84.8286 2.83287 85.0801 2.62488C85.6361 2.16477 86.3427 1.92649 87.0638 1.95585C87.7119 1.92485 88.3508 2.11859 88.8725 2.5043C89.0924 2.67069 89.2698 2.88678 89.3901 3.1349C89.5105 3.38302 89.5704 3.65611 89.5649 3.93181C89.5679 4.17409 89.5188 4.41418 89.421 4.63585C89.3195 4.85502 89.1707 5.04897 88.9853 5.20374C88.5698 5.54126 88.0461 5.71676 87.5111 5.69773C87.0357 5.71868 86.5667 5.58193 86.177 5.30876C86.012 5.19606 85.8783 5.04354 85.788 4.86534C85.6926 4.68869 85.6443 4.49041 85.648 4.28967V4.28967ZM86.4648 17.9736C85.6641 18.2903 84.8092 18.4475 83.9482 18.4364C82.8345 18.4599 81.7365 18.1716 80.7781 17.6041C80.7286 17.6408 80.6886 17.6888 80.6614 17.7441C80.6357 17.8001 80.6237 17.8614 80.6264 17.923C80.6264 18.1953 80.9726 18.4403 81.661 18.6582C82.4253 18.8881 83.2202 18.9996 84.0182 18.9888C84.6286 18.9993 85.2378 18.9313 85.8308 18.7865C86.3494 18.6517 86.6087 18.465 86.6087 18.2264C86.6085 18.1768 86.5979 18.1277 86.5776 18.0825C86.5549 18.0385 86.5215 18.001 86.4804 17.9736H86.4648ZM84.2127 12.9403C84.4344 12.9403 84.5472 12.7731 84.5472 12.4347V7.01244C84.5472 6.67404 84.4344 6.5029 84.2127 6.5029C83.991 6.5029 83.8898 6.67793 83.8898 7.01244V12.4269C83.8898 12.7653 83.9987 12.9364 84.2243 12.9364" fill="#ECECEC"/>
<path fill-rule="evenodd" clip-rule="evenodd" d="M75.2156 4.28987C75.2193 4.12008 75.2591 3.95302 75.3323 3.79977C75.3989 3.65178 75.4956 3.5193 75.6163 3.4108C75.8783 3.17194 76.2226 3.04371 76.577 3.05295C76.8062 3.04876 77.0326 3.10368 77.2344 3.21243C77.2619 3.18118 77.2842 3.14573 77.3005 3.10741C77.3201 3.07043 77.3282 3.02845 77.3238 2.98682C77.3238 2.87532 77.2499 2.78586 77.1021 2.71844C76.9116 2.63783 76.706 2.59935 76.4992 2.60564C76.0243 2.59401 75.5637 2.7685 75.2156 3.09185C75.0469 3.24353 74.914 3.43087 74.8267 3.64029C74.7295 3.84306 74.679 4.06502 74.6789 4.28987C74.6785 4.65504 74.8034 5.00929 75.0328 5.29341C75.3062 5.63129 75.6572 5.89817 76.0558 6.07134C76.8636 6.41192 77.5833 6.93203 78.1601 7.59221C78.5959 8.17888 78.8194 8.89616 78.7941 9.62652C78.8059 10.3825 78.5949 11.1251 78.1873 11.762C77.7602 12.4106 77.1552 12.9224 76.4448 13.2361C75.6112 13.6043 74.7069 13.7849 73.7959 13.7651C72.671 13.8037 71.5587 13.5189 70.5908 12.9444C70.5458 12.9852 70.5089 13.034 70.4819 13.0883C70.4559 13.1432 70.4413 13.2027 70.4391 13.2634C70.4391 13.4345 70.5869 13.6057 70.8786 13.769C71.2645 13.9579 71.676 14.0889 72.1 14.158C72.6589 14.2654 73.2268 14.3188 73.7959 14.3175C74.2938 14.3175 74.7605 14.2708 75.1962 14.2202C75.6318 14.1697 76.0286 14.1424 76.3864 14.1269C77.0892 14.083 77.7829 14.3036 78.3313 14.7453C78.5666 14.9622 78.7511 15.2285 78.8715 15.5251C78.9918 15.8216 79.0451 16.1411 79.0275 16.4607C79.0363 17.1068 78.808 17.7337 78.3857 18.2227C77.8812 18.7687 77.241 19.1714 76.5303 19.3896C75.6069 19.7007 74.6381 19.8558 73.6636 19.8486C72.5766 19.8887 71.4928 19.7074 70.478 19.3157C69.6689 18.9631 69.2644 18.4976 69.2644 17.9193C69.2665 17.6026 69.3857 17.2978 69.5989 17.0636C69.3148 16.789 69.0918 16.4576 68.9443 16.091C68.7969 15.7244 68.7284 15.3308 68.7432 14.9359C68.7381 14.4559 68.8502 13.9819 69.0699 13.5551C69.2846 13.1356 69.6017 12.777 69.9918 12.5127C69.5976 12.1667 69.2835 11.739 69.0713 11.2594C68.859 10.7799 68.7537 10.2598 68.7626 9.73543C68.7545 9.01083 68.9616 8.30012 69.3578 7.69334C69.7773 7.05394 70.3638 6.54146 71.0537 6.21137C71.8323 5.83314 72.6892 5.6439 73.5547 5.65904C73.6636 5.65904 73.7764 5.65904 73.8892 5.65904C74.0017 5.66668 74.1135 5.68228 74.2238 5.70571C74.1213 5.52384 74.0404 5.33065 73.9826 5.13004C73.9084 4.86939 73.8704 4.59977 73.8698 4.32877C73.8616 4.00173 73.9281 3.67714 74.0643 3.37968C74.199 3.07947 74.3998 2.81355 74.6516 2.60175C75.2123 2.15227 75.9176 1.9227 76.6354 1.95606C77.2826 1.92185 77.9218 2.1129 78.4441 2.49672C78.6624 2.66183 78.8384 2.87647 78.9575 3.12296C79.0773 3.37144 79.1373 3.64453 79.1325 3.92035C79.1377 4.16228 79.0883 4.40227 78.988 4.62247C78.8876 4.84268 78.7389 5.03744 78.553 5.19228C78.1394 5.53048 77.6166 5.70613 77.0827 5.68627C76.6059 5.70808 76.1354 5.57129 75.7446 5.2973C75.5804 5.18559 75.4459 5.03539 75.353 4.85979C75.2601 4.68419 75.2116 4.48852 75.2117 4.28987H75.2156ZM76.0325 17.9777C75.2313 18.2931 74.3769 18.4516 73.5158 18.4444C72.397 18.473 71.2924 18.1888 70.3263 17.6237C70.2789 17.6611 70.2408 17.7091 70.2152 17.7638C70.1895 17.8185 70.177 17.8784 70.1785 17.9388C70.1785 18.2149 70.5208 18.46 71.2131 18.6778C71.9778 18.9052 72.7727 19.0141 73.5703 19.0007C74.1794 19.0114 74.7873 18.9434 75.379 18.7984C75.9041 18.6622 76.1569 18.4755 76.1569 18.2383C76.1558 18.1888 76.1453 18.1399 76.1258 18.0944C76.102 18.0512 76.0688 18.0139 76.0286 17.9854L76.0325 17.9777ZM73.7764 12.9289C74.002 12.9289 74.1148 12.7616 74.1148 12.4232V7.01265C74.1148 6.67425 74.002 6.5031 73.7764 6.5031C73.5508 6.5031 73.4419 6.67425 73.4419 7.01265V12.4271C73.4419 12.7655 73.5547 12.9366 73.7764 12.9366" fill="#ECECEC"/>
<path fill-rule="evenodd" clip-rule="evenodd" d="M61.4535 5.8801C61.63 5.86174 61.8069 5.91186 61.9475 6.02013C62.0529 6.14866 62.1032 6.31363 62.0875 6.47911V12.8932C62.0815 13.0113 62.1128 13.1283 62.177 13.2277C62.2074 13.2692 62.2474 13.3025 62.2937 13.325C62.3398 13.3467 62.3905 13.3574 62.4415 13.3561C62.5027 13.36 62.5641 13.3493 62.6204 13.325C62.6747 13.2961 62.7213 13.2548 62.7565 13.2044V6.47133C62.7409 6.30585 62.7912 6.14088 62.8966 6.01235C63.0366 5.90298 63.2139 5.85272 63.3906 5.87232H66.7474C66.9212 5.85713 67.0945 5.90703 67.2336 6.01235C67.2879 6.07494 67.329 6.14786 67.3544 6.22674C67.3798 6.30561 67.389 6.38881 67.3814 6.47133V12.5392C67.3714 12.6843 67.3913 12.83 67.4397 12.9671C67.4555 13.0022 67.4812 13.0319 67.5136 13.0527C67.5469 13.0713 67.5845 13.0807 67.6225 13.0799C67.6732 13.0808 67.7231 13.0673 67.7665 13.041C67.8098 13.0133 67.8447 12.9743 67.8676 12.9282C67.9381 12.7437 67.98 12.5496 67.9921 12.3525C67.9972 12.2196 68.0235 12.0883 68.0699 11.9636C68.0857 11.9405 68.1071 11.9218 68.1321 11.9091C68.1601 11.9013 68.1897 11.9013 68.2177 11.9091H68.5327C68.5696 11.9081 68.6055 11.9205 68.6339 11.9441C68.6624 11.9669 68.6828 11.9983 68.6922 12.0336C68.731 12.1727 68.7467 12.3172 68.7389 12.4614C68.7625 12.8757 68.7042 13.2906 68.5674 13.6824C68.4306 14.0742 68.2179 14.4351 67.9415 14.7447C67.6485 15.0295 67.2993 15.25 66.9162 15.392C66.533 15.534 66.1244 15.5944 65.7166 15.5693C65.1637 15.5826 64.6173 15.4484 64.1335 15.1803C63.6649 14.9077 63.2884 14.5014 63.0522 14.0134C62.7831 14.5062 62.378 14.9112 61.8853 15.1803C61.3704 15.4478 60.7966 15.5815 60.2166 15.5693C59.8388 15.5971 59.4596 15.5419 59.1054 15.4075C58.7513 15.2731 58.4309 15.0628 58.1667 14.7914C57.6574 14.1465 57.4052 13.3358 57.4588 12.5159V8.1789C57.4772 7.83556 57.4132 7.4928 57.2721 7.17925C57.1025 6.90756 56.8635 6.68601 56.5797 6.53745C56.519 6.50842 56.4658 6.46584 56.4241 6.41298C56.4037 6.37482 56.3943 6.33173 56.3969 6.28851V6.07069C56.3969 5.94622 56.4708 5.88399 56.6186 5.88399L61.4535 5.8801Z" fill="#ECECEC"/>
<path fill-rule="evenodd" clip-rule="evenodd" d="M46.5795 4.24262C46.5975 3.89931 46.5335 3.55666 46.3928 3.24297C46.2232 2.97128 45.9842 2.74973 45.7005 2.60117C45.6413 2.56976 45.5885 2.52754 45.5449 2.4767C45.5233 2.43886 45.5125 2.39579 45.5138 2.35223V2.13441C45.5138 2.00605 45.5916 1.94771 45.7394 1.94771H50.5665C50.743 1.92894 50.92 1.97911 51.0605 2.08774C51.1151 2.1496 51.157 2.22165 51.1837 2.29975C51.2104 2.37785 51.2214 2.46046 51.216 2.54283V6.79425C51.519 6.41657 51.9071 6.11604 52.3486 5.91727C52.7901 5.71849 53.2724 5.62714 53.756 5.65069C54.1361 5.62578 54.5171 5.68464 54.8719 5.82309C55.2268 5.96155 55.5469 6.17622 55.8098 6.45196C56.3174 7.09766 56.5694 7.90771 56.5177 8.72743V14.7525C56.5328 14.9168 56.4824 15.0803 56.3777 15.2076C56.2376 15.317 56.0603 15.3673 55.8837 15.3477H52.523C52.3464 15.3664 52.1694 15.3163 52.029 15.2076C51.9778 15.1443 51.9395 15.0717 51.9162 14.9937C51.8897 14.9162 51.8804 14.834 51.889 14.7525V8.34235C51.8961 8.22355 51.8632 8.10579 51.7956 8.00783C51.7676 7.9657 51.7286 7.93206 51.6828 7.91059C51.6389 7.89022 51.5912 7.8796 51.5428 7.87947C51.4814 7.87393 51.4197 7.88466 51.3639 7.91059C51.3064 7.93628 51.2578 7.97819 51.2238 8.03117V14.7642C51.2389 14.9284 51.1886 15.092 51.0838 15.2193C50.9437 15.3287 50.7664 15.3789 50.5898 15.3593H47.2291C47.0526 15.3781 46.8756 15.3279 46.7351 15.2193C46.6814 15.1571 46.6416 15.0842 46.6184 15.0054C46.5951 14.9273 46.5872 14.8454 46.5951 14.7642L46.5795 4.24262Z" fill="#ECECEC"/>
<path fill-rule="evenodd" clip-rule="evenodd" d="M40.1268 11.0456C40.1268 11.3334 40.3679 11.5979 40.8541 11.8235C41.3579 12.0725 41.9143 12.1966 42.4761 12.1852C43.0158 12.2043 43.5534 12.1096 44.054 11.9072C44.5546 11.7048 45.007 11.3993 45.3817 11.0106C45.4282 10.9568 45.4819 10.9097 45.5412 10.8705C45.5842 10.8478 45.6329 10.8383 45.6812 10.8433H45.9029C45.937 10.8317 45.9739 10.8317 46.008 10.8433C46.0396 10.8579 46.0656 10.8825 46.0819 10.9133C46.1207 11.0217 46.1366 11.1369 46.1286 11.2517C46.1288 12.0094 45.91 12.751 45.4984 13.3872C45.0591 14.0603 44.4481 14.6041 43.7286 14.9625C42.9374 15.3695 42.0589 15.5778 41.1692 15.5693C40.2255 15.5854 39.2917 15.3747 38.4464 14.9547C37.6479 14.5617 36.9745 13.9543 36.5016 13.2005C36.0158 12.4249 35.7658 11.5249 35.782 10.6099C35.7671 9.71293 35.9985 8.82903 36.451 8.0544C36.9175 7.30084 37.5859 6.6931 38.3803 6.30016C39.2803 5.85565 40.2746 5.63546 41.2781 5.65836C42.0452 5.64664 42.8078 5.77856 43.5264 6.04733C44.1345 6.27735 44.6712 6.66377 45.0822 7.16756C45.4638 7.64238 45.6686 8.23493 45.6618 8.84401C45.6703 9.22239 45.596 9.59806 45.4442 9.94474C45.2923 10.2914 45.0666 10.6008 44.7827 10.8511C44.1704 11.3845 43.3769 11.6629 42.5656 11.629C42.1588 11.6437 41.7536 11.5711 41.3772 11.4161C41.0008 11.2611 40.662 11.0274 40.3835 10.7305C40.3472 10.7304 40.3113 10.7384 40.2785 10.7538C40.2444 10.7676 40.2138 10.7889 40.189 10.8161C40.1601 10.8433 40.1376 10.8765 40.1229 10.9133C40.1077 10.9504 40.0997 10.99 40.0995 11.03L40.1268 11.0456ZM40.6869 9.76197C40.7205 9.80939 40.7661 9.84699 40.8191 9.87089C40.8708 9.89738 40.9283 9.91074 40.9864 9.90978C41.2081 9.90978 41.3209 9.78531 41.3209 9.52081V6.8875C41.3209 6.63467 41.2081 6.49853 40.9864 6.49853C40.9283 6.49757 40.8708 6.51093 40.8191 6.53743C40.766 6.56287 40.7204 6.60175 40.6869 6.65023V9.76197Z" fill="#ECECEC"/>
<path fill-rule="evenodd" clip-rule="evenodd" d="M29.2939 11.046C29.2939 11.3338 29.535 11.5983 30.0212 11.8239C30.525 12.073 31.0814 12.197 31.6432 12.1857C32.1846 12.2031 32.7236 12.1061 33.225 11.901C33.7263 11.6959 34.1788 11.3873 34.5527 10.9954C34.5992 10.9417 34.6529 10.8946 34.7122 10.8554C34.7551 10.8327 34.8039 10.8232 34.8522 10.8282H35.0739C35.1067 10.8169 35.1423 10.8169 35.1751 10.8282C35.2074 10.8417 35.2337 10.8666 35.249 10.8982C35.2891 11.0063 35.3063 11.1215 35.2995 11.2366C35.3032 11.9942 35.0856 12.7364 34.6733 13.372C34.2335 14.0462 33.621 14.5902 32.8996 14.9474C32.1086 15.3604 31.2287 15.574 30.3363 15.5697C29.3926 15.5862 28.4587 15.3754 27.6135 14.9551C26.8163 14.5603 26.1434 13.9533 25.6687 13.2009C25.1859 12.4242 24.9374 11.5247 24.953 10.6104C24.9363 9.71315 25.1678 8.82877 25.622 8.05484C26.0804 7.30112 26.7406 6.69076 27.528 6.29281C28.4294 5.84843 29.4249 5.62826 30.4297 5.65102C31.1967 5.63966 31.9592 5.77158 32.6779 6.03998C33.2854 6.2713 33.8217 6.65749 34.2338 7.16021C34.6142 7.6354 34.8177 8.22801 34.8094 8.83667C34.821 9.21495 34.7479 9.59104 34.5955 9.93745C34.4441 10.2843 34.2183 10.5937 33.9343 10.8437C33.322 11.3771 32.5285 11.6555 31.7172 11.6217C31.3104 11.6364 30.9052 11.5638 30.5288 11.4088C30.1524 11.2538 29.8135 11.02 29.535 10.7232C29.4975 10.723 29.4603 10.731 29.4261 10.7465C29.3926 10.7613 29.3622 10.7824 29.3367 10.8087C29.3091 10.8371 29.289 10.8718 29.2783 10.9099C29.2686 10.9468 29.2686 10.9857 29.2783 11.0227L29.2939 11.046ZM29.854 9.76241C29.8861 9.80968 29.9305 9.84733 29.9824 9.87132C30.0357 9.89716 30.0942 9.91046 30.1535 9.91022C30.3752 9.91022 30.488 9.78575 30.488 9.52125V6.88793C30.488 6.63511 30.3752 6.49897 30.1535 6.49897C30.0942 6.49872 30.0357 6.51203 29.9824 6.53786C29.9295 6.5622 29.8849 6.6014 29.854 6.65066V9.76241Z" fill="#ECECEC"/>
<path fill-rule="evenodd" clip-rule="evenodd" d="M16.8815 5.88049C17.9525 5.88049 18.6799 6.19815 19.0636 6.83347C19.3977 6.45251 19.8104 6.14861 20.2733 5.94273C20.7675 5.7439 21.2966 5.64603 21.8292 5.65489C22.642 5.62316 23.4385 5.88866 24.0697 6.40171C24.3507 6.63206 24.5756 6.92342 24.7273 7.25366C24.8789 7.58391 24.9533 7.94436 24.9448 8.30766C24.9527 8.6067 24.8915 8.90353 24.7659 9.17506C24.646 9.4494 24.4635 9.69184 24.233 9.88298C23.7179 10.3012 23.0678 10.517 22.4049 10.4898C21.7573 10.5215 21.1193 10.3231 20.6039 9.92965C20.3832 9.7653 20.2046 9.5509 20.0829 9.30409C19.9612 9.05727 19.8998 8.78509 19.9038 8.50992C19.8961 8.2868 19.9386 8.06481 20.0283 7.86034C20.1161 7.65232 20.249 7.46635 20.4172 7.31579C20.7685 7.00019 21.229 6.83412 21.7008 6.85292C21.7387 6.79799 21.759 6.73291 21.7592 6.66621C21.7592 6.49117 21.6308 6.4056 21.3702 6.4056C21.1023 6.40073 20.8367 6.45519 20.5923 6.56508C20.3468 6.66706 20.1255 6.81945 19.9427 7.01239C19.5912 7.38836 19.3812 7.87473 19.3485 8.38839C19.3159 8.90205 19.4627 9.41109 19.7638 9.82852C20.0761 10.2318 20.4913 10.5435 20.9657 10.7309C21.104 10.7802 21.2245 10.8696 21.3119 10.9876C21.379 11.1364 21.4084 11.2994 21.3974 11.4622V14.7451C21.3974 15.1341 21.1835 15.3402 20.7595 15.3402H16.9865C16.9067 15.3501 16.8256 15.3414 16.7497 15.3148C16.6738 15.2881 16.6051 15.2442 16.5489 15.1866C16.4928 15.129 16.4508 15.0591 16.4261 14.9825C16.4015 14.9059 16.395 14.8246 16.407 14.7451V8.1793C16.4224 7.83371 16.3543 7.4895 16.2086 7.17576C16.04 6.90321 15.8008 6.68142 15.5162 6.53396C15.4552 6.50364 15.401 6.4613 15.3568 6.40949C15.3363 6.37133 15.3269 6.32823 15.3295 6.28502V6.0672C15.3295 5.94273 15.4034 5.88049 15.5512 5.88049H16.8815Z" fill="#ECECEC"/>
<path fill-rule="evenodd" clip-rule="evenodd" d="M14.3573 1.35651C14.1546 1.15469 13.9105 0.999365 13.6419 0.901303C13.3732 0.803242 13.0864 0.764789 12.8014 0.788613H2.68823C2.40308 0.762913 2.11577 0.800488 1.84682 0.898656C1.57787 0.996823 1.33391 1.15316 1.13236 1.35651C0.765259 1.86837 0.594106 2.49501 0.650041 3.12242V7.1288C0.601002 7.75364 0.782241 8.37483 1.15959 8.87527C1.36284 9.07623 1.60705 9.23099 1.87556 9.32899C2.14406 9.427 2.43054 9.46594 2.71546 9.44316H3.9835C4.16609 9.46181 4.34878 9.40881 4.49305 9.29535C4.60651 9.15108 4.6595 8.96839 4.64086 8.7858V4.25821C4.64086 3.98593 4.74977 3.86924 4.95981 3.86924C5.02021 3.86541 5.08056 3.87748 5.13485 3.90425C5.19018 3.92961 5.23832 3.96838 5.27487 4.01705V14.702C5.25753 14.8833 5.30736 15.0646 5.4149 15.2116C5.48113 15.2667 5.55789 15.3077 5.6405 15.3321C5.72199 15.3586 5.80808 15.3679 5.89333 15.3594H9.64688C9.81835 15.3745 9.98888 15.3214 10.1214 15.2116C10.2307 15.0654 10.2807 14.8834 10.2614 14.702V3.9976C10.2981 3.95615 10.3432 3.923 10.3937 3.90036C10.4492 3.87309 10.5109 3.86101 10.5726 3.86535C10.7827 3.86535 10.8877 3.99501 10.8877 4.25432V8.79358C10.869 8.97617 10.922 9.15886 11.0355 9.30313C11.1798 9.41659 11.3625 9.46959 11.545 9.45094H12.817C13.102 9.47476 13.3888 9.43631 13.6574 9.33825C13.9261 9.24019 14.1702 9.08486 14.3728 8.88304C14.7472 8.38126 14.9269 7.76074 14.8785 7.13658V3.12242C14.9233 2.4902 14.7382 1.86309 14.3573 1.35651V1.35651Z" fill="#ECECEC"/>
</svg>
