<svg width="110" height="20" fill="none" xmlns="http://www.w3.org/2000/svg"><path fill-rule="evenodd" clip-rule="evenodd" d="M101.168 5.88c1.065 0 1.792.318 2.178.953.336-.38.75-.684 1.213-.89a3.941 3.941 0 0 1 1.556-.285 3.339 3.339 0 0 1 2.241.747 2.381 2.381 0 0 1 .875 1.906 1.957 1.957 0 0 1-.708 1.576 3.132 3.132 0 0 1-3.629.046 1.788 1.788 0 0 1-.517-.626 1.695 1.695 0 0 1-.183-.778 1.556 1.556 0 0 1 .509-1.194 1.819 1.819 0 0 1 1.288-.463.366.366 0 0 0 .054-.19c0-.172-.128-.257-.389-.257a1.896 1.896 0 0 0-1.419.622 2.045 2.045 0 0 0-.448.692 1.984 1.984 0 0 0-.147.81c-.01.472.138.934.42 1.314a2.82 2.82 0 0 0 1.202.903c.136.05.255.14.342.256a.945.945 0 0 1 .085.475v3.283c0 .389-.214.595-.634.595h-3.796a.513.513 0 0 1-.437-.154.513.513 0 0 1-.139-.441V8.179a2.148 2.148 0 0 0-.186-1 1.76 1.76 0 0 0-.689-.642.455.455 0 0 1-.16-.124.233.233 0 0 1-.026-.124V6.07c0-.125.073-.187.221-.187l1.323-.004zm-7.236 5.166c0 .288.242.552.728.778a3.5 3.5 0 0 0 1.622.362 3.848 3.848 0 0 0 2.91-1.19.757.757 0 0 1 .159-.14.246.246 0 0 1 .14-.028h.222a.171.171 0 0 1 .105 0c.03.016.056.04.073.07a.832.832 0 0 1 .047.339 3.89 3.89 0 0 1-.626 2.135 4.52 4.52 0 0 1-1.77 1.575 5.497 5.497 0 0 1-2.567.623 5.883 5.883 0 0 1-2.723-.615 4.83 4.83 0 0 1-1.945-1.754 4.753 4.753 0 0 1-.716-2.59 4.905 4.905 0 0 1 .67-2.556 4.726 4.726 0 0 1 1.906-1.762 6.223 6.223 0 0 1 2.901-.642c.767-.011 1.53.12 2.248.39a3.726 3.726 0 0 1 1.576 1.12c.382.474.585 1.067.575 1.676a2.572 2.572 0 0 1-.867 2.007 3.174 3.174 0 0 1-2.217.778 2.85 2.85 0 0 1-2.182-.899.284.284 0 0 0-.198.085.33.33 0 0 0-.067.098.389.389 0 0 0-.02.117l.016.023zm.56-1.283a.343.343 0 0 0 .129.108.39.39 0 0 0 .167.04c.226 0 .338-.129.338-.39V6.888c0-.253-.112-.389-.338-.389a.353.353 0 0 0-.296.152v3.112zM85.649 4.29a1.132 1.132 0 0 1 .389-.876 1.35 1.35 0 0 1 .965-.369 1.33 1.33 0 0 1 .653.16.312.312 0 0 0 .093-.226c0-.113-.074-.202-.225-.269a1.416 1.416 0 0 0-.595-.105 1.836 1.836 0 0 0-1.288.487c-.167.152-.3.34-.389.548a1.623 1.623 0 0 0-.144.65c0 .365.125.72.354 1.003.274.339.627.606 1.027.778.809.343 1.53.864 2.108 1.525a3.22 3.22 0 0 1 .634 2.03 3.84 3.84 0 0 1-.606 2.136 4.06 4.06 0 0 1-1.743 1.474 6.148 6.148 0 0 1-2.649.529 5.92 5.92 0 0 1-3.205-.817.44.44 0 0 0-.152.315c0 .175.148.342.44.51.386.189.797.32 1.221.389a8.58 8.58 0 0 0 1.696.16c.498 0 .965-.032 1.4-.094a8.482 8.482 0 0 1 1.19-.094 2.824 2.824 0 0 1 1.945.615 2.16 2.16 0 0 1 .7 1.715 2.621 2.621 0 0 1-.641 1.762 4.161 4.161 0 0 1-1.855 1.167 8.776 8.776 0 0 1-2.871.455 8.012 8.012 0 0 1-3.186-.532c-.809-.353-1.213-.816-1.213-1.39.002-.316.12-.62.334-.855a2.84 2.84 0 0 1-.86-2.135 3.01 3.01 0 0 1 .327-1.381 2.8 2.8 0 0 1 .922-1.043 3.649 3.649 0 0 1-1.229-2.777 3.69 3.69 0 0 1 .595-2.042 4.216 4.216 0 0 1 1.696-1.47 5.527 5.527 0 0 1 2.501-.553h.335c.113.008.226.024.338.047a2.52 2.52 0 0 1-.245-.575 2.954 2.954 0 0 1-.113-.802 2.148 2.148 0 0 1 .778-1.715 2.925 2.925 0 0 1 1.984-.67 2.816 2.816 0 0 1 1.809.55 1.746 1.746 0 0 1 .692 1.427c.003.242-.046.482-.144.704-.102.219-.25.413-.436.568a2.215 2.215 0 0 1-1.474.494 2.159 2.159 0 0 1-1.334-.39 1.186 1.186 0 0 1-.389-.443 1.166 1.166 0 0 1-.14-.575zm.817 13.684a6.61 6.61 0 0 1-2.517.462 5.974 5.974 0 0 1-3.17-.832.387.387 0 0 0-.117.14.388.388 0 0 0-.035.179c0 .272.347.517 1.035.735.764.23 1.56.342 2.357.33.61.011 1.22-.057 1.813-.201.518-.135.778-.322.778-.56a.36.36 0 0 0-.031-.145.291.291 0 0 0-.098-.108h-.015zm-2.252-5.034c.221 0 .334-.167.334-.505V7.012c0-.338-.113-.51-.334-.51-.222 0-.323.176-.323.51v5.415c0 .338.109.51.334.51M75.216 4.29c.003-.17.043-.337.116-.49.067-.148.164-.28.284-.39.262-.238.607-.366.961-.357.23-.004.456.05.657.16a.39.39 0 0 0 .067-.106.21.21 0 0 0 .023-.12c0-.112-.074-.201-.222-.269a1.431 1.431 0 0 0-.603-.112 1.82 1.82 0 0 0-1.283.486 1.529 1.529 0 0 0-.39.548 1.504 1.504 0 0 0-.147.65c0 .365.124.72.354 1.003a2.7 2.7 0 0 0 1.023.778c.808.34 1.527.861 2.104 1.521a3.22 3.22 0 0 1 .634 2.035 3.85 3.85 0 0 1-.607 2.135 4.04 4.04 0 0 1-1.742 1.474 6.222 6.222 0 0 1-2.65.53 5.884 5.884 0 0 1-3.204-.822.447.447 0 0 0-.152.319c0 .171.148.343.44.506.385.189.797.32 1.221.389a8.88 8.88 0 0 0 1.696.16c.498 0 .964-.047 1.4-.098.436-.05.833-.078 1.19-.093a2.82 2.82 0 0 1 1.945.618 2.171 2.171 0 0 1 .697 1.716 2.64 2.64 0 0 1-.642 1.762 4.208 4.208 0 0 1-1.856 1.167 8.776 8.776 0 0 1-2.866.459 8.025 8.025 0 0 1-3.186-.533c-.81-.353-1.214-.818-1.214-1.397.002-.316.122-.621.335-.855a2.813 2.813 0 0 1-.856-2.128 2.94 2.94 0 0 1 .327-1.38 2.8 2.8 0 0 1 .922-1.043 3.612 3.612 0 0 1-1.23-2.778 3.66 3.66 0 0 1 .596-2.042 4.192 4.192 0 0 1 1.696-1.482 5.504 5.504 0 0 1 2.5-.552h.335c.113.008.225.023.335.047a2.688 2.688 0 0 1-.241-.576 2.95 2.95 0 0 1-.113-.801 2.15 2.15 0 0 1 .194-.95c.135-.3.336-.565.588-.777a2.952 2.952 0 0 1 1.983-.646 2.805 2.805 0 0 1 1.81.54 1.746 1.746 0 0 1 .687 1.424 1.61 1.61 0 0 1-.579 1.272 2.194 2.194 0 0 1-1.47.494 2.159 2.159 0 0 1-1.338-.389 1.218 1.218 0 0 1-.533-1.007h.004zm.817 13.688a6.717 6.717 0 0 1-2.517.466 6.013 6.013 0 0 1-3.19-.82.388.388 0 0 0-.147.315c0 .276.342.521 1.034.739A7.81 7.81 0 0 0 73.57 19c.61.01 1.217-.058 1.809-.203.525-.136.778-.322.778-.56a.387.387 0 0 0-.031-.144.327.327 0 0 0-.097-.109l.004-.007zm-2.257-5.05c.226 0 .339-.166.339-.505v-5.41c0-.339-.113-.51-.339-.51-.225 0-.334.171-.334.51v5.414c0 .338.113.51.334.51" fill="#ECECEC"/><path fill-rule="evenodd" clip-rule="evenodd" d="M61.453 5.88a.692.692 0 0 1 .494.14.63.63 0 0 1 .14.46v6.413a.564.564 0 0 0 .09.335.315.315 0 0 0 .264.128.39.39 0 0 0 .18-.031c.054-.029.1-.07.136-.12V6.47a.63.63 0 0 1 .14-.459.68.68 0 0 1 .494-.14h3.356a.704.704 0 0 1 .487.14.615.615 0 0 1 .147.46v6.067c-.01.145.01.291.059.428a.199.199 0 0 0 .074.086c.033.018.07.028.109.027.05 0 .1-.013.143-.039a.284.284 0 0 0 .102-.113c.07-.184.112-.378.124-.576a1.23 1.23 0 0 1 .078-.388.167.167 0 0 1 .062-.055.16.16 0 0 1 .086 0h.315a.152.152 0 0 1 .1.035.17.17 0 0 1 .06.09c.038.139.054.283.046.427a3.159 3.159 0 0 1-.797 2.284 2.934 2.934 0 0 1-2.225.824c-.553.014-1.1-.12-1.584-.389a2.722 2.722 0 0 1-1.08-1.167 2.93 2.93 0 0 1-1.168 1.167 3.462 3.462 0 0 1-1.668.39 2.595 2.595 0 0 1-2.05-.779 3.322 3.322 0 0 1-.708-2.275V8.179a2.155 2.155 0 0 0-.187-1 1.8 1.8 0 0 0-.692-.642.44.44 0 0 1-.156-.124.234.234 0 0 1-.027-.124V6.07c0-.125.074-.187.222-.187l4.834-.004zM46.58 4.243a2.166 2.166 0 0 0-.187-1 1.801 1.801 0 0 0-.693-.642.536.536 0 0 1-.155-.124.237.237 0 0 1-.031-.125v-.218c0-.128.078-.186.225-.186h4.828a.689.689 0 0 1 .493.14.627.627 0 0 1 .156.455v4.251a3.065 3.065 0 0 1 2.54-1.143 2.602 2.602 0 0 1 2.054.801c.507.646.76 1.456.708 2.275v6.025a.626.626 0 0 1-.14.456.68.68 0 0 1-.494.14h-3.361a.688.688 0 0 1-.494-.14.624.624 0 0 1-.113-.214.563.563 0 0 1-.027-.242v-6.41a.533.533 0 0 0-.093-.334.276.276 0 0 0-.113-.097.335.335 0 0 0-.14-.032.35.35 0 0 0-.32.152v6.733a.626.626 0 0 1-.14.455.68.68 0 0 1-.493.14h-3.36a.689.689 0 0 1-.495-.14.576.576 0 0 1-.117-.214c-.023-.078-.03-.16-.023-.24L46.58 4.242zm-6.453 6.803c0 .287.24.552.727.777a3.5 3.5 0 0 0 1.622.362 3.846 3.846 0 0 0 2.906-1.174.739.739 0 0 1 .16-.14.246.246 0 0 1 .14-.028h.22a.163.163 0 0 1 .106 0 .16.16 0 0 1 .074.07.832.832 0 0 1 .047.339c0 .757-.219 1.499-.63 2.135a4.52 4.52 0 0 1-1.77 1.575 5.48 5.48 0 0 1-2.56.607 5.893 5.893 0 0 1-2.723-.614 4.796 4.796 0 0 1-1.944-1.755 4.723 4.723 0 0 1-.72-2.59 4.905 4.905 0 0 1 .669-2.556 4.742 4.742 0 0 1 1.93-1.754 6.223 6.223 0 0 1 2.897-.642 6.15 6.15 0 0 1 2.248.39c.608.23 1.145.616 1.556 1.12a2.63 2.63 0 0 1 .58 1.676 2.599 2.599 0 0 1-.88 2.007 3.174 3.174 0 0 1-2.216.778 2.85 2.85 0 0 1-2.183-.899.246.246 0 0 0-.105.024.246.246 0 0 0-.089.062.272.272 0 0 0-.066.097.312.312 0 0 0-.023.117l.027.016zm.56-1.284a.34.34 0 0 0 .132.109c.052.026.11.04.167.039.222 0 .335-.125.335-.39V6.889c0-.253-.113-.39-.335-.39a.354.354 0 0 0-.167.04.338.338 0 0 0-.132.112v3.112zm-11.393 1.284c0 .288.241.552.727.778a3.5 3.5 0 0 0 1.622.362 3.851 3.851 0 0 0 2.91-1.19.78.78 0 0 1 .16-.14.246.246 0 0 1 .14-.028h.22a.155.155 0 0 1 .102 0 .144.144 0 0 1 .074.07.83.83 0 0 1 .05.339 3.88 3.88 0 0 1-.626 2.135 4.504 4.504 0 0 1-1.773 1.575 5.481 5.481 0 0 1-2.564.623 5.884 5.884 0 0 1-2.723-.615 4.839 4.839 0 0 1-1.944-1.754 4.753 4.753 0 0 1-.716-2.59 4.87 4.87 0 0 1 .669-2.556 4.726 4.726 0 0 1 1.906-1.762 6.243 6.243 0 0 1 2.902-.642c.767-.011 1.53.12 2.248.389a3.726 3.726 0 0 1 1.556 1.12c.38.475.584 1.068.575 1.677a2.585 2.585 0 0 1-.875 2.007 3.174 3.174 0 0 1-2.217.778 2.85 2.85 0 0 1-2.182-.899.285.285 0 0 0-.198.085.222.222 0 0 0-.058.214l.015.024zm.56-1.284a.315.315 0 0 0 .128.11.407.407 0 0 0 .172.038c.221 0 .334-.124.334-.389V6.888c0-.253-.113-.389-.334-.389a.389.389 0 0 0-.172.039.3.3 0 0 0-.128.113v3.111zM16.881 5.88c1.072 0 1.799.318 2.183.953a3.502 3.502 0 0 1 1.21-.89 3.99 3.99 0 0 1 1.555-.288 3.345 3.345 0 0 1 2.24.747 2.394 2.394 0 0 1 .876 1.906c.008.299-.053.596-.18.867a1.912 1.912 0 0 1-.532.708 2.723 2.723 0 0 1-1.828.607 2.747 2.747 0 0 1-1.801-.56 1.739 1.739 0 0 1-.7-1.42 1.489 1.489 0 0 1 .124-.65c.088-.208.221-.394.39-.544a1.813 1.813 0 0 1 1.283-.463.33.33 0 0 0 .058-.187c0-.175-.128-.26-.389-.26a1.816 1.816 0 0 0-.778.16 1.898 1.898 0 0 0-.65.446 2.221 2.221 0 0 0-.178 2.817 2.84 2.84 0 0 0 1.202.902.74.74 0 0 1 .346.257.992.992 0 0 1 .085.474v3.283c0 .39-.213.595-.637.595h-3.774a.522.522 0 0 1-.579-.595V8.18a2.155 2.155 0 0 0-.198-1.003 1.774 1.774 0 0 0-.693-.642.505.505 0 0 1-.16-.125.233.233 0 0 1-.027-.124v-.218c0-.124.074-.187.222-.187h1.33zm-2.524-4.523a1.973 1.973 0 0 0-1.556-.568H2.688a1.945 1.945 0 0 0-1.556.568A2.63 2.63 0 0 0 .65 3.122V7.13a2.567 2.567 0 0 0 .51 1.746 1.988 1.988 0 0 0 1.555.568h1.268a.708.708 0 0 0 .51-.148.708.708 0 0 0 .148-.51V4.259c0-.272.109-.389.319-.389.06-.004.12.008.175.035a.366.366 0 0 1 .14.113v10.685a.743.743 0 0 0 .14.51.633.633 0 0 0 .226.12.619.619 0 0 0 .252.027h3.754a.654.654 0 0 0 .474-.147.723.723 0 0 0 .14-.51V3.998a.39.39 0 0 1 .133-.098.35.35 0 0 1 .179-.035c.21 0 .315.13.315.39v4.539a.707.707 0 0 0 .148.51.708.708 0 0 0 .509.147h1.272a1.972 1.972 0 0 0 1.556-.568 2.586 2.586 0 0 0 .506-1.746V3.122a2.63 2.63 0 0 0-.522-1.765z" fill="#ECECEC"/></svg>