<svg fill="none" height="30" width="97" xmlns="http://www.w3.org/2000/svg"><path d="m42.018 22.056c-.101-.14-.177-.26-.26-.369-.59-.774-1.175-1.55-1.777-2.32-.915-1.165-1.838-2.325-2.398-3.72a8.492 8.492 0 0 1 -.123-5.853 8.004 8.004 0 0 1 9.315-5.126c.126.029.185-.004.256-.102.843-1.16 1.688-2.32 2.536-3.476.034-.046.07-.09.106-.135l.038.02-1.996 3.95c.124.054.238.105.35.152a7.904 7.904 0 0 1 3.378 2.632 7.775 7.775 0 0 1 1.553 4.135c.118 1.528-.135 2.998-.818 4.383-.517 1.05-1.214 1.975-1.94 2.882-1.126 1.406-2.253 2.813-3.119 4.403a17.811 17.811 0 0 0 -1.633 4.119c-.15.586-.271 1.18-.406 1.771a1.333 1.333 0 0 1 -.07.255c-.439-2.37-1.183-4.62-2.45-6.73l-3.5 4.872-.035-.02 2.991-5.74.556.852 7.564-10.537h-6.195l3.75-7.42c-.248-.07-.468-.144-.692-.193-.044-.009-.12.06-.156.11-.427.577-.851 1.155-1.273 1.735l-2.9 3.968-1.886 2.586-.98 1.342c-.029.041-.05.087-.084.146h6.167l-3.87 7.428z" fill="#c29c80"/><g fill="#ececec"><path d="m56.572 21.733c.025-.45.047-.89.07-1.33l.23-3.927.305-5.165c.029-.49.052-.98.083-1.466a.533.533 0 0 1 .06-.151.64.64 0 0 1 .14.088c.709.79 1.415 1.582 2.118 2.376.736.826 1.474 1.652 2.213 2.477.392.44.78.881 1.171 1.321.042.047.088.091.146.153.17-.19.334-.369.49-.551 1.453-1.656 2.905-3.313 4.356-4.97.238-.271.475-.544.716-.813a.648.648 0 0 1 .122-.087.5.5 0 0 1 .063.148c.046.709.09 1.418.133 2.128l.31 5.358c.08 1.42.162 2.84.243 4.259v.149h-3.112l-.28-5.018c-.152.17-.276.303-.394.441l-2.5 2.901c-.117.137-.165.13-.304-.024l-2.851-3.195c-.038-.042-.07-.09-.102-.135l-.038.025c-.094 1.666-.186 3.334-.276 5.006h-3.11zm-29.275 0h-3.179v-11.837c.044-.005.088-.012.133-.012 1.544 0 3.09-.016 4.635.01 1.158.021 2.236.341 3.142 1.094 1.064.885 1.519 2.064 1.562 3.42a4.793 4.793 0 0 1 -.49 2.335c-.469.936-1.2 1.59-2.157 2-.719.308-1.475.42-2.25.434-.397.006-.793 0-1.19 0h-.203zm.006-9.128v3.914c.6-.032 1.19-.018 1.77-.105.69-.104 1.124-.553 1.25-1.243.06-.332.073-.671.04-1.008-.093-.931-.6-1.456-1.53-1.549-.5-.05-1.01-.009-1.53-.009zm55.957-2.718c.042 0 .07-.004.099-.004 1.556 0 3.114-.014 4.67.012 1.07.017 2.074.305 2.948.948a4.087 4.087 0 0 1 1.574 2.365c.296 1.173.233 2.324-.275 3.43-.47 1.023-1.26 1.717-2.294 2.139-.691.28-1.414.385-2.153.397-.402.006-.805 0-1.207 0-.063 0-.125.006-.202.01v2.54h-3.16v-11.836zm3.167 6.604c.615-.027 1.222.063 1.82-.078.685-.16 1.088-.594 1.224-1.28a3.01 3.01 0 0 0 -.01-1.232c-.14-.655-.536-1.076-1.184-1.24-.607-.153-1.227-.06-1.85-.085zm-80.467-3.931h-4.325v-2.677h9.171c.14-.007.168.057.103.17-.13.228-.26.454-.393.681l-2.761 4.742-2.014 3.458c-.017.029-.032.06-.063.119h4.773v2.68c-.061 0-.122.008-.184.008h-9.375c-.236 0-.252-.024-.13-.234l2.322-3.99 2.778-4.773c.029-.045.053-.096.098-.184zm17.05 9.182h-.688c-.8 0-1.598-.004-2.397.004a.243.243 0 0 1 -.268-.18c-.1-.247-.214-.49-.333-.73a.21.21 0 0 0 -.152-.1 635.762 635.762 0 0 0 -4.234 0 .202.202 0 0 0 -.149.104c-.12.259-.223.525-.344.784a.209.209 0 0 1 -.14.112c-.985.007-1.97 0-2.956 0-.01 0-.02-.007-.05-.02.13-.272.256-.545.386-.816l2.266-4.725a3228.34 3228.34 0 0 0 2.972-6.23c.032-.075.07-.147.112-.217.036-.052.084-.117.14-.13.03-.007.099.07.124.121.152.302.296.607.44.91.486 1.02.97 2.041 1.455 3.062a2210.741 2210.741 0 0 0 2.906 6.085l.847 1.783c.016.054.032.103.063.183zm-7.158-3.403h2.373l-1.204-2.717c-.394.924-.777 1.814-1.17 2.717zm66.288 3.403h-.652c-.817 0-1.633 0-2.45.003a.223.223 0 0 1 -.245-.162 11.006 11.006 0 0 0 -.337-.748.208.208 0 0 0 -.152-.099c-1.41-.004-2.822-.004-4.233 0a.224.224 0 0 0 -.157.116c-.121.258-.224.524-.345.782a.21.21 0 0 1 -.149.103c-.968.005-1.935.004-2.903 0a.739.739 0 0 1 -.09-.014c.044-.1.08-.19.12-.28l2.023-4.221 2.153-4.488c.479-.997.957-1.995 1.433-2.993a.83.83 0 0 1 .125-.153c.051.048.12.088.15.148.411.854.818 1.712 1.226 2.568l2.258 4.729c.717 1.503 1.432 3.006 2.147 4.51.027.064.046.122.078.199zm-4.778-3.395-1.208-2.724c-.4.932-.783 1.82-1.17 2.724zm19.156-9.977c.06 1.06-.88 2.087-2.062 2.081a2.082 2.082 0 0 1 0-4.163c1.212.006 2.113 1.022 2.062 2.082zm-.38.007a1.68 1.68 0 1 0 -3.359-.025 1.68 1.68 0 0 0 3.36.025z"/><path d="m95.46 9.434c-.14 0-.28.008-.416-.005a.219.219 0 0 1 -.129-.096 11.13 11.13 0 0 1 -.372-.55c-.118-.186-.27-.266-.515-.218v.863h-.432v-2.093c.43 0 .86-.024 1.286.008.294.022.436.232.45.533a.55.55 0 0 1 -.396.588c-.033.012-.066.02-.07.021.21.295.42.596.63.897zm-1.435-1.248c.223 0 .43.008.636 0 .153-.008.222-.112.218-.26a.223.223 0 0 0 -.226-.239 4.62 4.62 0 0 0 -.52-.01.144.144 0 0 0 -.103.098c-.013.134-.005.272-.005.41z"/></g></svg>