<svg width="77" height="39" fill="none" xmlns="http://www.w3.org/2000/svg"><path d="M49.696 35.18l-12.843 3.548c-.309-.401-.614-.802-.92-1.203a8514.494 8514.494 0 0 1-8.196-10.84 1.507 1.507 0 0 1-.322-.827c-.016-7.245-.02-14.49-.01-21.733 0-.042.011-.086.03-.213L40.253.36c.733.96 1.47 1.925 2.205 2.892 2.325 3.06 4.645 6.12 6.962 9.184.174.22.279.488.299.769.016 7.243.02 14.486.01 21.73a2.01 2.01 0 0 1-.033.244zM27.991 4.542c0 .067-.02.134-.02.2v20.92c.011.21.085.414.212.583.89 1.218 1.795 2.43 2.713 3.633 1.999 2.64 4.003 5.277 6.012 7.912l.12.115c.055.025.119.085.163.073 2.678-.748 5.356-1.5 8.033-2.256l1.98-.544 1.953-.497c.014-.143.028-.208.028-.273V13.534a2.548 2.548 0 0 0-.1-.498 1.783 1.783 0 0 0-.148-.283 5150.125 5150.125 0 0 0-6.36-8.416c-.845-1.104-1.699-2.192-2.518-3.261-3.298.906-6.52 1.78-9.736 2.68-.79.221-1.556.526-2.332.785zm-3.874 21.213h-1.228v-5.143c0-1.105-.318-1.42-1.423-1.425H19.82v6.568h-1.202V14.88l1.203-.282v3.362c.667 0 1.285-.012 1.902 0 1.544.035 2.383.875 2.392 2.405.01 1.78.002 3.555.002 5.389zm32.4-1.599l1.04-.312v11.25l-.925-.268v.116c-.828 0-1.673.107-2.48-.026-1.068-.178-1.622-.96-1.642-2.038-.022-1.11-.012-2.218-.01-3.327 0-1.483.795-2.297 2.289-2.343.549-.018 1.1 0 1.723 0v-3.052h.005zm-.01 4.295c-.632 0-1.203-.033-1.773.01-.509.038-.924.322-.943.861a45.153 45.153 0 0 0 0 3.583c.03.643.48.903 1.249.894.903-.01 1.43-.3 1.45-.935.049-1.455.017-2.91.017-4.413zm-51.2-3.023c-.996.58-2.111.496-3.192.11C1.133 25.186.691 24.158.887 23c.174-1.026.982-1.75 2.091-1.81.705-.04 1.415-.009 2.178-.009 0-.469.042-.89-.01-1.3-.077-.614-.525-.837-1.092-.845-.82-.01-1.642 0-2.567 0l.297-1.057c.876 0 1.72-.041 2.555.01 1.344.081 2.103.907 2.111 2.253.012 1.819 0 3.637 0 5.62l-1.142-.434zm-.163-3.02c-.702 0-1.362-.028-2.018.008-.609.035-.984.391-1.019 1.011-.032.582.258 1.037.846 1.077 1.664.113 2.363.148 2.223-1.814-.004-.066-.015-.131-.032-.282zm53.888 5.787l.276-.966c.909 0 1.797-.064 2.672.016 1.288.116 1.99.942 2.004 2.223.01 1.643.013 3.286-.008 4.93 0 .242-.16.484-.267.793l-.754-.527v.19c-.792.068-1.59.218-2.378.184-1.392-.056-2.197-.975-2.181-2.339.016-1.364.873-2.223 2.261-2.277.659-.027 1.32 0 2.012 0 .014-.268.031-.464.032-.658.007-1.158-.319-1.476-1.51-1.48-.667 0-1.335 0-2.003-.008-.039-.01-.076-.045-.156-.081zm3.607 3.506c-.725 0-1.413-.032-2.094.011-.576.035-.861.433-.887.982-.025.518.209.887.735 1.045 1.586.475 2.396-.149 2.306-1.782a1.665 1.665 0 0 0-.06-.256zm12.405-4.465h1.378c-1.124 3.645-2.235 7.24-3.353 10.862h-1.098c.12-.512.182-1.04.369-1.516.442-1.13.25-2.194-.134-3.294-.618-1.78-1.165-3.585-1.736-5.38-.067-.207-.12-.42-.189-.668h1.217l1.753 5.656.21-.007c.52-1.866 1.044-3.73 1.583-5.653zm-57.447-7.58l-1.202.3c-.51-1.025-1.432-.802-2.271-.706-.521.058-.802.465-.808.993a84.883 84.883 0 0 0 0 3.195c.021.759.413 1.084 1.202 1.1 1.336.026 1.336.026 1.91-.886l1.167.427c-.08.786-.535 1.336-1.203 1.451a8.96 8.96 0 0 1-2.87.054c-.934-.154-1.429-.949-1.449-1.907a92.99 92.99 0 0 1 0-3.727c.016-.922.535-1.716 1.431-1.838a9.442 9.442 0 0 1 2.818.07c.69.116 1.183.654 1.275 1.474zm-8.834-1.583l2.72-.154v1.132c-.496 0-.978-.01-1.46 0-.782.021-1.133.37-1.136 1.157-.01 1.838 0 3.676 0 5.545H7.685v-7.827l1.102.251-.024-.104zm59.53 6.033l1.14-.268V35.01h-1.14V24.106zm-1.697 10.93h-1.002V27.23h1.002v7.806zm-1.012-10.18v-1h1.015v1h-1.015z" fill="#3A3A3A"/><path d="M45.218 35.722a7895.59 7895.59 0 0 1-8.033 2.256c-.044.013-.108-.048-.163-.073.01-.267.029-.534.029-.802v-20.69c2.164-.596 4.284-1.171 6.397-1.766 1.88-.526 3.753-1.069 5.628-1.612.05.162.083.329.1.498.005 6.957.005 13.915 0 20.872 0 .066-.014.134-.029.274l-1.953.497v-4.71l-1.98.535.004 4.721zm1.936-19.738l-5.774 1.603v4.782l5.774-1.604v-4.78zm-7.911 9.847v4.77l3.882-1.057v-4.779l-3.882 1.066z" fill="#fff"/><path d="M36.902 37.79a34674.05 34674.05 0 0 0-6.012-7.913 336.834 336.834 0 0 1-2.713-3.632 1.07 1.07 0 0 1-.207-.588c-.008-6.973-.008-13.947 0-20.92 0-.067.013-.133.02-.199 2.88 3.794 5.757 7.59 8.63 11.39.178.249.276.546.28.852.012 7.005.012 14.008.002 21.01zm-1.86-16.14c0-1.259-.107-2.329.023-3.37.234-1.878-1.31-2.717-2.087-4.007a66.462 66.462 0 0 0-.063 4.15c-.003.216.057.429.173.612.593.825 1.214 1.629 1.954 2.615z" fill="#3A3A3A"/><path d="M36.9 37.79V16.783a1.504 1.504 0 0 0-.28-.852 2412.524 2412.524 0 0 0-8.63-11.39c.776-.268 1.543-.564 2.333-.785 3.215-.899 6.437-1.774 9.736-2.68.819 1.07 1.672 2.157 2.509 3.26 2.125 2.803 4.245 5.608 6.36 8.416.058.09.107.185.148.284-1.87.534-3.748 1.086-5.628 1.612-2.114.595-4.234 1.17-6.398 1.766v20.693c0 .267-.018.535-.028.802l-.121-.12zm8.317-2.067v-4.721l1.98-.535v4.715l-1.98.54z" fill="#CACACA"/><path d="M47.155 15.983v4.782l-5.774 1.603v-4.776l5.774-1.609zm-7.913 9.847l3.882-1.069v4.776L39.242 30.6v-4.77z" fill="#CACACA"/><path d="M35.043 21.65c-.74-.981-1.361-1.786-1.954-2.613a1.116 1.116 0 0 1-.173-.613 66.54 66.54 0 0 1 .063-4.15c.777 1.29 2.32 2.129 2.087 4.009-.13 1.035-.023 2.105-.023 3.367z" fill="#fff"/></svg>