<svg width="103" height="20" fill="none" xmlns="http://www.w3.org/2000/svg"><path d="M9.527 18.89v-1.53c-.816 1.122-2.243 1.734-4.078 1.734-2.854 0-4.587-1.733-4.587-4.078 0-2.446 1.835-3.975 5.097-3.975h3.67v-.306c0-1.427-.918-2.243-2.752-2.243-1.224 0-2.549.408-3.976 1.122L1.678 7.167c1.937-1.02 3.67-1.529 6.014-1.529 3.568 0 5.607 1.733 5.607 4.69v8.562H9.527zM6.469 16.34c1.63 0 2.854-.815 3.058-1.936v-1.122H6.57c-1.427 0-2.14.408-2.14 1.53 0 .917.713 1.528 2.038 1.528zM20.332 5.74h-3.771v13.15h3.771v-6.32c0-2.243 1.631-3.67 4.383-3.466V5.638c-1.936 0-3.465.917-4.383 2.548V5.74zm12.13-.102c-4.077 0-6.83 2.752-6.83 6.728 0 3.975 2.753 6.626 6.729 6.626 2.752 0 4.79-1.122 5.912-2.855l-2.65-1.732c-.714 1.019-1.733 1.529-3.058 1.529-1.835 0-3.16-1.427-3.16-3.568 0-2.14 1.325-3.466 3.16-3.466 1.325 0 2.344.51 3.058 1.427l2.548-1.835c-1.121-1.835-3.16-2.854-5.708-2.854zm16.718 0c-2.039 0-3.67.816-4.587 2.447V.745h-3.772V18.89h3.772v-6.422c0-1.937 1.121-3.364 3.058-3.364 1.631 0 2.65 1.02 2.65 2.65v7.136h3.772v-8.257c0-3.058-1.937-4.995-4.893-4.995z" fill="#3A3A3A"/><path d="M51.119 5.638c-2.04 0-3.67.816-4.588 2.447V.745H42.76V18.89h3.771v-6.422c0-1.937 1.122-3.364 3.059-3.364 1.63 0 2.65 1.02 2.65 2.65v7.136h3.771v-8.257c0-3.058-1.936-4.995-4.892-4.995z" fill="#737373"/><path opacity=".296" d="M49.18 5.638c-2.039 0-3.67.816-4.587 2.447V.745H40.82V18.89h3.772v-6.422c0-1.937 1.121-3.364 3.058-3.364 1.631 0 2.65 1.02 2.65 2.65v7.136h3.772v-8.257c0-3.058-1.937-4.995-4.893-4.995z" fill="#3A3A3A"/><path d="M64.98 5.638c4.689 0 6.83 3.058 6.523 7.85h-9.48c.408 1.63 1.733 2.65 3.466 2.65 1.224 0 2.447-.51 3.364-1.428l2.039 2.04c-1.325 1.426-3.262 2.344-5.709 2.344-4.28 0-6.931-2.65-6.931-6.626-.102-4.18 2.65-6.83 6.728-6.83zm-3.059 5.607h6.015c0-1.733-1.224-2.855-2.956-2.855-1.631 0-2.855 1.122-3.059 2.855zm16.005 7.645V.745h-3.874V18.89h3.873zm7.645 0V.745h-3.772V18.89h3.772zm9.786-13.252c4.28 0 7.135 2.65 7.135 6.728 0 3.975-2.854 6.728-7.135 6.728-4.282 0-7.136-2.753-7.136-6.728 0-4.078 2.854-6.728 7.136-6.728zm0 3.16c-1.937 0-3.262 1.427-3.262 3.568 0 2.14 1.325 3.67 3.262 3.67 1.936 0 3.262-1.428 3.262-3.568s-1.326-3.67-3.262-3.67z" fill="#737373"/></svg>