<svg width="84" height="17" fill="none" xmlns="http://www.w3.org/2000/svg"><path d="M11.455 16.158L7.003 2.904l-3.889 11.31h5.488v1.829H.376L5.979.51h2.278l5.488 15.532h-2.29v.115zm9.25-9.25c-.23 0-.46-.115-.691-.115a3.37 3.37 0 0 0-3.187 3.658v5.753h-1.944V5.309h1.944v2.06a3.452 3.452 0 0 1 3.314-2.302c.199-.03.403.01.575.115l-.012 1.726zm5.14 9.48c-3.197 0-5.142-2.174-5.142-5.752s2.175-5.752 5.143-5.752a4.66 4.66 0 0 1 4.602 2.968l-1.6.805a2.98 2.98 0 0 0-2.968-2.174c-1.944 0-3.198 1.484-3.198 4.107s1.369 4.107 3.198 4.107a3.371 3.371 0 0 0 3.199-1.944l1.484.805a4.855 4.855 0 0 1-4.717 2.83zm14.968-.229H38.87V9.877c0-2.404-.909-3.083-2.508-3.083a2.911 2.911 0 0 0-2.853 3.198v6.282h-1.945V.627h1.945V6.91a3.785 3.785 0 0 1 3.543-1.83 3.451 3.451 0 0 1 3.084 1.37c.522.898.762 1.932.69 2.968v6.742h-.012zM44.36 5.31h-1.944v10.85h1.944V5.308zm-.92-2.404a1.265 1.265 0 0 1-1.254-1.254 1.254 1.254 0 0 1 2.509 0 1.15 1.15 0 0 1-1.254 1.254zm8.913 3.89h-2.405v9.25h-1.944v-9.25h-2.048v-1.6h2.048V1.767h1.944v3.428h2.405v1.6zm3.431-1.486H53.84v10.85h1.944V5.308zm-.92-2.404a1.254 1.254 0 1 0 0-2.508 1.254 1.254 0 0 0 0 2.508zm10.961 13.253h-8.56v-1.484l6.167-7.766h-5.833V5.31h8.226v1.484l-6.281 7.881h6.281v1.484zM76.458 10.9c0-3.198-1.6-5.753-4.913-5.753-2.968 0-5.143 2.301-5.143 5.603 0 3.544 2.06 5.753 5.143 5.753a5.51 5.51 0 0 0 4.763-2.508L74.94 12.97a3.601 3.601 0 0 1-3.198 1.83 3.35 3.35 0 0 1-3.452-3.66h8.054l.115-.241zm-7.996-1.3a3.164 3.164 0 0 1 3.244-3.037c1.6 0 2.623 1.15 2.853 3.083L68.462 9.6zm15.303-2.692c-.23 0-.46-.115-.69-.115a3.371 3.371 0 0 0-3.199 3.658v5.753h-1.933V5.309h1.945v2.06A3.451 3.451 0 0 1 83.2 5.066c.2-.03.403.01.575.115l-.011 1.726z" fill="#3A3A3A"/></svg>