<svg width="117" height="14" fill="none" xmlns="http://www.w3.org/2000/svg"><path d="M94.979 1.372c.344 0 .672-.058.967.019.202.052.387.268.528.45.926 1.187 1.836 2.386 2.757 3.577.92 1.192 1.821 2.337 2.723 3.51.429.558.834 1.135 1.259 1.696.113.101.237.188.371.258V1.386h1.319c.009.175.022.329.022.483v11.033c0 .616-.354.855-.93.573a2.209 2.209 0 0 1-.732-.605c-.916-1.15-1.808-2.322-2.706-3.485l-2.785-3.596c-.401-.52-.794-1.046-1.202-1.562a1.103 1.103 0 0 0-.293-.176v8.963c0 .508 0 .52-.507.517-.88 0-.828.126-.827-.814.006-3.667.006-7.33 0-10.992.012-.112.025-.217.036-.353zM113.05 7.7h3.686v4.304c0 .294-.133.447-.374.594a7.104 7.104 0 0 1-2.491.899c-.676.118-1.387.042-2.08.073a5.192 5.192 0 0 1-2.754-.655 5.786 5.786 0 0 1-2.492-2.693c-.615-1.319-.611-2.678-.526-4.055.032-.516.23-1.035.418-1.528a4.74 4.74 0 0 1 1.338-1.962 8.304 8.304 0 0 1 1.759-1.098c1.357-.65 2.824-.542 4.25-.387.988.109 1.875.586 2.653 1.225.037.03.094.091.084.112a4.723 4.723 0 0 1-.44.87c-.064.088-.355.087-.497.024-.371-.161-.702-.412-1.073-.569-1.026-.44-2.052-.623-3.199-.406-.998.188-1.837.586-2.504 1.286-.626.66-1.055 1.465-1.111 2.414-.03.526-.214 1.056-.167 1.57.147 1.648.68 3.146 2.199 4.034a4.917 4.917 0 0 0 3.78.516 11.946 11.946 0 0 0 1.518-.479.634.634 0 0 0 .351-.44c.036-.716.02-1.436.014-2.154 0-.274-.165-.387-.428-.386-.476 0-.952-.013-1.427 0-.345.012-.499-.127-.484-.47.004-.207-.003-.41-.003-.64zm-41.725 5.578c1.612-3.957 3.213-7.914 4.844-11.926.506 0 1.026-.019 1.542.015.112.007.252.187.31.318.33.765.648 1.536.955 2.313.221.555.409 1.125.633 1.68.225.556.493 1.11.723 1.672.23.561.44 1.141.657 1.71.213.544.44 1.083.659 1.626.174.432.343.867.522 1.298.179.431.372.88.593 1.394-.55.037-1.055.147-1.546-.094a.555.555 0 0 1-.202-.28c-.31-.733-.616-1.479-.92-2.219-.026-.066-.021-.146-.046-.21-.114-.313-.264-.542-.668-.537-1.55.017-3.1.014-4.651 0-.363 0-.601.123-.733.463-.293.774-.594 1.545-.869 2.323-.147.428-.293.573-.755.586-.324.012-.648 0-.97 0l-.078-.132zM76.95 3.006c-.14.427-.229.75-.35 1.06-.293.756-.606 1.51-.913 2.262-.24.586-.52 1.156-.71 1.758-.09.294-.44.56-.205.931h4.582c-.587-1.971-1.528-3.742-2.11-5.638-.03-.115-.153-.2-.294-.373zm-6.596-1.76v1.243h-5.833V6.67c.18.012.336.032.49.032h3.847c.473 0 .485.014.485.5v.632h-4.806v4.397h5.832c.014.376.008.753-.017 1.129-.01.07-.248.16-.382.162-1.44.012-2.881.008-4.32.008-.77 0-1.54-.012-2.308 0-.328.007-.426-.13-.426-.44V1.575c0-.243.063-.392.347-.39h6.811c.095.014.188.035.28.06zm-51.62 5.453h4.723l.076 1.142h-4.786v4.397h5.85c.014.374.008.749-.018 1.123-.008.07-.244.165-.376.167-1.208.013-2.417.007-3.625.007-1 0-2-.009-3.002 0-.316 0-.44-.111-.44-.424V1.601c0-.265.077-.409.375-.407h6.77c.1.008.197.023.294.044v1.24h-5.84v4.221zm7.132-5.466c.19-.014.333-.035.476-.035h6.555c.511 0 .535.027.534.538v.293c.036.356-.135.47-.474.47-1.672-.01-3.345 0-5.017 0-.167 0-.334.02-.532.033-.016.161-.038.293-.04.42 0 1.096.01 2.198-.007 3.288 0 .35.123.475.47.472 1.32-.012 2.639 0 3.958 0h.454v1.12c-.155.009-.293.022-.44.023h-3.919c-.44 0-.514.068-.514.506v3.399c0 .12.013.24.023.418.186.039.374.065.563.077h4.984c.47 0 .496.03.495.499 0 .782 0 .782-.783.782h-6.298c-.486 0-.508-.017-.508-.482V1.688c-.005-.138.01-.27.02-.455zm64.216 2.158a5.426 5.426 0 0 1-.77-.397c-.72-.53-1.513-.79-2.4-.671-1.077.146-1.894.835-1.974 1.905-.055.765.546 1.376 1.113 1.644.645.305 1.334.515 1.993.79.612.239 1.21.514 1.788.824a1.98 1.98 0 0 1 .991 1.505c.034.238.156.467.167.703.078 1.514-.966 3.086-2.383 3.623-.953.36-1.955.335-2.918.19a4.616 4.616 0 0 1-2.558-1.294c-.158-.155-.189-.255-.011-.407.083-.088.154-.187.21-.294.237-.357.522-.42.88-.178.58.427 1.226.755 1.913.971.944.267 2.345-.093 2.938-.926.502-.7.609-1.466.198-2.235a1.567 1.567 0 0 0-.652-.646c-.557-.269-1.162-.44-1.737-.672-.772-.312-1.62-.461-2.278-1.026-.656-.564-1.08-1.194-1.025-2.088.022-.364-.063-.755.04-1.09.14-.452.36-.877.647-1.254.803-1.026 1.93-1.306 3.19-1.277.923.02 1.786.187 2.582.678.621.382.69.573.324 1.194-.068.114-.134.214-.268.428zM6.901 6.933V8.13c-.222-.01-.412-.026-.602-.026H2.49c-.587 0-.67.083-.67.677v4.543H.206V1.745c0-.557 0-.568.575-.568h6.554c.519 0 .538.022.535.533 0 .69 0 .69-.708.69h-4.65c-.233.02-.463.058-.69.116V6.374c0 .488.05.54.55.54H6.44c.142-.002.286.01.463.019zm33.15 6.365h-1.634V2.513h-3.906V1.205h9.527v1.273h-3.924a4.48 4.48 0 0 0-.111.667c-.006 3.154-.006 6.308 0 9.463-.002.215.029.43.048.69zm6.028-7.156l-.04-.2c-.633-.164-.9-.664-1.154-1.172-.205-.408-.224-.85-.227-1.303A2.14 2.14 0 0 1 45.7 1.57a3.65 3.65 0 0 1 2.955-.479c.377.09.733.147 1.026.427.047.046.158.026.255.038.026-.147.051-.274.075-.403l.093.008v2.33l-.073.023a5.652 5.652 0 0 1-.227-.743c-.098-.587-.485-.93-.954-1.207-.502-.293-1.073-.293-1.595-.186a1.986 1.986 0 0 0-1.454 1.193c-.18.435-.234.912-.155 1.377.095.806.476 1.484 1.2 1.887.323.18.733.21 1.173.33-.09.06-.185.11-.286.147-.344.06-.698.082-1.036.165a2.24 2.24 0 0 0-1.416 1.085 4.642 4.642 0 0 0-.601 2.471c.048 1.291.586 2.345 1.778 2.902.74.36 1.578.473 2.387.321.6-.113 1.173-.233 1.677-.56a2.665 2.665 0 0 0 1.27-1.945c.146-1.081-.18-1.928-1.062-2.557a1.73 1.73 0 0 0-2.214.129c-.17.168-.236.45-.327.687a1.378 1.378 0 0 0-.041.35l-.126.053c-.07-.116-.203-.234-.195-.346.047-.778.245-1.493 1.064-1.813.415-.17.846-.297 1.287-.38.621-.105 1.256-.131 1.883-.203.99-.112 1.435-.545 1.627-1.563a.668.668 0 0 1 .09-.172l.12.008c0 .412-.02.827 0 1.239.04.68-.35 1.123-.88 1.397-.365.19-.83.202-1.253.268a4.165 4.165 0 0 1-.635 0l-.035.101c.148.139.287.285.418.44a3.16 3.16 0 0 1 .648 1.889c.044 1.307-.57 2.222-1.633 2.855-.4.239-.915.277-1.353.462-.72.305-1.474.27-2.198.154-1.25-.2-2.435-.604-3.19-1.746-.293-.44-.548-.888-.538-1.44.01-.55-.086-1.122.05-1.636.24-.91.714-1.726 1.558-2.234.398-.205.806-.39 1.223-.551zm-35.432 6.102h5.3c.015.353.01.707-.017 1.06-.01.087-.215.213-.335.216-.683.02-1.366.01-2.052.01H9.482c-.406 0-.526-.121-.526-.517V1.72c0-.095.012-.19.02-.32h1.557V11.66c.021.198.06.393.115.585zm44.1-10.856h1.465c.009.189.025.356.025.521v9.755c0 .516.038.56.564.561h4.355c.167 0 .335.019.555.03 0 .366.013.701 0 1.037-.015.262-.235.235-.416.235h-6.228c-.243 0-.356-.085-.356-.34V1.569c.008-.06.02-.121.035-.181zm37.433.005h1.523c.008.147.022.271.022.4 0 3.763.002 7.525.007 11.286 0 .328-.098.475-.44.451-.28-.019-.567.028-.84-.019-.117-.02-.293-.199-.293-.306 0-1.776.018-3.554.024-5.33V2.355l-.003-.963z" fill="#3A3A3A"/></svg>