<svg width="92" height="19" fill="none" xmlns="http://www.w3.org/2000/svg"><path d="M20.232 2.738H36.89c.529 0 .76.146.865.539.118.428-.108.807-.542.885-.196.029-.394.04-.592.032H4.046c-.614 0-1.166.107-1.625.55a2.003 2.003 0 0 0-.635 1.439c-.018.779 0 1.559-.01 2.338 0 .23.088.284.297.281.72-.01 1.44-.007 2.16 0 .536 0 .828.483.6.967a.474.474 0 0 1-.467.295c-.738-.007-1.48.01-2.218 0-.284-.006-.374.089-.373.372.008 2.249 0 4.498.01 6.747 0 .328-.073.584-.389.72-.37.16-.747.154-1.045-.118-.118-.112-.17-.35-.172-.53a2183.5 2183.5 0 0 1-.007-9.647v-1.42c.026-1.477 1.102-2.91 2.522-3.306a4.406 4.406 0 0 1 1.17-.125c5.455-.017 10.911-.023 16.368-.02z" fill="#737373"/><path d="M61.783 10.08c.678-1.027 1.595-1.485 2.741-1.373 1.184.118 2.037.786 2.621 1.811.33.597.496 1.27.483 1.952v4.735c0 .542-.263.721-.797.75-.534.03-.815-.251-.816-.767v-4.706c0-.947-.434-1.64-1.259-2.096-1.073-.592-2.334 0-2.75.987a2.84 2.84 0 0 0-.23 1.038c-.025 1.608-.011 3.215-.012 4.823 0 .445-.302.723-.8.72-.463 0-.804-.259-.802-.717.012-4.39.014-8.78.007-13.169 0-.625.567-.981 1.153-.726a.665.665 0 0 1 .45.69c-.015 1.883-.008 3.767-.007 5.652-.001.113.01.226.018.396zm25.757 3.784c-.681 0-1.362.007-2.042 0-.246 0-.328.092-.33.33-.02 1.557.908 2.421 2.477 2.559.806.07 1.521-.18 2.186-.619.229-.15.48-.202.719 0 .238.203.4.457.273.723a1.598 1.598 0 0 1-.602.673 4.818 4.818 0 0 1-3.114.545c-.866-.119-1.657-.402-2.316-.976-.632-.547-1.075-1.223-1.13-2.074-.063-.96-.143-1.928-.076-2.884.118-1.658 1.337-3.053 3.102-3.362 1.462-.256 2.697.17 3.636 1.311a3.179 3.179 0 0 1 .64 2.96.931.931 0 0 1-.884.745c-.845.053-1.692.073-2.538.107l-.001-.038zm-.356-1.097c.562 0 1.124-.01 1.686 0 .668.015.774-.462.665-.916-.011-.048-.038-.092-.046-.139-.28-1.503-1.914-2.13-3.203-1.449-.996.526-1.174 1.463-1.11 2.36 0 .053.152.133.237.136.587.014 1.178.007 1.77.007h.001zm-31.849 1.097c-.69 0-1.381.008-2.071 0-.222 0-.274.07-.288.287-.105 1.679 1.076 2.494 2.431 2.605a3.21 3.21 0 0 0 2.038-.512c.542-.344.71-.329 1.043.06.266.31.248.525-.02.842-.356.416-.83.611-1.328.766-.86.27-1.775.307-2.653.108-1.687-.379-3.108-1.585-3.096-3.598 0-.65.024-1.302 0-1.953-.073-1.671 1.057-3.039 2.486-3.551 1.691-.609 3.607.016 4.511 1.539.465.783.631 1.629.413 2.52-.1.415-.4.77-.888.804-.854.059-1.712.077-2.568.112l-.01-.03zm-2.33-1.114c.081.006.158.015.237.015h3.368c.615 0 .78-.201.719-.745a3.075 3.075 0 0 0-.11-.537c-.423-1.462-2.142-1.848-3.252-1.153-.91.57-1.074 1.43-.961 2.42z" fill="#3A3A3A"/><path d="M39.006 13.87c-.68 0-1.361.007-2.04 0-.23 0-.295.072-.31.304-.104 1.657 1.073 2.457 2.412 2.572a3.165 3.165 0 0 0 1.977-.464c.113-.073.232-.14.355-.197a.572.572 0 0 1 .76.195c.224.295.238.565.008.836-.355.424-.829.632-1.34.792a5.108 5.108 0 0 1-2.71.1c-1.23-.28-2.224-.92-2.762-2.102a3.497 3.497 0 0 1-.279-1.217c-.045-.756-.016-1.518-.018-2.276 0-1.594.789-2.693 2.18-3.359 1.96-.937 4.317-.023 5.076 1.942.263.633.313 1.335.14 1.999-.125.46-.427.77-.913.801-.844.057-1.692.076-2.538.11l.002-.036zm-2.297-1.105h1.283c.808 0 1.617 0 2.425-.006.426 0 .604-.18.592-.591a2.987 2.987 0 0 0-.134-.778c-.337-1.043-1.673-1.687-2.697-1.316-1.172.417-1.725 1.418-1.47 2.691zm-8.818-.721c0 .76.009 1.52 0 2.278a3.811 3.811 0 0 1-2.84 3.67c-2.178.617-4.38-.953-4.694-3.002a6.113 6.113 0 0 1-.076-.88c-.008-1.5 0-2.999 0-4.499 0-.418.14-.63.486-.75.384-.133.814-.04 1.012.266.081.154.12.328.11.502.009 1.55 0 3.098.008 4.646 0 .958.424 1.69 1.26 2.14 1.086.58 2.476.031 2.908-1.144.132-.359.203-.736.21-1.118.024-1.53.009-3.057.011-4.587 0-.498.277-.762.79-.766.515-.003.815.282.816.785v2.459zm-14.705.117v2.22c.008 1.493-.721 2.567-1.976 3.27-1.993 1.116-4.531.15-5.327-2.003a3.699 3.699 0 0 1-.228-1.197c-.025-1.648-.012-3.294-.01-4.942 0-.433.31-.71.787-.71.455 0 .81.31.81.71v4.942c.006 1.209 1.09 2.24 2.293 2.195.797-.03 1.678-.699 1.91-1.482.081-.271.124-.553.126-.836.012-1.58.006-3.157.007-4.735 0-.383.148-.61.474-.727.393-.143.82-.07 1.027.212.07.116.103.25.097.384.013.904.01 1.801.01 2.699z" fill="#737373"/><path d="M46.928 15.497c.188-.49.38-.979.562-1.471.369-.998.732-1.998 1.103-2.996.236-.645.489-1.288.73-1.932.088-.237.27-.367.498-.308.3.073.586.191.85.35.237.144.191.425.107.644-.395 1.035-.809 2.064-1.216 3.095l-1.42 3.6c-.141.355-.28.71-.407 1.077-.167.466-.661.692-1.163.551-.311-.088-.439-.314-.542-.582l-1.065-2.753c-.474-1.211-.955-2.42-1.43-3.631-.167-.432-.322-.87-.492-1.302-.182-.474-.118-.69.306-.91a1.42 1.42 0 0 1 .535-.144c.407-.028.504.06.643.42.364.94.693 1.893 1.042 2.84.427 1.152.861 2.303 1.292 3.453h.067zm25.392-2.089c.051-.635.06-1.277.159-1.906.176-1.124.767-1.997 1.834-2.433 1.44-.592 2.88-.572 4.236.277.438.273.585.65.336 1.08-.248.431-.516.51-.917.243a2.948 2.948 0 0 0-1.894-.516c-.904.061-1.617.418-1.954 1.302-.093.26-.142.532-.145.807-.019.75-.032 1.5 0 2.25.056 1.316.761 2.038 2.118 2.14.759.059 1.413-.194 2.043-.583.393-.236.912.058.972.522.053.406-.17.656-.474.855-.924.612-1.952.75-3.029.637-.734-.077-1.42-.295-2.005-.766a3.258 3.258 0 0 1-1.009-1.49c-.286-.785-.212-1.603-.27-2.419z" fill="#3A3A3A"/><path d="M14.888 10.906V6.349c0-.473.294-.743.785-.74.514 0 .811.279.811.758 0 .721.007 1.44 0 2.16 0 .208.064.275.27.273.662-.01 1.322-.007 1.983 0a.65.65 0 0 1 .556.993.473.473 0 0 1-.45.268c-.691-.012-1.382 0-2.072-.009-.224 0-.287.072-.286.289.007 1.628 0 3.255.007 4.883 0 .933.499 1.249 1.255 1.308.294.023.592.007.887.013.401.01.682.251.71.606.034.455-.163.759-.599.787-.963.062-1.927.064-2.789-.481a2.013 2.013 0 0 1-.947-1.389 6.781 6.781 0 0 1-.118-1.135c-.014-1.339-.003-2.685-.003-4.027z" fill="#737373"/><path d="M81.963 10.616v6.568c0 .516-.279.782-.804.772-.507-.01-.798-.296-.8-.788 0-4.37-.001-8.74-.005-13.108 0-.395.175-.624.512-.743.337-.12.876.027 1.018.278a.96.96 0 0 1 .076.453c.005 2.189.006 4.378.003 6.568z" fill="#3A3A3A"/><path d="M31.096 10.086c.401-.465.811-.873 1.353-1.135.602-.293 1.24-.307 1.879-.248.355.033.551.404.516.843a.646.646 0 0 1-.638.606c-.48.01-.967-.044-1.42.168-1 .46-1.54 1.263-1.57 2.336a62.102 62.102 0 0 0 0 4.38c.022.674-.525 1.065-1.138.883-.281-.084-.464-.245-.497-.547a2.714 2.714 0 0 1-.017-.295V9.65c0-.692.474-1.014 1.125-.781a.553.553 0 0 1 .417.572c-.013.213-.01.428-.01.645z" fill="#737373"/><path d="M69.27 13.356V9.512c0-.474.26-.705.769-.71.509-.007.829.272.829.71v7.718c0 .432-.337.74-.817.722-.44-.016-.802-.204-.791-.727.026-1.288.01-2.58.01-3.869z" fill="#3A3A3A"/><path d="M40.446 6.776c-.355-.016-.53-.227-.644-.487-.13-.293.057-.512.236-.702.474-.5.948-1.012 1.47-1.47.448-.397.428-.884 0-1.278-.521-.473-1.011-.984-1.497-1.494-.19-.197-.347-.43-.176-.737.145-.265.347-.437.654-.377.16.036.308.115.425.23.85.841 1.694 1.69 2.53 2.547.294.301.294.668 0 .971-.843.859-1.693 1.71-2.55 2.552-.123.114-.3.166-.448.245z" fill="#737373"/><path d="M37.532 6.774a.647.647 0 0 1-.582-.395.61.61 0 0 1 .118-.71l1.608-1.635c.407-.417.407-.682 0-1.108-.52-.535-1.052-1.066-1.569-1.598-.347-.362-.269-.829.159-1.051.236-.127.508-.07.764.185.653.65 1.303 1.303 1.95 1.96.193.196.393.384.578.587.29.316.31.61.017.915-.852.884-1.714 1.758-2.587 2.62-.116.115-.303.156-.456.23zM69.796.784c1.572 0 2.76.355 3.758 1.237.307.273.346.544.131.793-.142.166-.492.245-.79-.017-1.023-.9-2.257-1.101-3.552-.955a3.892 3.892 0 0 0-2.193.965c-.263.237-.566.226-.76.009-.216-.237-.195-.51.092-.766A4.915 4.915 0 0 1 69.796.784zm.251 6.979a1.616 1.616 0 0 1-1.648-1.61 1.658 1.658 0 0 1 1.624-1.637c.955-.025 1.658.818 1.658 1.629-.016.861-.722 1.66-1.634 1.618zM69.5 6.159c0 .337.224.566.541.56a.558.558 0 0 0 .546-.576.54.54 0 0 0-.56-.556c-.335.004-.534.223-.53.572h.003z" fill="#737373"/><path d="M70.09 2.5c.878.034 1.723.262 2.416.905.251.237.295.561.105.772-.212.237-.49.23-.782 0a2.733 2.733 0 0 0-2.476-.553c-.42.092-.808.287-1.133.568-.26.226-.567.217-.763 0a.544.544 0 0 1 .08-.763c.71-.66 1.565-.907 2.553-.93z" fill="#737373"/></svg>