<svg width="90" height="16" fill="none" xmlns="http://www.w3.org/2000/svg"><path d="M89.534 11.945v-1.279a7.737 7.737 0 0 0-1.295-.205V6.437c0-1.374-.568-2.495-2.336-2.495-1.28 0-2.194.648-2.668 1.563h-.016c.08-.426.11-1.057.11-1.42a22.617 22.617 0 0 0-3.282.142V5.49c.458.031.995.094 1.373.157v4.814a9.036 9.036 0 0 0-1.373.206v1.279h4.546V10.65a6.76 6.76 0 0 0-1.153-.19V8.157c0-1.373.806-2.526 1.832-2.526.741 0 .962.49.962 1.294v5.02h3.3zm-9.883 0v-1.279a7.8 7.8 0 0 0-1.278-.205V4.084a23.483 23.483 0 0 0-3.394.142V5.49c.458.032.994.095 1.374.158v4.814a9.03 9.03 0 0 0-1.374.205v1.28h4.672zM78.625 1.717c0-.695-.568-1.231-1.263-1.231-.678 0-1.247.552-1.247 1.23 0 .68.568 1.216 1.247 1.216.695 0 1.263-.552 1.263-1.215zm-4.19 10.228V9.341h-1.31c-.08.347-.127.679-.158.994h-.805c-.458 0-1.073 0-1.405.016l3.582-4.767V4.1h-5.855V6.58h1.326c.063-.348.11-.632.157-.963h.71c.49 0 1.105-.016 1.405-.032l-3.646 4.877v1.484h5.998zm-9.802-3.268c0 .963-.68 1.895-1.673 1.895-.584 0-.931-.38-.931-.9 0-.806.789-1.184 2.604-1.184v.19zm3.314 3.158v-1.279c-.41-.032-.915-.095-1.294-.158v-3.74c0-1.721-.71-2.732-3.267-2.732-.979 0-1.91.158-2.732.395v2.305h1.279c.064-.348.126-.71.158-1.026.331-.095.726-.142 1.105-.142 1.104 0 1.436.426 1.436 1.263v.473c-2.667.016-4.53.9-4.53 2.778 0 1.263.82 2.13 2.241 2.13 1.17 0 2.13-.615 2.51-1.499l.016.016a9.06 9.06 0 0 0-.078 1.341 22.734 22.734 0 0 0 3.156-.125zM57.87 13.05c0 .741-.694 1.31-2.004 1.31-1.01 0-1.674-.442-1.674-1.168 0-.442.27-.868.726-1.2h.364l1.358.048c.868.032 1.23.442 1.23 1.01zm-.663-6.266c0 .836-.537 1.34-1.42 1.34-.947 0-1.452-.52-1.452-1.356 0-.79.536-1.374 1.452-1.374.931 0 1.42.553 1.42 1.39zm2.667 5.998c0-1.516-.977-2.242-2.667-2.305l-1.215-.047c-.916-.032-1.216-.127-1.216-.49 0-.189.126-.394.379-.505.22.048.395.063.616.063 2.241 0 3.361-1.152 3.361-2.825 0-.41-.141-.758-.394-.995h1.073V4.1h-2.667a4.64 4.64 0 0 0-1.279-.173c-2.289 0-3.456 1.389-3.456 2.967 0 1.026.442 1.752 1.167 2.147-.536.237-.93.79-.93 1.405 0 .537.299.979.772 1.2-.646.346-1.215 1.104-1.215 1.925 0 1.53 1.279 2.336 3.362 2.336 2.605 0 4.31-1.437 4.31-3.125zM48.67 8.677c0 .963-.679 1.895-1.673 1.895-.584 0-.931-.38-.931-.9 0-.806.79-1.184 2.604-1.184v.19zm3.315 3.158v-1.279c-.41-.032-.915-.095-1.294-.158v-3.74c0-1.721-.71-2.732-3.267-2.732-.98 0-1.91.158-2.732.395v2.305h1.279c.063-.348.126-.71.158-1.026a4.151 4.151 0 0 1 1.104-.142c1.105 0 1.437.426 1.437 1.263v.473c-2.668.016-4.53.9-4.53 2.778 0 1.263.821 2.13 2.241 2.13 1.168 0 2.13-.615 2.51-1.499l.016.016c-.064.41-.08.884-.08 1.341a22.746 22.746 0 0 0 3.158-.125zm-8.344.11v-1.279a7.518 7.518 0 0 0-1.278-.205V6.547c0-1.768-.837-2.605-2.352-2.605a2.795 2.795 0 0 0-2.557 1.563c-.19-.758-.774-1.563-2.162-1.563-1.168 0-2.116.616-2.589 1.579l-.016-.016c.063-.442.095-1.058.095-1.42a22.71 22.71 0 0 0-3.283.141V5.49c.457.032.994.095 1.373.158v4.814a9.005 9.005 0 0 0-1.373.205v1.28h4.545V10.65a6.746 6.746 0 0 0-1.152-.19V8.189c0-1.468.869-2.558 1.8-2.558.773 0 .931.568.931 1.342v4.972h3.141v-1.294a6.51 6.51 0 0 0-1.152-.19V8.189c0-1.532.915-2.558 1.8-2.558.742 0 .93.521.93 1.357v4.957h3.3zm-14.687 0V9.341h-1.31a8.186 8.186 0 0 0-.158.994h-.805c-.458 0-1.073 0-1.405.016l3.584-4.767V4.1h-5.857V6.58h1.327c.062-.348.11-.632.157-.963h.71c.49 0 1.106-.016 1.405-.032l-3.646 4.877v1.484h5.998zm-6.566 0v-1.279a7.52 7.52 0 0 0-1.278-.205V.407a23.42 23.42 0 0 0-3.394.142V1.81c.458.032.995.095 1.373.158v8.492a9.036 9.036 0 0 0-1.373.205v1.28h4.672zM15.68 7.983c0 1.595-.758 2.4-1.752 2.4-1.168 0-1.752-.821-1.752-2.431s.884-2.305 1.784-2.305c1.184 0 1.72.821 1.72 2.336zm2.084-.11c0-2.7-1.436-3.931-3.662-3.931-2.384 0-4.01 1.768-4.01 4.214 0 2.794 1.437 3.946 3.662 3.946 2.352 0 4.01-1.768 4.01-4.23zM9.87 11.945v-1.279a8.279 8.279 0 0 0-1.294-.205V6.437c0-1.374-.569-2.495-2.336-2.495-1.216 0-2.115.584-2.573 1.452h-.032c.11-.473.143-1.12.143-1.594V.407A23.42 23.42 0 0 0 .384.548v1.263c.458.032.994.095 1.373.158v8.492a9.02 9.02 0 0 0-1.373.205v1.279H4.93v-1.294a7.024 7.024 0 0 0-1.152-.19V8.173c0-1.39.805-2.542 1.815-2.542.757 0 .978.49.978 1.294v5.02h3.3z" fill="#3A3A3A"/></svg>