<svg width="75" height="39" fill="none" xmlns="http://www.w3.org/2000/svg"><path d="M31.495 23.162c.43 0 .77-.086 1.02-.258.252-.173.378-.483.378-.932 0-.483-.175-.812-.526-.988-.188-.092-.438-.138-.752-.138h-2.242v2.316h2.122zm-3.04-3.105h3.137c.517 0 .943.075 1.278.226.636.29.955.823.955 1.601 0 .406-.085.738-.254.997-.166.258-.4.465-.701.622.264.108.463.25.595.425.135.175.21.46.226.853l.032.91c.01.257.031.45.065.576.055.215.154.354.295.415v.152h-1.126a.85.85 0 0 1-.073-.226 4.333 4.333 0 0 1-.047-.535l-.055-1.13c-.021-.443-.186-.74-.493-.89-.176-.084-.451-.125-.826-.125h-2.09v2.906h-.918v-6.777zm10.195 4l-1.028-2.994-1.094 2.994h2.122zm-1.508-4h1.038l2.459 6.777h-1.006l-.687-2.03h-2.68l-.734 2.03h-.941l2.55-6.777zm7.188-.184c.858 0 1.523.226 1.997.678.474.452.737.966.789 1.54h-.895c-.101-.436-.304-.782-.609-1.037-.301-.256-.726-.383-1.273-.383-.668 0-1.207.235-1.62.706-.409.467-.613 1.185-.613 2.154 0 .794.184 1.438.553 1.933.373.492.926.738 1.661.738.677 0 1.192-.26 1.546-.78.187-.273.327-.633.42-1.079h.895c-.08.713-.345 1.312-.794 1.795-.538.58-1.264.871-2.177.871-.788 0-1.45-.238-1.984-.715-.704-.63-1.057-1.604-1.057-2.92 0-1 .265-1.82.794-2.459.572-.695 1.36-1.042 2.367-1.042zM28.432 31.08h4.7v.83H29.35v2.058h3.326v.807H29.35v3.082h-.918V31.08zm7.538 6.242c.55 0 .927-.208 1.13-.623a3.11 3.11 0 0 0 .31-1.393c0-.461-.074-.837-.222-1.126-.234-.455-.637-.682-1.209-.682-.507 0-.876.193-1.107.58-.23.388-.346.856-.346 1.403 0 .526.115.965.346 1.315.23.35.597.526 1.098.526zm.032-4.549c.637 0 1.175.212 1.615.637.44.424.66 1.049.66 1.873 0 .797-.194 1.455-.582 1.974-.387.52-.988.78-1.803.78-.68 0-1.22-.229-1.62-.687-.4-.462-.6-1.08-.6-1.855 0-.83.211-1.491.633-1.984.42-.492.987-.738 1.697-.738zm4.097.143v3.28c0 .253.04.459.12.619.148.295.423.443.826.443.578 0 .972-.259 1.18-.776.115-.276.172-.656.172-1.14v-2.426h.83v4.941h-.784l.009-.729a1.675 1.675 0 0 1-.401.475c-.317.259-.702.388-1.154.388-.704 0-1.184-.235-1.44-.706-.138-.252-.207-.589-.207-1.01v-3.359h.849zm4.429 0h.789v.702c.233-.29.481-.497.742-.623.262-.126.553-.19.873-.19.7 0 1.174.245 1.42.734.136.268.203.65.203 1.149v3.17h-.844v-3.115c0-.301-.044-.544-.134-.729-.147-.307-.415-.461-.802-.461-.197 0-.359.02-.485.06a1.247 1.247 0 0 0-.6.406c-.138.163-.229.332-.272.507-.04.173-.06.42-.06.743v2.588h-.83v-4.94zm5.785 2.528c0 .53.112.972.337 1.33.224.356.584.534 1.08.534.384 0 .7-.164.945-.493.25-.333.374-.808.374-1.426 0-.624-.128-1.086-.383-1.384-.255-.301-.57-.452-.946-.452-.418 0-.758.16-1.02.48-.258.32-.387.79-.387 1.411zm1.25-2.615c.379 0 .695.08.95.24.148.092.316.253.504.484v-2.496h.798v6.8h-.748v-.687c-.193.304-.423.524-.687.66a1.968 1.968 0 0 1-.909.203c-.55 0-1.027-.231-1.43-.693-.403-.464-.604-1.08-.604-1.85 0-.72.183-1.342.549-1.868.369-.529.895-.793 1.577-.793zm4.12 3.713c0 .24.088.43.263.568a.975.975 0 0 0 .623.208c.292 0 .575-.068.849-.203.461-.225.692-.593.692-1.103v-.67a1.422 1.422 0 0 1-.392.162c-.16.043-.317.074-.47.093l-.504.064c-.301.04-.527.103-.678.19-.255.144-.383.375-.383.691zm2.012-1.679c.19-.024.318-.104.383-.24a.73.73 0 0 0 .055-.318c0-.283-.102-.488-.305-.614-.2-.129-.487-.194-.862-.194-.434 0-.742.117-.923.351-.102.13-.168.322-.198.577h-.775c.015-.61.212-1.032.59-1.269.382-.24.823-.36 1.324-.36.581 0 1.053.111 1.416.333.36.22.54.565.54 1.033v2.846c0 .086.017.156.051.208.037.052.112.078.226.078.037 0 .078-.001.125-.004.046-.006.095-.014.147-.023v.613c-.129.037-.227.06-.295.07-.068.009-.16.013-.277.013-.286 0-.494-.101-.623-.304a1.175 1.175 0 0 1-.143-.457c-.169.222-.412.414-.729.577a2.255 2.255 0 0 1-1.047.244c-.458 0-.833-.138-1.126-.415a1.398 1.398 0 0 1-.433-1.047c0-.458.143-.814.429-1.066.286-.252.661-.407 1.126-.466l1.324-.166zm2.777-3.326h.84v1.38h.788v.677h-.788v3.225c0 .172.058.288.175.346.064.034.172.051.323.051h.129l.161-.014v.655a1.846 1.846 0 0 1-.3.06 2.772 2.772 0 0 1-.332.019c-.387 0-.65-.099-.789-.296-.138-.2-.207-.458-.207-.775v-3.27h-.67v-.679h.67v-1.38zm2.463 1.402h.845v4.918h-.845V32.94zm0-1.859h.845v.941h-.845v-.94zM67 37.322c.55 0 .927-.208 1.13-.623a3.11 3.11 0 0 0 .31-1.393c0-.461-.075-.837-.222-1.126-.234-.455-.637-.682-1.209-.682-.507 0-.876.193-1.107.58-.23.388-.346.856-.346 1.403 0 .526.115.965.346 1.315.23.35.597.526 1.098.526zm.032-4.549c.637 0 1.175.212 1.615.637.44.424.66 1.049.66 1.873 0 .797-.194 1.455-.582 1.974-.387.52-.988.78-1.803.78-.68 0-1.22-.229-1.62-.687-.4-.462-.6-1.08-.6-1.855 0-.83.211-1.491.632-1.984.422-.492.988-.738 1.698-.738zm3.267.143h.788v.702c.234-.29.482-.497.743-.623a1.98 1.98 0 0 1 .872-.19c.701 0 1.175.245 1.421.734.135.268.203.65.203 1.149v3.17h-.844v-3.115c0-.301-.045-.544-.134-.729-.148-.307-.415-.461-.803-.461-.197 0-.358.02-.484.06a1.247 1.247 0 0 0-.6.406c-.138.163-.23.332-.272.507-.04.173-.06.42-.06.743v2.588h-.83v-4.94zM22.899.197v5.635c-.21.014-.38.03-.539.038-2.157.105-4.35.081-6.497.348-2.147.267-4.046 1.315-5.616 2.862a11.934 11.934 0 0 0-3.617 7.29 36.546 36.546 0 0 0-.23 3.602c-.04 2.286-.018 4.582-.024 6.859v1.188l.187.03a5.74 5.74 0 0 0 .318-.954 13.359 13.359 0 0 1 4.814-8.505c1.54-1.288 3.353-2.032 5.303-2.528 1.95-.496 3.879-.539 5.9-.488v5.773h-.713c-2.2.072-4.337.374-6.26 1.59-1.573.991-2.625 2.352-2.967 4.169a25.352 25.352 0 0 0-.459 3.9c-.073 2.303-.019 4.613-.019 6.976H.073v-.67c0-5.806-.022-11.613.013-17.418 0-1.557 0-3.15.319-4.665C1.683 8.967 4.788 4.013 10.924 1.44A15.176 15.176 0 0 1 17.071.19c1.912.033 3.838.008 5.829.008z" fill="#3A3A3A"/></svg>