<svg width="109" height="30" fill="none" xmlns="http://www.w3.org/2000/svg"><path d="M.587 17.83v-5.524c.182-.017.35-.043.523-.043h2.317c.847 0 .695-.037.854-.662a14.024 14.024 0 0 1 5.656-8.185 13.616 13.616 0 0 1 6.196-2.403 14.13 14.13 0 0 1 15.556 10.565c0 .033 0 .066.02.099.142.569.142.569.718.569h2.37c.162 0 .33 0 .47.02.122.394.155 4.812.043 5.5-.159 0-.331.044-.503.047h-2.37c-.586 0-.59 0-.725.57a14.12 14.12 0 0 1-11.435 10.59A14.113 14.113 0 0 1 4.304 18.536c-.182-.715-.179-.719-.904-.719H.587v.014zm8.725 0c.036.97 1.095 2.74 2.28 3.879a8.977 8.977 0 0 0 6.289 2.581 9.102 9.102 0 0 0 6.42-2.475c.934-.848 2.298-2.784 2.387-3.91a1.488 1.488 0 0 0-.331-.072L9.312 17.83zm-.087-5.647c.686.123 17.086.093 17.446 0 0-.748-.973-2.462-2.052-3.561a9.221 9.221 0 0 0-12.908-.351 8.738 8.738 0 0 0-2.486 3.915v-.003zm67.64-6.226l.142.45c.097-.038.19-.084.278-.139 1.205-.94 3.058-.427 3.869.758a3.798 3.798 0 0 1 .576 2.873c-.082.45-.237.884-.46 1.284-.705 1.28-2.506 1.715-3.71 1.182l-.527-.232v2.436c0 .364-.036.404-.394.404-1.194 0-1.019.122-1.022-.963V6.728v-.443c0-.232.119-.331.33-.331.289.003.587.003.917.003zm.168 3.27v1.082c0 .722.096.84.798.993.109.03.22.05.33.063 1.027.063 1.88-.394 2.096-1.496.032-.144.05-.29.056-.437.043-2.022-1.367-2.595-2.836-2.121-.41.132-.447.215-.45.662-.004.446-.007.817-.007 1.244l.013.01zm14.272 17.171c-.345.196-.706.36-1.08.494a2.94 2.94 0 0 1-3.346-1.639 4.094 4.094 0 0 1 0-3.395c.662-1.543 2.74-2.132 4.002-1.324.106.057.217.106.33.145.032-.182.054-.365.067-.55v-1.873c0-.417.043-.46.447-.46 1.03 0 .93-.096.933.917v7.596c0 .467-.033.487-.52.493h-.244c-.305.06-.533-.036-.59-.404zm0-2.78v-1.324a.57.57 0 0 0-.404-.602 2.552 2.552 0 0 0-1.205-.195 1.761 1.761 0 0 0-1.655 1.443c-.036.226-.05.456-.04.685 0 1.757 1.553 2.376 2.84 1.89a.606.606 0 0 0 .467-.662c-.033-.414-.017-.824-.017-1.235h.014zM50.789 20.19c1.794.04 3.383 1.324 3.4 3.383a3.31 3.31 0 0 1-3.396 3.422 3.352 3.352 0 0 1-3.386-3.412 3.413 3.413 0 0 1 3.382-3.393zm-1.913 3.386a1.915 1.915 0 1 0 3.83.02 1.916 1.916 0 1 0-3.83-.02zm28.688-.006a3.38 3.38 0 1 1-3.372-3.38 3.33 3.33 0 0 1 3.372 3.38zm-1.446 0a1.964 1.964 0 0 0-1.94-1.986 2.006 2.006 0 1 0 1.94 1.986zm24.928.035a3.285 3.285 0 0 1-.969 2.414 3.29 3.29 0 0 1-2.42.956 3.332 3.332 0 0 1-3.376-3.446 3.372 3.372 0 0 1 3.436-3.34 3.335 3.335 0 0 1 3.329 3.416zm-5.272-.016a1.903 1.903 0 0 0 1.926 1.986 1.966 1.966 0 0 0 1.917-1.986 1.986 1.986 0 0 0-1.927-2.026 1.94 1.94 0 0 0-1.916 2.026zM89.677 9.207a3.325 3.325 0 0 1-3.363 3.37 3.369 3.369 0 0 1-3.402-3.426 3.416 3.416 0 0 1 3.372-3.373 3.352 3.352 0 0 1 3.393 3.429zm-1.43-.04a1.94 1.94 0 0 0-1.93-1.96 1.913 1.913 0 0 0-1.936 1.987 1.936 1.936 0 0 0 1.923 1.97 1.986 1.986 0 0 0 1.943-1.997zM58.5 12.401l-.215-.486-.473.255a3.092 3.092 0 0 1-2.042.33 1.88 1.88 0 0 1-1.04-3.058c.3-.376.7-.659 1.156-.814.54-.179 1.105-.294 1.654-.427.219-.053.447-.076.662-.112a.89.89 0 0 0-.661-1.036 2.933 2.933 0 0 0-1.745.063c-.291.086-.579.188-.903.294a2.623 2.623 0 0 1 .205-1.135.49.49 0 0 1 .301-.225 4.8 4.8 0 0 1 2.618-.196c.834.206 1.625.705 1.655 1.93.02 1.397.02 2.794 0 4.194 0 .357-.053.397-.4.41-.249.023-.51.013-.772.013zm-.274-3.273c-.788.063-1.513.189-2.129.682a.843.843 0 0 0-.155.185.867.867 0 0 0 .692 1.387 2.476 2.476 0 0 0 1.436-.41.403.403 0 0 0 .202-.252c.07-.53.055-1.067-.046-1.592zm-13.42-4.25H42.518c-.332 0-.362-.043-.372-.377v-.642c0-.354.037-.388.404-.394h5.925c.175 0 .354.016.543.026.08.444.094.897.04 1.344a4.383 4.383 0 0 1-.44.043h-1.778c-.351 0-.394.05-.41.4v6.465c0 .192-.017.387-.03.615h-1.546c0-.202-.037-.39-.037-.582v-6.22l-.01-.678zm62.26 21.931c0-.261-.027-.436-.03-.615v-2.648-.592c-.04-1.116-.771-1.655-1.867-1.384-.142.036-.283.08-.42.133a.918.918 0 0 0-.662.992c.046 1.165 0 2.334 0 3.499v.54c-.428.089-.867.109-1.301.059-.132-.354-.168-5.713-.056-6.351a2.18 2.18 0 0 1 1.178-.057l.146.42a.713.713 0 0 0 .215-.072 2.742 2.742 0 0 1 1.215-.517c1.324-.192 2.893.378 2.952 2.28.037 1.298.017 2.599 0 3.896 0 .381-.04.408-.437.418h-.933zm-26.464 0H79.43c-.158 0-.235-.099-.245-.251v-.245-5.481c0-.13.02-.258.034-.4.4-.153.787-.054 1.188-.073l.155.43c.057 0 .113.02.15 0 .132-.073.25-.16.38-.232a2.767 2.767 0 0 1 2.72-.036 2.019 2.019 0 0 1 1.1 1.655c.038.409.054.82.046 1.23v2.864c0 .533-.02.546-.566.55h-.768c-.02-.24-.046-.415-.046-.59v-2.764a4.797 4.797 0 0 0-.07-.784 1.342 1.342 0 0 0-1.681-1.168c-.161.032-.318.08-.47.142-.705.278-.765.367-.765 1.125v4.028h.01zM63.1 12.37c-.235.016-.38.03-.523.032h-.834a4.022 4.022 0 0 1-.056-.46V6.414c0-.45.023-.467.473-.47h.751l.162.437h.14c.112-.063.218-.146.33-.212a2.78 2.78 0 0 1 2.78-.046 1.986 1.986 0 0 1 1.11 1.754c.059 1.397.032 2.793.039 4.193 0 .216-.083.331-.331.331h-.738a.279.279 0 0 1-.315-.297v-.494c-.02-1.069-.02-2.138-.056-3.207-.03-.94-.797-1.473-1.757-1.27a2.532 2.532 0 0 0-.378.098c-.715.265-.804.394-.804 1.146v3.995l.007-.004zm2.958 5.434v7.463c.245.017.42.037.595.037h2.715c.503 0 .52.02.523.536 0 .261 0 .526-.024.788 0 .043-.043.086-.08.155h-5.295c0-.175-.043-.33-.043-.486v-7.994c0-.48.02-.496.503-.5.344-.003.685 0 1.106 0zm7.428-10.29c-.59-.189-1.082-.354-1.582-.503a1.466 1.466 0 0 0-1.013.082.563.563 0 0 0-.397.513.54.54 0 0 0 .33.553c.223.103.458.176.69.258.526.186 1.065.331 1.575.56a1.79 1.79 0 0 1 .976 2.18c-.221.779-.804 1.136-1.526 1.325a4.554 4.554 0 0 1-3.147-.454.52.52 0 0 1-.331-.542v-.95l.589.304a4.22 4.22 0 0 0 2.072.543c.197-.005.391-.048.573-.126a.556.556 0 0 0 .175-.933 1.513 1.513 0 0 0-.493-.315c-.351-.139-.715-.238-1.07-.37a11.733 11.733 0 0 1-1.135-.474c-1.158-.585-1.145-2.197-.109-2.902a2.916 2.916 0 0 1 1.682-.48 4.332 4.332 0 0 1 1.813.41.496.496 0 0 1 .331.53c.01.245.007.5-.003.79zM44.544 21.48v5.27a5.175 5.175 0 0 1-1.397.043c-.06-1.771 0-3.505-.043-5.296-.225-.03-.427-.073-.632-.083-.205-.01-.364-.122-.354-.367.01-.245.02-.42.03-.662l.565-.043c.351-.027.371-.06.417-.407.033-.342.093-.68.18-1.013a1.808 1.808 0 0 1 1.588-1.347 5.1 5.1 0 0 1 1.708.092.333.333 0 0 1 .297.232.331.331 0 0 1 .014.133v.79c-.384-.052-.705-.122-1.03-.139a1.183 1.183 0 0 0-1.323 1.281c0 .275.056.361.33.371.46.017.92 0 1.38.017.146 0 .404.08.414.149.031.27.019.544-.036.81 0 .057-.228.1-.354.103-.36.017-.722 0-1.082 0-.202.017-.394.043-.672.066zm55.685-15.523v1.046c-.172.016-.33.046-.483.05h-1.43c-.374 0-.437.066-.44.433v2.81a.936.936 0 0 0 .993 1.043c.309-.009.616-.05.917-.123.159-.026.308-.086.533-.149 0 .394.016.735 0 1.07 0 .089-.153.211-.255.24a3.668 3.668 0 0 1-2.367-.019c-.89-.331-1.201-1.079-1.224-1.956-.023-.877 0-1.807 0-2.71v-.58l-1.023-.106a1.985 1.985 0 0 1 0-1.052l.993-.057c.016-.172.04-.33.046-.483v-.788a.264.264 0 0 1 .298-.307h1.07c.016.211.039.37.042.53v.638c0 .387.05.427.427.433h1.38c.136.037.298.037.523.037zM57.157 26.789h-1.28c-.127-.35-.166-5.722-.05-6.378.394-.092.803-.1 1.201-.023l.166.632.403-.354a1.963 1.963 0 0 1 1.324-.49c.378 0 .46.09.487.46v.15c0 .641 0 .678-.62.708a3.55 3.55 0 0 0-1.111.33.761.761 0 0 0-.487.818c.027 1.182 0 2.367 0 3.548-.006.192-.02.368-.033.6zm35.42-20.831l.117.685c.165-.146.284-.239.394-.331a1.876 1.876 0 0 1 1.343-.52c.371 0 .464.106.47.467v.774c-.185.02-.33.027-.466.05-.291.036-.579.095-.86.175-.756.265-.852.424-.852 1.215v3.353c0 .175-.016.35-.026.563h-1.344c-.016-.173-.04-.332-.04-.487V6.484c0-.507 0-.51.537-.513l.728-.013zm-41.404 0c.043.241.076.413.123.661.162-.139.284-.235.397-.33a1.93 1.93 0 0 1 1.254-.51c.434-.027.556.102.563.533v.714c-.202.017-.331.037-.487.04a2.737 2.737 0 0 0-1.307.39.771.771 0 0 0-.43.762v3.853c0 .182-.09.33-.331.33h-.735a.27.27 0 0 1-.308-.3V6.51v-.294a.258.258 0 0 1 .281-.275l.98.016z" fill="#3A3A3A"/></svg>