<svg width="109" height="30" viewBox="0 0 109 30" fill="none" xmlns="http://www.w3.org/2000/svg">
<path d="M0.586914 17.8296V12.3056C0.768952 12.2891 0.937752 12.2626 1.10986 12.2626C1.88435 12.2626 2.65664 12.2626 3.42671 12.2626C4.27402 12.2626 4.12177 12.2262 4.28064 11.6006C5.10235 8.27262 7.11457 5.36085 9.93706 3.41552C11.7722 2.11512 13.9009 1.28956 16.133 1.01261C19.5705 0.558029 23.0552 1.38336 25.9237 3.33148C28.7922 5.2796 30.8441 8.21449 31.689 11.5775C31.689 11.6106 31.689 11.6436 31.7089 11.6767C31.8512 12.246 31.8512 12.246 32.4271 12.246H34.7969C34.9591 12.246 35.1279 12.246 35.2669 12.2659C35.3893 12.6598 35.4224 17.0783 35.3099 17.7668C35.151 17.7668 34.9789 17.8098 34.8068 17.8131H32.437C31.8512 17.8131 31.8479 17.8131 31.7122 18.3824C31.056 21.0753 29.6218 23.5155 27.5884 25.3989C25.5549 27.2823 23.0121 28.5256 20.2768 28.9737C16.791 29.5488 13.2162 28.7955 10.2587 26.8627C7.30131 24.9299 5.17639 21.9582 4.3038 18.5346C4.12177 17.8197 4.12508 17.8164 3.40023 17.8164H0.586914V17.8296ZM9.31151 17.8296C9.34792 18.7994 10.4071 20.5701 11.592 21.7087C13.2686 23.3604 15.527 24.2875 17.8806 24.2904C20.2624 24.3372 22.5677 23.4484 24.3015 21.8146C25.2349 20.9673 26.5985 19.0311 26.6879 17.9058C26.5807 17.869 26.4697 17.8446 26.3569 17.833L9.31151 17.8296ZM9.22546 12.1831C9.91059 12.3056 26.3106 12.2758 26.6714 12.1831C26.6714 11.4351 25.6983 9.72066 24.6193 8.62181C22.942 6.88501 20.6504 5.87537 18.2369 5.80977C15.8233 5.74417 13.4802 6.62785 11.7111 8.27097C10.545 9.3284 9.68619 10.6812 9.22546 12.1865V12.1831Z" fill="#3A3A3A"/>
<path d="M76.8644 5.95684L77.0068 6.40697C77.1036 6.36946 77.1967 6.32292 77.2848 6.26796C78.4895 5.32798 80.343 5.841 81.1539 7.02591C81.4353 7.44282 81.6311 7.91144 81.7299 8.40461C81.8288 8.89777 81.8288 9.40565 81.7298 9.8988C81.6485 10.3493 81.493 10.7833 81.2698 11.183C80.5648 12.4639 78.7643 12.8975 77.5595 12.3646L77.0332 12.1329V12.6956C77.0332 13.3211 77.0332 13.9434 77.0332 14.5689C77.0332 14.933 76.9968 14.9727 76.6394 14.9727C75.4445 14.9727 75.62 15.0952 75.6166 14.0096C75.6166 11.5769 75.6166 9.14747 75.6166 6.72802C75.6166 6.57908 75.6166 6.43014 75.6166 6.28451C75.6166 6.05282 75.7358 5.95353 75.9476 5.95353C76.2356 5.95684 76.5335 5.95684 76.8644 5.95684ZM77.0332 9.22691V10.3092C77.0332 11.0307 77.1292 11.1499 77.8309 11.3021C77.9396 11.3311 78.0502 11.3521 78.1619 11.365C79.1879 11.4279 80.0418 10.9712 80.257 9.86901C80.2889 9.72539 80.3078 9.57915 80.3132 9.43212C80.3563 7.40984 78.9463 6.83724 77.4767 7.31054C77.0663 7.44293 77.0299 7.52568 77.0266 7.9725C77.0233 8.41932 77.02 8.79002 77.02 9.21698L77.0332 9.22691Z" fill="#3A3A3A"/>
<path d="M91.3046 26.3985C90.9598 26.5936 90.5988 26.7586 90.2256 26.8917C89.5644 27.0473 88.8698 26.9691 88.2597 26.6705C87.6497 26.3718 87.162 25.871 86.8794 25.2533C86.6365 24.7203 86.5107 24.1413 86.5107 23.5554C86.5107 22.9696 86.6365 22.3906 86.8794 21.8575C87.5414 20.3151 89.6199 19.726 90.8809 20.5336C90.9871 20.591 91.0978 20.6397 91.2119 20.6792C91.2433 20.4973 91.2654 20.3139 91.2781 20.1298C91.2781 19.5075 91.2781 18.882 91.2781 18.2564C91.2781 17.8394 91.3211 17.7964 91.7249 17.7964C92.7543 17.7964 92.655 17.7004 92.6583 18.7132C92.6583 21.1139 92.6583 23.5135 92.6583 25.912C92.6583 26.0444 92.6583 26.1768 92.6583 26.3092C92.6583 26.7758 92.6252 26.7957 92.1387 26.8023C92.0559 26.8023 91.9732 26.8023 91.8937 26.8023C91.5892 26.8619 91.3609 26.7659 91.3046 26.3985ZM91.3046 23.6183C91.3046 23.1748 91.3046 22.7313 91.3046 22.2944C91.3178 22.1627 91.2847 22.0305 91.211 21.9206C91.1373 21.8106 91.0276 21.7298 90.9008 21.692C90.5209 21.5304 90.1075 21.4634 89.696 21.4967C89.2975 21.5142 88.9168 21.6666 88.6161 21.9287C88.3155 22.1909 88.1127 22.5474 88.0411 22.9398C88.0047 23.1662 87.9914 23.3958 88.0014 23.6249C88.0014 25.3824 89.5537 26.0013 90.8412 25.5148C90.987 25.4815 91.1153 25.3955 91.2015 25.2733C91.2876 25.1511 91.3256 25.0013 91.3079 24.8529C91.2748 24.4391 91.2914 24.0287 91.2914 23.6183H91.3046Z" fill="#3A3A3A"/>
<path d="M50.7894 20.1904C52.5834 20.2301 54.1721 21.5143 54.1886 23.573C54.2041 24.0244 54.1271 24.4742 53.9623 24.8946C53.7974 25.3151 53.5483 25.6974 53.2302 26.018C52.9121 26.3386 52.5318 26.5907 52.1126 26.7588C51.6934 26.9268 51.2442 27.0074 50.7928 26.9954C50.3445 27.0003 49.8998 26.9152 49.485 26.7452C49.0703 26.5751 48.6938 26.3235 48.3781 26.0053C48.0623 25.687 47.8137 25.3087 47.6468 24.8926C47.48 24.4765 47.3984 24.0312 47.4068 23.583C47.412 22.6865 47.7698 21.8281 48.4027 21.1933C49.0357 20.5585 49.893 20.1982 50.7894 20.1904V20.1904ZM48.8764 23.5763C48.8644 23.8344 48.9047 24.0922 48.9949 24.3342C49.085 24.5763 49.2232 24.7976 49.4011 24.9849C49.579 25.1722 49.7929 25.3217 50.03 25.4242C50.2671 25.5267 50.5224 25.5803 50.7808 25.5816C51.0391 25.583 51.295 25.5321 51.5331 25.432C51.7713 25.3319 51.9867 25.1847 52.1665 24.9993C52.3463 24.8138 52.4868 24.5939 52.5795 24.3528C52.6721 24.1117 52.7151 23.8543 52.7058 23.5962C52.7178 23.3382 52.6775 23.0804 52.5873 22.8383C52.4972 22.5962 52.359 22.3749 52.1811 22.1876C52.0032 22.0003 51.7893 21.8509 51.5522 21.7484C51.3151 21.6458 51.0598 21.5923 50.8014 21.5909C50.5431 21.5896 50.2872 21.6405 50.0491 21.7406C49.8109 21.8406 49.5955 21.9878 49.4157 22.1733C49.2359 22.3587 49.0954 22.5786 49.0027 22.8197C48.9101 23.0608 48.8671 23.3182 48.8764 23.5763V23.5763Z" fill="#3A3A3A"/>
<path d="M77.5642 23.5695C77.5642 24.2381 77.3659 24.8917 76.9943 25.4476C76.6227 26.0035 76.0945 26.4366 75.4766 26.6922C74.8587 26.9477 74.1789 27.0143 73.5233 26.8833C72.8676 26.7524 72.2654 26.4299 71.7931 25.9566C71.3208 25.4834 70.9994 24.8806 70.8698 24.2247C70.7402 23.5687 70.808 22.889 71.0648 22.2717C71.3216 21.6543 71.7557 21.127 72.3123 20.7565C72.8689 20.386 73.5229 20.1889 74.1916 20.1902C74.6365 20.1848 75.078 20.2686 75.4901 20.4367C75.9021 20.6047 76.2763 20.8535 76.5907 21.1685C76.905 21.4834 77.1531 21.8581 77.3203 22.2705C77.4875 22.6829 77.5705 23.1245 77.5642 23.5695V23.5695ZM76.1179 23.5695C76.1209 23.3117 76.0732 23.0559 75.9774 22.8166C75.8816 22.5773 75.7395 22.3592 75.5594 22.1748C75.3793 21.9904 75.1647 21.8433 74.9277 21.7418C74.6907 21.6404 74.4361 21.5866 74.1783 21.5836C73.7782 21.5704 73.3834 21.6772 73.0445 21.8903C72.7056 22.1035 72.4383 22.4131 72.2768 22.7794C72.1154 23.1457 72.0673 23.552 72.1386 23.9459C72.21 24.3398 72.3976 24.7033 72.6773 24.9897C72.957 25.2761 73.316 25.4722 73.7081 25.5529C74.1002 25.6335 74.5075 25.595 74.8775 25.4422C75.2476 25.2895 75.5634 25.0295 75.7845 24.6958C76.0055 24.362 76.1216 23.9698 76.1179 23.5695Z" fill="#3A3A3A"/>
<path d="M101.046 23.6053C101.057 24.0524 100.977 24.4971 100.81 24.9122C100.644 25.3273 100.394 25.704 100.077 26.0194C99.7598 26.3347 99.3816 26.5821 98.9655 26.7463C98.5495 26.9106 98.1043 26.9883 97.6572 26.9746C97.2063 26.9807 96.7588 26.8952 96.3419 26.7233C95.9249 26.5514 95.5472 26.2967 95.2316 25.9746C94.916 25.6525 94.669 25.2697 94.5057 24.8493C94.3423 24.429 94.2659 23.9798 94.2812 23.5291C94.2855 23.0837 94.378 22.6435 94.5534 22.234C94.7287 21.8245 94.9835 21.4538 95.3029 21.1433C95.6223 20.8328 96.0001 20.5886 96.4144 20.4249C96.8287 20.2612 97.2714 20.1812 97.7168 20.1896C98.1611 20.1903 98.6008 20.2798 99.0101 20.4528C99.4193 20.6258 99.7899 20.8788 100.1 21.197C100.41 21.5152 100.654 21.8921 100.816 22.3057C100.979 22.7192 101.057 23.1611 101.046 23.6053V23.6053ZM95.7739 23.5887C95.7626 23.8475 95.8043 24.1058 95.8963 24.3479C95.9884 24.59 96.1289 24.8108 96.3092 24.9967C96.4895 25.1826 96.7059 25.3297 96.9451 25.4291C97.1843 25.5285 97.4412 25.578 97.7002 25.5746C98.2164 25.5616 98.7068 25.346 99.0654 24.9744C99.424 24.6028 99.622 24.1051 99.6166 23.5887C99.6273 23.0653 99.4309 22.5589 99.0702 22.1796C98.7094 21.8003 98.2135 21.5787 97.6903 21.5631C97.4301 21.566 97.1732 21.6211 96.9348 21.7253C96.6964 21.8295 96.4814 21.9806 96.3026 22.1696C96.1238 22.3586 95.9849 22.5816 95.894 22.8254C95.8032 23.0692 95.7624 23.3288 95.7739 23.5887V23.5887Z" fill="#3A3A3A"/>
<path d="M89.6768 9.20702C89.6826 9.65053 89.5996 10.0907 89.4327 10.5017C89.2659 10.9126 89.0185 11.2861 88.7051 11.6C88.3918 11.914 88.0189 12.1621 87.6082 12.3297C87.1976 12.4974 86.7576 12.5813 86.3141 12.5764C85.864 12.5809 85.4177 12.4952 85.0013 12.3243C84.585 12.1534 84.2071 11.9009 83.8899 11.5816C83.5728 11.2623 83.3228 10.8827 83.1548 10.4652C82.9868 10.0477 82.9041 9.60074 82.9116 9.15075C82.9228 8.25973 83.2817 7.40834 83.9118 6.77825C84.5419 6.14815 85.3933 5.78923 86.2843 5.77808C86.7344 5.77263 87.181 5.85787 87.5974 6.02873C88.0139 6.19958 88.3917 6.45255 88.7083 6.77254C89.0249 7.09253 89.2738 7.473 89.4402 7.89126C89.6066 8.30952 89.6871 8.757 89.6768 9.20702V9.20702ZM88.247 9.16731C88.2496 8.91177 88.2017 8.65824 88.106 8.42127C88.0104 8.18431 87.8688 7.96859 87.6895 7.78651C87.5102 7.60443 87.2966 7.45957 87.0612 7.36028C86.8257 7.26098 86.5729 7.2092 86.3174 7.20791C86.058 7.20458 85.8006 7.25405 85.5609 7.35331C85.3212 7.45257 85.1042 7.59955 84.9231 7.7853C84.742 7.97106 84.6005 8.19171 84.5074 8.43385C84.4142 8.67598 84.3713 8.93453 84.3812 9.19378C84.3768 9.44971 84.4232 9.70397 84.5177 9.94185C84.6122 10.1797 84.753 10.3965 84.9318 10.5796C85.1106 10.7628 85.324 10.9086 85.5595 11.0088C85.7951 11.1089 86.0482 11.1614 86.3041 11.1631C86.8251 11.1518 87.3207 10.9363 87.6841 10.5629C88.0476 10.1896 88.2497 9.68834 88.247 9.16731V9.16731Z" fill="#3A3A3A"/>
<path d="M58.5003 12.4013L58.2852 11.9147L57.8119 12.1696C57.1894 12.5112 56.4682 12.628 55.7697 12.5006C55.4512 12.4327 55.1558 12.2834 54.9124 12.0671C54.669 11.8508 54.486 11.575 54.3812 11.2667C54.2765 10.9584 54.2536 10.6282 54.3148 10.3084C54.376 9.98856 54.5192 9.69013 54.7305 9.44231C55.0296 9.06597 55.4305 8.78338 55.8856 8.62811C56.4251 8.44938 56.991 8.33353 57.5405 8.20114C57.7589 8.14819 57.9873 8.12502 58.2024 8.08861C58.2464 7.86394 58.2022 7.63095 58.0789 7.43804C57.9557 7.24512 57.7628 7.1071 57.5405 7.05265C56.9661 6.89608 56.3578 6.91802 55.7962 7.11553C55.5049 7.20159 55.217 7.3042 54.8926 7.41011C54.8759 7.02115 54.946 6.63333 55.0978 6.27484C55.1307 6.21934 55.1743 6.17089 55.226 6.13226C55.2777 6.09364 55.3365 6.06561 55.399 6.04978C56.2366 5.74262 57.1432 5.675 58.0171 5.8545C58.8511 6.05971 59.6422 6.55948 59.672 7.78411C59.6918 9.18084 59.6918 10.5776 59.672 11.9776C59.672 12.3351 59.619 12.3748 59.2715 12.388C59.0232 12.4112 58.7618 12.4013 58.5003 12.4013ZM58.2256 9.12788C57.4379 9.19077 56.713 9.31655 56.0974 9.8097C56.0369 9.86366 55.9845 9.92609 55.9418 9.99505C55.8455 10.1238 55.7868 10.2767 55.7724 10.4368C55.758 10.5969 55.7883 10.7579 55.8601 10.9018C55.9318 11.0456 56.0422 11.1667 56.1788 11.2515C56.3153 11.3363 56.4728 11.3814 56.6336 11.3819C57.1432 11.3962 57.6449 11.2529 58.07 10.9714C58.1192 10.9456 58.1624 10.91 58.1972 10.8667C58.2319 10.8234 58.2574 10.7734 58.2719 10.7199C58.3422 10.1902 58.3266 9.6526 58.2256 9.12788V9.12788Z" fill="#3A3A3A"/>
<path d="M44.8066 4.87812H43.7474C43.337 4.87812 42.9266 4.87812 42.5162 4.87812C42.1852 4.87812 42.1554 4.8351 42.1455 4.50081C42.1455 4.28898 42.1455 4.07385 42.1455 3.85871C42.1455 3.50456 42.1819 3.47146 42.5493 3.46484C43.1583 3.46484 43.7673 3.46484 44.3763 3.46484H48.4738C48.6492 3.46484 48.828 3.48139 49.0166 3.49132C49.0978 3.93465 49.1112 4.38774 49.0563 4.83509C48.9104 4.85683 48.7635 4.87119 48.6161 4.87812C48.0237 4.87812 47.4312 4.87812 46.8388 4.87812C46.4879 4.87812 46.4449 4.92777 46.4284 5.27861C46.4284 5.54008 46.4284 5.80486 46.4284 6.06633C46.4284 7.95953 46.4284 9.85163 46.4284 11.7426C46.4284 11.9346 46.4118 12.1299 46.3986 12.3582H44.8529C44.8529 12.1563 44.8165 11.9677 44.8165 11.7757C44.8165 9.70379 44.8165 7.63077 44.8165 5.55663L44.8066 4.87812Z" fill="#3A3A3A"/>
<path d="M107.066 26.8095C107.066 26.548 107.039 26.3726 107.036 26.1939V23.546C107.036 23.3475 107.036 23.1489 107.036 22.9536C106.996 21.8382 106.265 21.2987 105.169 21.5701C105.027 21.6057 104.886 21.6499 104.749 21.7025C104.538 21.7617 104.356 21.8944 104.234 22.0765C104.113 22.2586 104.061 22.4782 104.087 22.6954C104.133 23.8605 104.087 25.0288 104.087 26.1939V26.7334C103.659 26.8227 103.22 26.8428 102.786 26.7929C102.654 26.4388 102.618 21.0802 102.73 20.4415C103.11 20.3148 103.518 20.2954 103.908 20.3852L104.054 20.8055C104.129 20.7928 104.202 20.7683 104.269 20.7327C104.626 20.4642 105.043 20.287 105.484 20.2164C106.808 20.0244 108.377 20.5937 108.436 22.4968C108.473 23.7943 108.453 25.095 108.436 26.3925C108.436 26.7731 108.396 26.7996 107.999 26.8095C107.721 26.8095 107.43 26.8095 107.066 26.8095Z" fill="#3A3A3A"/>
<path d="M80.6021 26.8093C80.1454 26.8093 79.7879 26.8093 79.4305 26.8093C79.2716 26.8093 79.1955 26.71 79.1855 26.5578C79.1855 26.475 79.1855 26.3923 79.1855 26.3128C79.1855 24.4858 79.1855 22.6588 79.1855 20.8318C79.1855 20.7028 79.2054 20.5737 79.2186 20.4314C79.6191 20.2791 80.0064 20.3784 80.4069 20.3585L80.5624 20.7888C80.6187 20.7888 80.675 20.8087 80.7114 20.7888C80.8438 20.716 80.9629 20.6299 81.092 20.5571C81.5039 20.3172 81.9709 20.1878 82.4475 20.1814C82.9242 20.175 83.3944 20.2919 83.8126 20.5207C84.1229 20.6784 84.3871 20.9137 84.5797 21.2037C84.7722 21.4936 84.8865 21.8284 84.9115 22.1756C84.9501 22.5848 84.9656 22.9959 84.9578 23.4068C84.9578 24.3623 84.9578 25.3166 84.9578 26.2698C84.9578 26.8027 84.938 26.8159 84.3918 26.8192H83.624C83.6041 26.5809 83.5776 26.4055 83.5776 26.2301C83.5776 25.31 83.5776 24.3865 83.5776 23.4664C83.576 23.2035 83.5527 22.9411 83.5081 22.682C83.4892 22.4882 83.4284 22.3008 83.3298 22.1328C83.2313 21.9648 83.0975 21.8203 82.9375 21.7091C82.7776 21.598 82.5954 21.523 82.4037 21.4892C82.2119 21.4555 82.015 21.4638 81.8268 21.5136C81.666 21.5464 81.5087 21.5941 81.3568 21.656C80.6518 21.934 80.5922 22.0234 80.5922 22.7813V26.8093H80.6021Z" fill="#3A3A3A"/>
<path d="M63.0998 12.3683C62.8648 12.3848 62.7192 12.3981 62.5768 12.4014H61.7428C61.7152 12.2492 61.6964 12.0956 61.6865 11.9413C61.6865 10.0989 61.6865 8.25642 61.6865 6.41397C61.6865 5.96384 61.7097 5.94729 62.1598 5.94398H62.9111L63.0733 6.38087C63.1197 6.38087 63.1759 6.38087 63.2123 6.38087C63.3249 6.31798 63.4308 6.23525 63.5433 6.16905C63.9619 5.91795 64.4392 5.78147 64.9272 5.77334C65.4153 5.7652 65.8968 5.8857 66.3235 6.12271C66.6521 6.28443 66.9296 6.53387 67.1253 6.84345C67.321 7.15303 67.4272 7.51069 67.4323 7.87689C67.4919 9.27362 67.4654 10.6704 67.472 12.0704C67.472 12.2855 67.3893 12.4014 67.141 12.4014H66.403C66.3618 12.407 66.3199 12.4032 66.2803 12.3905C66.2408 12.3777 66.2046 12.3563 66.1745 12.3277C66.1443 12.2991 66.1209 12.2642 66.106 12.2254C66.0912 12.1866 66.0852 12.1449 66.0885 12.1035C66.0885 11.938 66.0885 11.7725 66.0885 11.6103C66.0687 10.5413 66.0687 9.47222 66.0323 8.40316C66.0025 7.46318 65.2346 6.93029 64.2748 7.13219C64.1466 7.15555 64.0205 7.18875 63.8975 7.23149C63.1825 7.49627 63.0932 7.62535 63.0932 8.37667V12.3716L63.0998 12.3683Z" fill="#3A3A3A"/>
<path d="M66.0578 17.8027C66.0578 20.3447 66.0578 22.7873 66.0578 25.2663C66.3027 25.2829 66.4781 25.3027 66.6535 25.3027H69.3676C69.8707 25.3027 69.8872 25.3226 69.8905 25.8389C69.8905 26.1004 69.8905 26.3652 69.8673 26.6266C69.8673 26.6697 69.8243 26.7127 69.7879 26.7822H64.4922C64.4922 26.6068 64.4492 26.4512 64.4492 26.2957C64.4492 23.6324 64.4492 20.968 64.4492 18.3025C64.4492 17.8226 64.4691 17.8061 64.9523 17.8027C65.2965 17.7994 65.6374 17.8027 66.0578 17.8027Z" fill="#3A3A3A"/>
<path d="M73.486 7.51281C72.8969 7.32415 72.4037 7.15865 71.9039 7.00971C71.5673 6.91569 71.2081 6.94503 70.8911 7.09246C70.7801 7.12651 70.6823 7.1941 70.6112 7.28596C70.5401 7.37781 70.4991 7.48943 70.494 7.60548C70.4823 7.72096 70.5083 7.8371 70.5679 7.93667C70.6275 8.03624 70.7177 8.11393 70.8249 8.15821C71.0467 8.26081 71.2817 8.33363 71.5134 8.41637C72.0396 8.60172 72.5791 8.74735 73.0888 8.97573C73.4916 9.15526 73.814 9.47711 73.9941 9.8796C74.1743 10.2821 74.1996 10.7369 74.0652 11.1569C73.8435 11.9347 73.2609 12.2921 72.5394 12.4808C71.4698 12.7128 70.3524 12.5518 69.3918 12.0274C69.2843 11.9863 69.1935 11.9107 69.1336 11.8125C69.0737 11.7142 69.0481 11.5989 69.0608 11.4846C69.0608 11.1933 69.0608 10.902 69.0608 10.5346L69.65 10.8391C70.2824 11.1952 70.9961 11.3822 71.7219 11.3819C71.919 11.3769 72.1134 11.3342 72.2945 11.2562C72.3837 11.2224 72.4628 11.1663 72.524 11.0932C72.5853 11.0201 72.6267 10.9325 72.6443 10.8388C72.662 10.745 72.6552 10.6483 72.6246 10.558C72.5941 10.4676 72.5408 10.3866 72.4699 10.3228C72.3275 10.1869 72.16 10.0801 71.9768 10.0084C71.6259 9.86937 71.2618 9.77008 70.9077 9.63768C70.5213 9.49989 70.1423 9.3419 69.7724 9.16439C68.614 8.57855 68.6272 6.96669 69.6632 6.26171C70.1614 5.93351 70.7482 5.766 71.3446 5.78178C71.9718 5.78569 72.5906 5.92572 73.1583 6.19219C73.2658 6.22924 73.3573 6.30204 73.4175 6.39842C73.4778 6.4948 73.5031 6.60894 73.4893 6.72176C73.4992 6.96669 73.4959 7.22154 73.486 7.51281Z" fill="#3A3A3A"/>
<path d="M44.5437 21.4803V26.7495C44.0822 26.8269 43.6124 26.8414 43.147 26.7925C43.0874 25.0218 43.147 23.2875 43.1039 21.4969C42.8789 21.4671 42.677 21.424 42.4718 21.4141C42.2666 21.4042 42.1077 21.2916 42.1176 21.0467C42.1276 20.8018 42.1375 20.6264 42.1474 20.3848L42.7134 20.3417C43.0642 20.3153 43.0841 20.2822 43.1304 19.9346C43.1634 19.5929 43.2231 19.2542 43.3091 18.9218C43.4026 18.5608 43.6055 18.2376 43.8899 17.9964C44.1743 17.7552 44.5264 17.6079 44.8978 17.5748C45.4683 17.5093 46.0457 17.5406 46.6057 17.6674C46.6504 17.6699 46.6941 17.6814 46.7343 17.7012C46.7744 17.7211 46.8101 17.7489 46.8392 17.7829C46.8683 17.8169 46.8901 17.8565 46.9035 17.8992C46.9168 17.942 46.9214 17.987 46.9168 18.0315C46.9168 18.2897 46.9168 18.5478 46.9168 18.8225C46.5329 18.7696 46.2118 18.7001 45.8875 18.6835C45.7121 18.6615 45.534 18.6791 45.3663 18.735C45.1986 18.791 45.0456 18.8838 44.9186 19.0067C44.7915 19.1296 44.6937 19.2795 44.6322 19.4452C44.5708 19.611 44.5473 19.7884 44.5636 19.9644C44.5636 20.2391 44.6198 20.3252 44.8945 20.3351C45.3546 20.3517 45.8147 20.3351 46.2747 20.3517C46.4204 20.3517 46.6785 20.4311 46.6884 20.5006C46.7193 20.7711 46.707 21.0448 46.652 21.3115C46.652 21.3678 46.4237 21.4108 46.2979 21.4141C45.9371 21.4307 45.5764 21.4141 45.2156 21.4141C45.0137 21.4307 44.8217 21.4571 44.5437 21.4803Z" fill="#3A3A3A"/>
<path d="M100.229 5.95687V7.00277C100.057 7.01932 99.8983 7.0491 99.746 7.05241C99.2694 7.05241 98.7928 7.05241 98.3162 7.05241C97.9422 7.05241 97.8793 7.11861 97.876 7.48599C97.876 8.42266 97.876 9.35933 97.876 10.296C97.8601 10.4325 97.8745 10.5708 97.9181 10.7011C97.9617 10.8314 98.0334 10.9505 98.1281 11.05C98.2229 11.1495 98.3384 11.2269 98.4664 11.2768C98.5944 11.3267 98.7318 11.3478 98.8689 11.3386C99.178 11.3304 99.4853 11.2894 99.7857 11.2161C99.9446 11.1897 100.094 11.1301 100.319 11.0672C100.319 11.4611 100.335 11.802 100.319 12.1363C100.319 12.2256 100.166 12.3481 100.064 12.3779C99.2944 12.6329 98.4622 12.626 97.6973 12.358C96.8069 12.027 96.4958 11.279 96.4726 10.4019C96.4495 9.52482 96.4726 8.59477 96.4726 7.6912V7.11199L95.4499 7.00608C95.3552 6.66163 95.3552 6.29801 95.4499 5.95356L96.4428 5.8973C96.4594 5.72519 96.4826 5.56631 96.4892 5.41406C96.4892 5.15259 96.4892 4.88781 96.4892 4.62634C96.482 4.58519 96.4846 4.54293 96.4969 4.50299C96.5091 4.46306 96.5307 4.42659 96.5597 4.39657C96.5888 4.36655 96.6245 4.34383 96.664 4.33027C96.7035 4.31671 96.7457 4.31268 96.7871 4.31852H97.8561C97.8727 4.53035 97.8958 4.68922 97.8991 4.84809C97.8991 5.05992 97.8991 5.27505 97.8991 5.48688C97.8991 5.87412 97.9488 5.91385 98.3261 5.92047C98.7862 5.92047 99.2462 5.92047 99.7063 5.92047C99.842 5.95688 100.004 5.95687 100.229 5.95687Z" fill="#3A3A3A"/>
<path d="M57.1572 26.7894H55.8763C55.7505 26.4386 55.7108 21.0668 55.8266 20.4115C56.221 20.3192 56.6304 20.3113 57.0281 20.3883L57.1936 21.0204L57.5974 20.6663C57.9627 20.3445 58.4345 20.1699 58.9213 20.1764C59.2986 20.1764 59.3814 20.2658 59.4078 20.6365C59.4078 20.6862 59.4078 20.7358 59.4078 20.7854C59.4078 21.4275 59.4078 21.464 58.7889 21.4937C58.4026 21.5423 58.0268 21.6541 57.6768 21.8247C57.5149 21.8855 57.3785 21.9995 57.2901 22.1481C57.2017 22.2967 57.1665 22.471 57.1903 22.6422C57.2168 23.8238 57.1903 25.0087 57.1903 26.1903C57.1837 26.3823 57.1704 26.5577 57.1572 26.7894Z" fill="#3A3A3A"/>
<path d="M92.5778 5.95758L92.6937 6.64271C92.8591 6.49708 92.9783 6.4044 93.0875 6.31173C93.2662 6.14086 93.4769 6.00699 93.7076 5.91781C93.9382 5.82864 94.1841 5.78591 94.4313 5.79209C94.802 5.79209 94.8947 5.898 94.9013 6.25877C94.9013 6.5037 94.9013 6.74531 94.9013 7.03326C94.7159 7.05312 94.5703 7.05974 94.4346 7.08291C94.1437 7.11934 93.856 7.17798 93.5741 7.25832C92.8194 7.52311 92.7234 7.68198 92.7234 8.47302V11.8258C92.7234 12.0013 92.7069 12.1767 92.697 12.3885H91.3532C91.3366 12.2164 91.3135 12.0575 91.3135 11.902C91.3135 10.0948 91.3135 8.28877 91.3135 6.48383C91.3135 5.97744 91.3135 5.97413 91.8497 5.97082L92.5778 5.95758Z" fill="#3A3A3A"/>
<path d="M51.1731 5.95742C51.2162 6.19903 51.2493 6.37114 51.2956 6.61938C51.4578 6.48036 51.5802 6.38438 51.6928 6.2884C52.0356 5.97255 52.4812 5.79149 52.9472 5.77869C53.3808 5.75221 53.5032 5.88129 53.5098 6.31157C53.5098 6.53663 53.5098 6.7617 53.5098 7.02648C53.308 7.04303 53.1789 7.06289 53.0233 7.0662C52.5615 7.08394 52.1118 7.21829 51.7159 7.45675C51.5756 7.52516 51.4593 7.63457 51.3825 7.7705C51.3057 7.90643 51.2719 8.06247 51.2857 8.218C51.2857 9.32016 51.2857 10.4256 51.2857 11.5278C51.2857 11.7098 51.2857 11.8886 51.2857 12.0706C51.2857 12.2526 51.1963 12.4016 50.9547 12.4016H50.2199C50.1787 12.4075 50.1367 12.4038 50.0971 12.3908C50.0576 12.3779 50.0215 12.356 49.9917 12.3269C49.962 12.2978 49.9393 12.2622 49.9255 12.2229C49.9117 12.1836 49.9071 12.1417 49.9121 12.1004C49.9121 12.0011 49.9121 11.9018 49.9121 11.8058V6.51016C49.9121 6.41086 49.9121 6.31156 49.9121 6.21558C49.9096 6.17827 49.9151 6.14086 49.9285 6.10592C49.9418 6.07098 49.9626 6.03935 49.9893 6.01322C50.0161 5.9871 50.0482 5.9671 50.0834 5.95461C50.1187 5.94212 50.1562 5.93743 50.1934 5.94087L51.1731 5.95742Z" fill="#3A3A3A"/>
</svg>
