<svg width="109" height="20" fill="none" xmlns="http://www.w3.org/2000/svg"><path fill-rule="evenodd" clip-rule="evenodd" d="M100.526 5.73c1.066 0 1.792.315 2.178.947a3.56 3.56 0 0 1 1.214-.885 3.957 3.957 0 0 1 1.556-.283 3.352 3.352 0 0 1 2.24.743 2.368 2.368 0 0 1 .875 1.894 1.95 1.95 0 0 1-.708 1.565 3.142 3.142 0 0 1-3.629.046 1.78 1.78 0 0 1-.517-.622 1.676 1.676 0 0 1-.183-.773 1.537 1.537 0 0 1 .51-1.187c.352-.314.814-.479 1.287-.46a.363.363 0 0 0 .055-.189c0-.17-.129-.255-.389-.255a1.899 1.899 0 0 0-1.42.618c-.195.197-.347.431-.447.688a1.961 1.961 0 0 0-.148.804c-.009.47.138.93.42 1.307.311.401.727.711 1.202.896a.75.75 0 0 1 .342.256c.069.147.098.31.086.471v3.262c0 .387-.214.592-.634.592h-3.797a.521.521 0 0 1-.558-.356.509.509 0 0 1-.017-.236V8.014a2.135 2.135 0 0 0-.187-.993 1.757 1.757 0 0 0-.688-.638.455.455 0 0 1-.16-.124.23.23 0 0 1-.027-.123v-.217c0-.123.074-.185.222-.185l1.322-.004zm-7.235 5.133c0 .286.24.549.727.773.504.247 1.06.37 1.622.36a3.87 3.87 0 0 0 2.91-1.184c.046-.053.1-.1.159-.139a.247.247 0 0 1 .14-.027h.222a.171.171 0 0 1 .105 0c.03.016.056.04.073.07a.822.822 0 0 1 .047.336 3.848 3.848 0 0 1-.626 2.122 4.51 4.51 0 0 1-1.77 1.566 5.524 5.524 0 0 1-2.567.618 5.915 5.915 0 0 1-2.723-.61 4.82 4.82 0 0 1-1.944-1.744 4.701 4.701 0 0 1-.716-2.574 4.85 4.85 0 0 1 .669-2.54 4.715 4.715 0 0 1 1.906-1.75 6.256 6.256 0 0 1 2.901-.638 6.2 6.2 0 0 1 2.249.386c.614.227 1.157.611 1.575 1.113a2.58 2.58 0 0 1 .576 1.666 2.541 2.541 0 0 1-.868 1.995 3.187 3.187 0 0 1-2.217.773 2.869 2.869 0 0 1-2.182-.893.285.285 0 0 0-.198.085.328.328 0 0 0-.066.097.384.384 0 0 0-.02.115l.016.024zm.56-1.276a.341.341 0 0 0 .128.108c.052.026.11.039.167.04.226 0 .339-.128.339-.387V6.73c0-.251-.113-.387-.339-.387a.353.353 0 0 0-.296.15v3.093zm-8.847-5.439a1.118 1.118 0 0 1 .39-.87c.259-.244.606-.376.964-.366.228-.004.453.05.653.158a.308.308 0 0 0 .094-.224c0-.112-.074-.201-.226-.267a1.424 1.424 0 0 0-.595-.104 1.843 1.843 0 0 0-1.288.483 1.57 1.57 0 0 0-.388.545 1.601 1.601 0 0 0-.144.645c0 .363.124.715.353.998.275.336.627.602 1.027.773.809.34 1.53.859 2.109 1.515.435.582.658 1.293.633 2.018a3.796 3.796 0 0 1-.606 2.121 4.054 4.054 0 0 1-1.743 1.465 6.184 6.184 0 0 1-2.649.526 5.95 5.95 0 0 1-3.205-.812.438.438 0 0 0-.151.313c0 .174.147.34.44.507a4.39 4.39 0 0 0 1.22.386 8.631 8.631 0 0 0 1.696.159c.498 0 .965-.031 1.4-.093a8.535 8.535 0 0 1 1.19-.093 2.835 2.835 0 0 1 1.946.611 2.145 2.145 0 0 1 .7 1.705 2.596 2.596 0 0 1-.642 1.75 4.164 4.164 0 0 1-1.855 1.16 8.824 8.824 0 0 1-2.87.452 8.057 8.057 0 0 1-3.186-.53c-.81-.35-1.214-.81-1.214-1.38a1.27 1.27 0 0 1 .335-.85 2.82 2.82 0 0 1-.86-2.122 2.96 2.96 0 0 1 .327-1.372c.214-.417.531-.773.922-1.036a3.626 3.626 0 0 1-1.23-2.76c-.006-.719.201-1.425.596-2.028a4.209 4.209 0 0 1 1.695-1.462 5.556 5.556 0 0 1 2.501-.548h.335c.114.007.227.023.338.046a2.492 2.492 0 0 1-.245-.572 2.918 2.918 0 0 1-.113-.796 2.122 2.122 0 0 1 .778-1.705 2.937 2.937 0 0 1 1.984-.665 2.829 2.829 0 0 1 1.809.545 1.737 1.737 0 0 1 .692 1.419c.003.24-.046.48-.144.7-.101.217-.25.41-.436.564-.415.335-.939.51-1.474.49a2.169 2.169 0 0 1-1.334-.386 1.182 1.182 0 0 1-.389-.44 1.154 1.154 0 0 1-.14-.573zm.817 13.598a6.65 6.65 0 0 1-2.516.46 6.004 6.004 0 0 1-3.17-.827.387.387 0 0 0-.117.14.384.384 0 0 0-.035.177c0 .27.346.514 1.034.73.765.229 1.56.34 2.358.329.61.01 1.219-.057 1.812-.201.519-.134.778-.32.778-.557 0-.049-.01-.098-.031-.143a.29.29 0 0 0-.097-.108h-.016zm-2.252-5.001c.222 0 .334-.166.334-.503V6.854c0-.336-.112-.506-.334-.506-.222 0-.323.174-.323.506v5.38c0 .337.109.507.335.507m-9.007-8.592c.004-.169.043-.335.117-.487a1.16 1.16 0 0 1 .284-.386c.262-.238.606-.365.96-.356.23-.004.456.05.657.159a.385.385 0 0 0 .067-.105.207.207 0 0 0 .023-.12c0-.11-.074-.2-.222-.266a1.444 1.444 0 0 0-.603-.112 1.827 1.827 0 0 0-1.283.483 1.52 1.52 0 0 0-.39.545 1.487 1.487 0 0 0-.147.645c0 .363.125.715.354.997.273.336.624.601 1.023.773a5.77 5.77 0 0 1 2.104 1.512 3.19 3.19 0 0 1 .634 2.021c.012.751-.199 1.49-.606 2.122a4.035 4.035 0 0 1-1.743 1.465 6.257 6.257 0 0 1-2.649.526 5.914 5.914 0 0 1-3.205-.816.443.443 0 0 0-.152.317c0 .17.148.34.44.503.386.187.797.317 1.221.386.56.107 1.127.16 1.696.159.498 0 .965-.047 1.4-.097.436-.05.833-.077 1.19-.093a2.832 2.832 0 0 1 1.945.615 2.157 2.157 0 0 1 .697 1.704 2.615 2.615 0 0 1-.642 1.751 4.212 4.212 0 0 1-1.856 1.16 8.823 8.823 0 0 1-2.866.456 8.07 8.07 0 0 1-3.186-.53c-.809-.35-1.213-.813-1.213-1.387.002-.315.121-.618.334-.85a2.794 2.794 0 0 1-.855-2.115 2.915 2.915 0 0 1 .326-1.372 2.79 2.79 0 0 1 .922-1.036 3.592 3.592 0 0 1-1.229-2.76 3.621 3.621 0 0 1 .595-2.029 4.185 4.185 0 0 1 1.696-1.472 5.533 5.533 0 0 1 2.501-.55h.335c.112.008.224.024.334.047a2.662 2.662 0 0 1-.241-.572 2.918 2.918 0 0 1-.113-.796 2.175 2.175 0 0 1 .782-1.716 2.965 2.965 0 0 1 1.983-.642 2.817 2.817 0 0 1 1.81.537 1.72 1.72 0 0 1 .688 1.415 1.592 1.592 0 0 1-.58 1.264c-.413.336-.936.51-1.47.49a2.169 2.169 0 0 1-1.338-.386 1.212 1.212 0 0 1-.533-1h.004zm.817 13.602a6.755 6.755 0 0 1-2.517.464 6.043 6.043 0 0 1-3.19-.816.387.387 0 0 0-.147.313c0 .274.342.518 1.034.735a7.85 7.85 0 0 0 2.358.32c.609.011 1.216-.057 1.808-.2.525-.136.778-.322.778-.557a.385.385 0 0 0-.031-.143.325.325 0 0 0-.097-.108l.004-.008zm-2.256-5.017c.225 0 .338-.166.338-.503V6.855c0-.336-.113-.507-.338-.507-.226 0-.335.17-.335.507v5.38c0 .336.113.507.335.507" fill="#3A3A3A"/><path fill-rule="evenodd" clip-rule="evenodd" d="M60.813 5.73a.695.695 0 0 1 .494.14.623.623 0 0 1 .14.455V12.7a.558.558 0 0 0 .09.332.315.315 0 0 0 .264.128.39.39 0 0 0 .179-.03c.054-.03.1-.07.136-.12V6.317a.623.623 0 0 1 .14-.456.683.683 0 0 1 .494-.14h3.356a.707.707 0 0 1 .487.14.61.61 0 0 1 .147.456v6.03c-.01.143.01.288.059.425a.197.197 0 0 0 .074.085c.033.018.07.027.109.027a.269.269 0 0 0 .245-.151 1.92 1.92 0 0 0 .124-.572c.005-.132.031-.263.078-.387a.165.165 0 0 1 .062-.054.16.16 0 0 1 .086 0h.315a.153.153 0 0 1 .1.035.17.17 0 0 1 .06.089c.038.138.054.282.046.425a3.12 3.12 0 0 1-.797 2.269 2.937 2.937 0 0 1-2.225.82c-.553.012-1.1-.12-1.583-.387a2.713 2.713 0 0 1-1.082-1.16 2.92 2.92 0 0 1-1.166 1.16 3.48 3.48 0 0 1-1.67.386 2.61 2.61 0 0 1-2.049-.773 3.288 3.288 0 0 1-.708-2.26v-4.31a2.128 2.128 0 0 0-.187-.994c-.17-.27-.408-.49-.692-.638a.44.44 0 0 1-.156-.123.232.232 0 0 1-.027-.124V5.92c0-.124.074-.186.222-.186l4.835-.004zM45.939 4.103a2.143 2.143 0 0 0-.187-.994c-.17-.27-.408-.49-.692-.637a.536.536 0 0 1-.156-.124.235.235 0 0 1-.03-.124v-.216c0-.128.077-.186.225-.186h4.827a.692.692 0 0 1 .494.14.622.622 0 0 1 .155.452v4.224a3.062 3.062 0 0 1 2.54-1.136 2.617 2.617 0 0 1 2.054.796c.507.642.76 1.447.708 2.261v5.987a.62.62 0 0 1-.14.453.684.684 0 0 1-.494.139h-3.36a.691.691 0 0 1-.495-.14.62.62 0 0 1-.113-.212.557.557 0 0 1-.027-.24v-6.37a.526.526 0 0 0-.093-.332.276.276 0 0 0-.113-.096.336.336 0 0 0-.14-.031.352.352 0 0 0-.179.03.322.322 0 0 0-.14.12v6.691a.62.62 0 0 1-.14.452.684.684 0 0 1-.494.14h-3.36a.691.691 0 0 1-.495-.14.572.572 0 0 1-.116-.212.624.624 0 0 1-.024-.24L45.94 4.103zm-6.452 6.76c0 .286.241.549.727.773.504.247 1.06.37 1.622.36a3.868 3.868 0 0 0 2.906-1.168c.046-.053.1-.1.16-.14a.246.246 0 0 1 .14-.026h.221a.164.164 0 0 1 .105 0 .16.16 0 0 1 .074.07.822.822 0 0 1 .047.336c0 .752-.219 1.49-.63 2.122a4.51 4.51 0 0 1-1.77 1.565 5.507 5.507 0 0 1-2.56.603 5.923 5.923 0 0 1-2.722-.61 4.786 4.786 0 0 1-1.945-1.744 4.67 4.67 0 0 1-.72-2.574 4.85 4.85 0 0 1 .67-2.54 4.73 4.73 0 0 1 1.929-1.743c.9-.442 1.894-.66 2.897-.638.767-.011 1.53.12 2.248.387a3.694 3.694 0 0 1 1.556 1.113c.382.472.587 1.06.58 1.666a2.567 2.567 0 0 1-.88 1.994 3.186 3.186 0 0 1-2.216.774 2.867 2.867 0 0 1-2.182-.893.247.247 0 0 0-.105.023.245.245 0 0 0-.09.062.27.27 0 0 0-.066.096.308.308 0 0 0-.023.116l.027.016zm.56-1.276c.034.047.08.085.132.108.052.027.11.04.168.04.221 0 .334-.125.334-.387V6.73c0-.251-.113-.387-.334-.387a.356.356 0 0 0-.168.039.338.338 0 0 0-.132.112v3.092zm-11.393 1.276c0 .286.241.549.727.773.504.247 1.06.37 1.622.36a3.872 3.872 0 0 0 2.91-1.184c.046-.053.1-.1.16-.139a.246.246 0 0 1 .14-.027h.221a.156.156 0 0 1 .101 0 .143.143 0 0 1 .074.07c.04.107.057.222.05.336a3.848 3.848 0 0 1-.626 2.122 4.495 4.495 0 0 1-1.773 1.565c-.791.41-1.671.623-2.563.619a5.915 5.915 0 0 1-2.723-.61 4.828 4.828 0 0 1-1.945-1.744 4.701 4.701 0 0 1-.716-2.574 4.816 4.816 0 0 1 .67-2.54 4.714 4.714 0 0 1 1.905-1.75 6.276 6.276 0 0 1 2.902-.638 6.2 6.2 0 0 1 2.248.386c.608.23 1.144.614 1.556 1.113.38.472.584 1.061.575 1.666a2.51 2.51 0 0 1-.213 1.094 2.572 2.572 0 0 1-.662.9 3.187 3.187 0 0 1-2.217.774 2.868 2.868 0 0 1-2.182-.893.285.285 0 0 0-.198.085.22.22 0 0 0-.058.213l.015.023zm.56-1.276a.314.314 0 0 0 .129.108.39.39 0 0 0 .17.039c.222 0 .335-.124.335-.387V6.731c0-.252-.113-.387-.334-.387a.39.39 0 0 0-.171.039.299.299 0 0 0-.129.112v3.092zM16.242 5.73c1.07 0 1.798.315 2.182.947a3.5 3.5 0 0 1 1.21-.886 4.013 4.013 0 0 1 1.555-.286 3.358 3.358 0 0 1 2.24.743 2.378 2.378 0 0 1 .876 1.894c.008.297-.053.592-.179.861-.12.273-.302.514-.533.704a2.734 2.734 0 0 1-1.828.603 2.758 2.758 0 0 1-1.8-.557 1.731 1.731 0 0 1-.701-1.41 1.473 1.473 0 0 1 .125-.646 1.52 1.52 0 0 1 .388-.541 1.82 1.82 0 0 1 1.284-.46.327.327 0 0 0 .058-.186c0-.174-.128-.259-.389-.259a1.826 1.826 0 0 0-.777.159 1.898 1.898 0 0 0-.65.444 2.2 2.2 0 0 0-.179 2.799c.312.4.728.71 1.202.896a.739.739 0 0 1 .346.256c.067.147.097.31.086.471v3.262c0 .387-.214.592-.638.592h-3.773a.525.525 0 0 1-.56-.356.514.514 0 0 1-.02-.236V8.014a2.13 2.13 0 0 0-.198-.997 1.769 1.769 0 0 0-.692-.638.505.505 0 0 1-.16-.124.23.23 0 0 1-.027-.123v-.217c0-.124.074-.185.222-.185h1.33zm-2.525-4.496A1.973 1.973 0 0 0 12.161.67H2.05a1.956 1.956 0 0 0-1.556.564A2.6 2.6 0 0 0 .01 2.99V6.97a2.54 2.54 0 0 0 .51 1.736 1.99 1.99 0 0 0 1.556.564h1.268a.711.711 0 0 0 .51-.147A.7.7 0 0 0 4 8.617v-4.5c0-.27.109-.386.319-.386.06-.004.12.008.175.035a.365.365 0 0 1 .14.112v10.618c-.017.18.033.36.14.506a.635.635 0 0 0 .226.12.62.62 0 0 0 .253.027h3.753a.656.656 0 0 0 .474-.147.716.716 0 0 0 .14-.506V3.859a.389.389 0 0 1 .133-.097.352.352 0 0 1 .179-.035c.21 0 .315.13.315.387v4.51a.7.7 0 0 0 .148.507.711.711 0 0 0 .51.147h1.271a1.984 1.984 0 0 0 1.556-.565 2.559 2.559 0 0 0 .505-1.735V2.989a2.601 2.601 0 0 0-.52-1.755z" fill="#3A3A3A"/></svg>