<svg width="109" height="20" viewBox="0 0 109 20" fill="none" xmlns="http://www.w3.org/2000/svg">
<path fill-rule="evenodd" clip-rule="evenodd" d="M100.526 5.72979C101.592 5.72979 102.318 6.04545 102.704 6.67676C103.041 6.29911 103.454 5.99732 103.918 5.79164C104.412 5.59395 104.941 5.49796 105.474 5.50948C106.286 5.47723 107.083 5.74114 107.714 6.25159C107.996 6.47992 108.221 6.76933 108.373 7.09763C108.524 7.42593 108.598 7.7844 108.589 8.14553C108.599 8.44277 108.54 8.73826 108.417 9.00952C108.295 9.28077 108.111 9.52066 107.881 9.71093C107.356 10.0922 106.725 10.3016 106.074 10.3099C105.424 10.3182 104.787 10.1251 104.252 9.75732C104.034 9.59204 103.857 9.37912 103.735 9.13502C103.613 8.89544 103.55 8.63044 103.552 8.36198C103.546 8.1394 103.588 7.91814 103.676 7.71334C103.764 7.50854 103.896 7.32503 104.062 7.17537C104.414 6.86117 104.876 6.69613 105.349 6.71542C105.385 6.65855 105.403 6.59296 105.404 6.52602C105.404 6.35595 105.275 6.27092 105.015 6.27092C104.747 6.26684 104.481 6.32092 104.237 6.42939C103.993 6.53621 103.774 6.69293 103.595 6.88935C103.4 7.08602 103.248 7.32014 103.148 7.57735C103.043 7.8322 102.992 8.10602 103 8.38131C102.991 8.85095 103.138 9.31034 103.42 9.68774C103.731 10.0893 104.147 10.3993 104.622 10.5845C104.758 10.6345 104.877 10.7232 104.964 10.8396C105.033 10.9868 105.062 11.1492 105.05 11.3111V14.5733C105.05 14.9599 104.836 15.1647 104.416 15.1647H100.619C100.54 15.1747 100.459 15.1661 100.383 15.1397C100.307 15.1132 100.239 15.0695 100.183 15.0121C100.127 14.9547 100.085 14.8852 100.061 14.809C100.037 14.7329 100.031 14.6522 100.044 14.5733V8.01412C100.062 7.67294 99.9981 7.33234 99.857 7.02077C99.69 6.75008 99.452 6.52963 99.1686 6.38301C99.1068 6.35419 99.0522 6.31192 99.0091 6.25932C98.9887 6.2214 98.9792 6.17858 98.9819 6.13564V5.91919C98.9819 5.7955 99.0558 5.73366 99.2036 5.73366L100.526 5.72979Z" fill="#3A3A3A"/>
<path fill-rule="evenodd" clip-rule="evenodd" d="M93.2907 10.8627C93.2907 11.1487 93.5318 11.4116 94.018 11.6357C94.5218 11.8832 95.0781 12.0065 95.64 11.9952C96.1814 12.0127 96.7204 11.9164 97.2218 11.7126C97.7232 11.5088 98.1756 11.2021 98.5494 10.8125C98.5959 10.7591 98.6495 10.7122 98.7088 10.6733C98.7518 10.6507 98.8005 10.6413 98.8489 10.6463H99.0706C99.1047 10.6353 99.1414 10.6353 99.1756 10.6463C99.2064 10.662 99.232 10.6862 99.2495 10.7158C99.2883 10.8235 99.3042 10.938 99.2962 11.0521C99.2998 11.8049 99.0822 12.5425 98.6699 13.1741C98.2306 13.843 97.6197 14.3834 96.9002 14.7395C96.1078 15.15 95.2266 15.3622 94.3331 15.3579C93.3894 15.3743 92.4555 15.1648 91.6104 14.7472C90.813 14.3552 90.14 13.752 89.6656 13.004C89.1828 12.2322 88.9343 11.3384 88.9499 10.4298C88.935 9.53846 89.1664 8.66013 89.6189 7.89038C90.0773 7.14141 90.7375 6.53489 91.5248 6.13945C92.426 5.69714 93.4216 5.47831 94.4264 5.5017C95.1935 5.49041 95.9559 5.6215 96.6746 5.88821C97.2891 6.11511 97.8325 6.49909 98.2499 7.00139C98.6317 7.47279 98.8354 8.0622 98.8255 8.66728C98.8373 9.04264 98.7657 9.41597 98.6158 9.76069C98.4659 10.1054 98.2413 10.4131 97.9582 10.6617C97.3459 11.1917 96.5524 11.4684 95.7411 11.4348C95.3343 11.4493 94.9291 11.3772 94.5527 11.2232C94.1764 11.0692 93.8375 10.8369 93.559 10.5419C93.5215 10.5417 93.4843 10.5496 93.4501 10.5651C93.4166 10.5798 93.3862 10.6008 93.3607 10.6269C93.333 10.655 93.3106 10.6877 93.2946 10.7236C93.2822 10.761 93.2756 10.8001 93.2751 10.8395L93.2907 10.8627ZM93.8508 9.5872C93.8838 9.63333 93.9279 9.67053 93.9791 9.69542C94.0313 9.72053 94.0884 9.73373 94.1464 9.73407C94.372 9.73407 94.4848 9.60652 94.4848 9.34756V6.73082C94.4848 6.47959 94.372 6.34431 94.1464 6.34431C94.0884 6.34465 94.0313 6.35785 93.9791 6.38296C93.9278 6.40934 93.8837 6.44783 93.8508 6.49505V9.5872Z" fill="#3A3A3A"/>
<path fill-rule="evenodd" clip-rule="evenodd" d="M85.0042 4.14848C85.0011 3.98408 85.0344 3.82101 85.1016 3.67075C85.1688 3.5205 85.2683 3.38671 85.3932 3.27881C85.653 3.03415 86 2.90207 86.3578 2.91162C86.5857 2.90795 86.8107 2.96252 87.0112 3.07009C87.0415 3.04043 87.0653 3.00491 87.0812 2.96573C87.0972 2.92779 87.1051 2.88702 87.1046 2.84591C87.1046 2.73382 87.0307 2.64492 86.879 2.57922C86.6905 2.50228 86.4875 2.46668 86.2839 2.47486C85.8079 2.46393 85.3463 2.63716 84.9964 2.958C84.8289 3.10982 84.6963 3.29569 84.6075 3.503C84.5151 3.70596 84.4661 3.92575 84.4636 4.14848C84.4632 4.51135 84.5881 4.86337 84.8175 5.1457C85.0916 5.4824 85.444 5.74772 85.8444 5.91874C86.6529 6.25967 87.3735 6.77759 87.9525 7.43389C88.3877 8.01567 88.6112 8.72703 88.5865 9.45152C88.599 10.2028 88.3879 10.941 87.9797 11.5735C87.5518 12.2173 86.947 12.7257 86.2372 13.0384C85.4044 13.4065 84.4996 13.5861 83.5884 13.5641C82.4642 13.6016 81.3524 13.32 80.3834 12.7524C80.3375 12.7921 80.3005 12.8408 80.2745 12.8954C80.2502 12.9491 80.2358 13.0067 80.2317 13.0655C80.2317 13.2394 80.3795 13.4056 80.6712 13.5718C81.057 13.7596 81.4686 13.8898 81.8926 13.9583C82.4512 14.0669 83.0192 14.12 83.5884 14.1168C84.0863 14.1168 84.553 14.0859 84.9887 14.024C85.4243 13.9622 85.821 13.9313 86.1789 13.9313C86.8811 13.887 87.5746 14.1047 88.1236 14.542C88.3603 14.7566 88.546 15.021 88.6671 15.3158C88.7882 15.6106 88.8417 15.9286 88.8238 16.2465C88.8344 16.8888 88.6058 17.5124 88.182 17.9974C87.6789 18.5418 87.0383 18.9422 86.3267 19.157C85.4018 19.4653 84.4316 19.6181 83.4562 19.6092C82.3692 19.6494 81.2853 19.4693 80.2706 19.0797C79.4616 18.7293 79.0571 18.2693 79.0571 17.6998C79.0592 17.3851 79.1783 17.0822 79.3916 16.8495C79.1072 16.575 78.8837 16.2444 78.7357 15.8789C78.5876 15.5135 78.5182 15.1212 78.532 14.7275C78.5287 14.2507 78.6408 13.7801 78.8587 13.3554C79.0734 12.9385 79.3904 12.5822 79.7805 12.3195C79.3882 11.9742 79.0754 11.549 78.8633 11.0727C78.6512 10.5965 78.5448 10.0805 78.5514 9.55974C78.5451 8.83996 78.7521 8.13425 79.1465 7.53052C79.5686 6.90019 80.1546 6.39529 80.8424 6.06948C81.6213 5.69445 82.478 5.50645 83.3434 5.52062C83.4562 5.52062 83.569 5.52062 83.6779 5.52062C83.7916 5.52848 83.9046 5.54398 84.0163 5.56701C83.911 5.38719 83.8286 5.19503 83.7712 4.99496C83.697 4.73595 83.6591 4.46803 83.6584 4.19873C83.6492 3.87454 83.7145 3.55253 83.8493 3.25717C83.9841 2.9618 84.1848 2.70086 84.4363 2.49418C84.9924 2.03697 85.6989 1.80019 86.42 1.82937C87.0681 1.79856 87.707 1.99108 88.2287 2.37436C88.4486 2.5397 88.626 2.75443 88.7463 3.00099C88.8666 3.24754 88.9265 3.51891 88.921 3.79288C88.924 4.03363 88.8749 4.27221 88.7771 4.49248C88.6757 4.71028 88.5269 4.90301 88.3415 5.0568C87.926 5.3922 87.4023 5.56659 86.8673 5.54768C86.3919 5.56849 85.9229 5.43261 85.5332 5.16116C85.3683 5.04917 85.2345 4.8976 85.1442 4.72053C85.0488 4.54499 85.0006 4.34796 85.0042 4.14848V4.14848ZM85.821 17.7462C85.0203 18.0609 84.1655 18.2171 83.3045 18.2062C82.1909 18.2295 81.0929 17.943 80.1345 17.379C80.085 17.4156 80.045 17.4633 80.0178 17.5182C79.9921 17.5738 79.9801 17.6348 79.9828 17.696C79.9828 17.9665 80.329 18.21 81.0174 18.4265C81.7816 18.655 82.5765 18.7658 83.3745 18.755C83.9848 18.7655 84.594 18.6979 85.187 18.554C85.7056 18.42 85.9649 18.2345 85.9649 17.9974C85.9648 17.9481 85.9542 17.8994 85.9338 17.8544C85.9112 17.8108 85.8777 17.7735 85.8366 17.7462H85.821ZM83.569 12.7447C83.7907 12.7447 83.9035 12.5785 83.9035 12.2422V6.85411C83.9035 6.51784 83.7907 6.34777 83.569 6.34777C83.3473 6.34777 83.2461 6.52171 83.2461 6.85411V12.2345C83.2461 12.5707 83.355 12.7408 83.5806 12.7408" fill="#3A3A3A"/>
<path fill-rule="evenodd" clip-rule="evenodd" d="M74.5738 4.14917C74.5776 3.98045 74.6173 3.81444 74.6905 3.66216C74.7571 3.5151 74.8538 3.38346 74.9745 3.27564C75.2365 3.03828 75.5808 2.91086 75.9352 2.92004C76.1644 2.91587 76.3907 2.97045 76.5925 3.07851C76.62 3.04747 76.6424 3.01223 76.6586 2.97415C76.6783 2.93741 76.6864 2.89569 76.682 2.85433C76.682 2.74353 76.6081 2.65463 76.4603 2.58763C76.2698 2.50754 76.0641 2.4693 75.8574 2.47554C75.3825 2.46399 74.9219 2.63738 74.5738 2.95869C74.4051 3.10942 74.2722 3.29558 74.1849 3.50368C74.0877 3.70517 74.0372 3.92574 74.0371 4.14917C74.0367 4.51204 74.1616 4.86405 74.391 5.14639C74.6644 5.48215 75.0153 5.74734 75.414 5.91942C76.2218 6.25785 76.9414 6.77469 77.5182 7.43071C77.954 8.01368 78.1775 8.72645 78.1522 9.4522C78.164 10.2034 77.953 10.9414 77.5455 11.5742C77.1183 12.2187 76.5134 12.7273 75.8029 13.0391C74.9694 13.4049 74.0652 13.5844 73.1541 13.5648C72.0293 13.6031 70.917 13.32 69.9491 12.7492C69.9042 12.7897 69.8672 12.8382 69.8402 12.8922C69.8142 12.9467 69.7997 13.0059 69.7974 13.0662C69.7974 13.2362 69.9453 13.4063 70.237 13.5686C70.6228 13.7563 71.0343 13.8865 71.4583 13.9551C72.0172 14.0618 72.5851 14.1149 73.1541 14.1136C73.652 14.1136 74.1188 14.0672 74.5544 14.017C74.99 13.9667 75.3868 13.9397 75.7446 13.9242C76.4473 13.8806 77.1411 14.0998 77.6894 14.5388C77.9247 14.7543 78.1092 15.0189 78.2296 15.3136C78.3499 15.6083 78.4032 15.9258 78.3856 16.2433C78.3944 16.8853 78.1661 17.5083 77.7438 17.9943C77.2393 18.5368 76.5992 18.9369 75.8885 19.1538C74.9651 19.463 73.9963 19.6171 73.0219 19.6099C71.9349 19.6498 70.8511 19.4696 69.8363 19.0804C69.0273 18.7299 68.6228 18.2674 68.6228 17.6928C68.6249 17.378 68.744 17.0752 68.9573 16.8424C68.6732 16.5695 68.4502 16.2402 68.3027 15.8759C68.1553 15.5116 68.0868 15.1206 68.1016 14.7282C68.0965 14.2512 68.2086 13.7802 68.4283 13.356C68.643 12.9392 68.9601 12.5829 69.3501 12.3202C68.956 11.9764 68.6419 11.5514 68.4297 11.0748C68.2174 10.5983 68.1121 10.0815 68.121 9.56043C68.1129 8.84039 68.32 8.13416 68.7161 7.53121C69.1357 6.89583 69.7221 6.38658 70.412 6.05857C71.1906 5.68272 72.0475 5.49467 72.913 5.50971C73.0219 5.50971 73.1347 5.50971 73.2475 5.50971C73.36 5.51731 73.4717 5.53281 73.582 5.5561C73.4795 5.37537 73.3986 5.18339 73.3408 4.98405C73.2666 4.72504 73.2287 4.45712 73.228 4.18782C73.2199 3.86285 73.2864 3.5403 73.4225 3.24472C73.5573 2.94639 73.758 2.68214 74.0098 2.47168C74.5705 2.02504 75.2758 1.79691 75.9935 1.83006C76.6408 1.79607 77.2799 1.98591 77.8022 2.36732C78.0205 2.53138 78.1965 2.74468 78.3156 2.98961C78.4354 3.23652 78.4954 3.5079 78.4906 3.78198C78.4958 4.02238 78.4464 4.26086 78.3461 4.47968C78.2457 4.69849 78.097 4.89203 77.9111 5.04589C77.4975 5.38197 76.9747 5.55651 76.4408 5.53677C75.9641 5.55845 75.4936 5.42252 75.1028 5.15025C74.9385 5.03925 74.8041 4.88999 74.7112 4.7155C74.6183 4.541 74.5698 4.34657 74.5699 4.14917H74.5738ZM75.3906 17.7508C74.5895 18.0642 73.7351 18.2217 72.8741 18.2146C71.7553 18.243 70.6507 17.9605 69.6847 17.399C69.6372 17.4362 69.5992 17.4839 69.5735 17.5382C69.5479 17.5926 69.5353 17.6521 69.5368 17.7121C69.5368 17.9865 69.8791 18.23 70.5715 18.4465C71.3361 18.6725 72.131 18.7807 72.9285 18.7673C73.5376 18.778 74.1455 18.7104 74.7372 18.5663C75.2623 18.431 75.5151 18.2455 75.5151 18.0097C75.514 17.9605 75.5034 17.912 75.484 17.8667C75.4602 17.8238 75.427 17.7868 75.3868 17.7585L75.3906 17.7508ZM73.1347 12.7337C73.3603 12.7337 73.4731 12.5675 73.4731 12.2313V6.8548C73.4731 6.51853 73.3603 6.34846 73.1347 6.34846C72.9091 6.34846 72.8002 6.51853 72.8002 6.8548V12.2351C72.8002 12.5714 72.913 12.7415 73.1347 12.7415" fill="#3A3A3A"/>
<path fill-rule="evenodd" clip-rule="evenodd" d="M60.8127 5.73012C60.9893 5.71187 61.1661 5.76168 61.3067 5.86927C61.4121 5.99699 61.4624 6.16093 61.4467 6.32536V12.699C61.4407 12.8164 61.472 12.9327 61.5362 13.0315C61.5666 13.0726 61.6066 13.1058 61.6529 13.1281C61.699 13.1497 61.7497 13.1603 61.8007 13.159C61.8619 13.1629 61.9233 13.1523 61.9796 13.1281C62.0339 13.0994 62.0805 13.0583 62.1157 13.0083V6.31763C62.1 6.1532 62.1504 5.98926 62.2558 5.86154C62.3958 5.75285 62.5731 5.70292 62.7497 5.72239H66.1064C66.2802 5.7073 66.4535 5.75689 66.5926 5.86154C66.6469 5.92373 66.688 5.9962 66.7134 6.07458C66.7388 6.15296 66.748 6.23563 66.7404 6.31763V12.3473C66.7305 12.4915 66.7503 12.6362 66.7988 12.7725C66.8146 12.8074 66.8403 12.8369 66.8727 12.8575C66.9059 12.876 66.9435 12.8854 66.9816 12.8846C67.0323 12.8855 67.0822 12.8721 67.1255 12.8459C67.1688 12.8184 67.2038 12.7796 67.2266 12.7338C67.2971 12.5505 67.3391 12.3576 67.3511 12.1618C67.3563 12.0297 67.3825 11.8992 67.4289 11.7753C67.4447 11.7523 67.4661 11.7337 67.4911 11.7212C67.5191 11.7134 67.5487 11.7134 67.5767 11.7212H67.8917C67.9286 11.7202 67.9645 11.7325 67.9929 11.7559C68.0214 11.7786 68.0418 11.8098 68.0512 11.8448C68.09 11.9831 68.1057 12.1267 68.0979 12.27C68.1215 12.6817 68.0632 13.094 67.9264 13.4833C67.7896 13.8726 67.5769 14.2313 67.3005 14.5389C67.0076 14.8219 66.6584 15.041 66.2752 15.1822C65.8921 15.3233 65.4835 15.3833 65.0757 15.3583C64.5228 15.3715 63.9764 15.2381 63.4926 14.9718C63.0241 14.7009 62.6476 14.2971 62.4113 13.8122C62.1423 14.3019 61.7372 14.7044 61.2445 14.9718C60.7296 15.2375 60.1559 15.3704 59.5758 15.3583C59.1981 15.3859 58.8189 15.3311 58.4647 15.1975C58.1106 15.064 57.7902 14.855 57.526 14.5853C57.0168 13.9445 56.7646 13.1389 56.8181 12.3241V8.01444C56.8366 7.67327 56.7725 7.33267 56.6314 7.02109C56.4618 6.75111 56.2228 6.53096 55.9391 6.38334C55.8784 6.35449 55.8252 6.31217 55.7835 6.25965C55.7631 6.22173 55.7537 6.1789 55.7563 6.13596V5.91951C55.7563 5.79583 55.8302 5.73399 55.978 5.73399L60.8127 5.73012Z" fill="#3A3A3A"/>
<path fill-rule="evenodd" clip-rule="evenodd" d="M45.9389 4.10265C45.9568 3.76151 45.8928 3.42101 45.7522 3.1093C45.5826 2.83932 45.3436 2.61917 45.0598 2.47155C45.0007 2.44033 44.9479 2.39838 44.9043 2.34786C44.8827 2.31025 44.8719 2.26746 44.8731 2.22417V2.00772C44.8731 1.88017 44.9509 1.82219 45.0987 1.82219H49.9257C50.1022 1.80354 50.2792 1.8534 50.4197 1.96134C50.4743 2.02281 50.5162 2.09441 50.5429 2.17202C50.5696 2.24963 50.5806 2.33172 50.5753 2.41357V6.63822C50.8782 6.26292 51.2663 5.96427 51.7078 5.76675C52.1493 5.56923 52.6316 5.47845 53.1151 5.50185C53.4952 5.47711 53.8762 5.53559 54.231 5.67317C54.5859 5.81075 54.906 6.02408 55.1688 6.29808C55.6764 6.93971 55.9285 7.74466 55.8767 8.55921V14.5464C55.8918 14.7096 55.8415 14.8721 55.7367 14.9986C55.5966 15.1073 55.4194 15.1572 55.2427 15.1378H51.8821C51.7056 15.1564 51.5286 15.1066 51.3882 14.9986C51.337 14.9357 51.2987 14.8635 51.2754 14.786C51.2489 14.7091 51.2396 14.6273 51.2481 14.5464V8.17656C51.2553 8.05851 51.2224 7.94149 51.1548 7.84415C51.1268 7.80229 51.0878 7.76886 51.042 7.74752C50.9981 7.72728 50.9504 7.71673 50.902 7.7166C50.8406 7.71109 50.7789 7.72176 50.7231 7.74752C50.6656 7.77305 50.617 7.8147 50.583 7.86734V14.558C50.5981 14.7212 50.5478 14.8837 50.443 15.0102C50.3029 15.1189 50.1257 15.1688 49.949 15.1494H46.5884C46.4119 15.168 46.2349 15.1182 46.0945 15.0102C46.0408 14.9484 46.001 14.8759 45.9778 14.7976C45.9545 14.72 45.9466 14.6386 45.9544 14.558L45.9389 4.10265Z" fill="#3A3A3A"/>
<path fill-rule="evenodd" clip-rule="evenodd" d="M39.487 10.8627C39.487 11.1487 39.7281 11.4116 40.2143 11.6357C40.7181 11.8832 41.2744 12.0065 41.8363 11.9952C42.3759 12.0142 42.9135 11.92 43.4141 11.7189C43.9147 11.5178 44.3671 11.2142 44.7418 10.8279C44.7883 10.7745 44.842 10.7277 44.9013 10.6888C44.9442 10.6662 44.993 10.6567 45.0413 10.6617H45.263C45.2971 10.6502 45.334 10.6502 45.368 10.6617C45.3996 10.6763 45.4256 10.7007 45.4419 10.7313C45.4807 10.839 45.4966 10.9535 45.4886 11.0676C45.4889 11.8205 45.27 12.5574 44.8585 13.1895C44.4191 13.8584 43.8082 14.3988 43.0887 14.7549C42.2975 15.1594 41.4191 15.3664 40.5294 15.3579C39.5857 15.374 38.652 15.1645 37.8067 14.7472C37.0082 14.3567 36.3349 13.7531 35.8619 13.004C35.3761 12.2334 35.1261 11.339 35.1423 10.4298C35.1275 9.53846 35.3588 8.66013 35.8114 7.89038C36.2778 7.14156 36.9462 6.53765 37.7406 6.14718C38.6406 5.70547 39.6348 5.48667 40.6383 5.50942C41.4054 5.49778 42.1679 5.62887 42.8865 5.89594C43.4946 6.12452 44.0313 6.5085 44.4423 7.00911C44.8238 7.48094 45.0287 8.06977 45.0218 8.67501C45.0303 9.05101 44.9561 9.42431 44.8042 9.76881C44.6524 10.1133 44.4267 10.4207 44.1428 10.6694C43.5305 11.1995 42.7371 11.4761 41.9258 11.4425C41.519 11.4571 41.1138 11.3849 40.7374 11.2309C40.361 11.0769 40.0222 10.8446 39.7437 10.5496C39.7074 10.5495 39.6715 10.5575 39.6387 10.5728C39.6046 10.5865 39.574 10.6076 39.5492 10.6347C39.5204 10.6617 39.4978 10.6947 39.4831 10.7313C39.4679 10.7681 39.46 10.8075 39.4598 10.8472L39.487 10.8627ZM40.0471 9.58719C40.0807 9.63431 40.1263 9.67167 40.1793 9.69542C40.231 9.72175 40.2885 9.73502 40.3466 9.73407C40.5683 9.73407 40.6811 9.61038 40.6811 9.34755V6.73082C40.6811 6.47958 40.5683 6.3443 40.3466 6.3443C40.2885 6.34335 40.231 6.35662 40.1793 6.38295C40.1262 6.40824 40.0806 6.44688 40.0471 6.49504V9.58719Z" fill="#3A3A3A"/>
<path fill-rule="evenodd" clip-rule="evenodd" d="M28.6541 10.8626C28.6541 11.1486 28.8953 11.4115 29.3814 11.6356C29.8852 11.8831 30.4415 12.0064 31.0034 11.9951C31.5448 12.0124 32.0837 11.916 32.5851 11.7122C33.0864 11.5084 33.5388 11.2018 33.9128 10.8124C33.9593 10.759 34.013 10.7121 34.0723 10.6732C34.1152 10.6506 34.1639 10.6412 34.2123 10.6462H34.434C34.4668 10.635 34.5024 10.635 34.5351 10.6462C34.5675 10.6596 34.5937 10.6844 34.609 10.7157C34.6491 10.8231 34.6664 10.9376 34.6596 11.052C34.6633 11.8048 34.4456 12.5424 34.0334 13.174C33.5935 13.8439 32.9811 14.3845 32.2597 14.7394C31.4687 15.1498 30.5888 15.3621 29.6965 15.3578C28.7528 15.3742 27.819 15.1647 26.9738 14.7471C26.1766 14.3548 25.5037 13.7516 25.029 13.0039C24.5462 12.2321 24.2977 11.3383 24.3133 10.4297C24.2966 9.53814 24.5282 8.65933 24.9823 7.89028C25.4407 7.14131 26.1009 6.53478 26.8882 6.13935C27.7897 5.69776 28.7851 5.47898 29.7899 5.50159C30.5569 5.49031 31.3194 5.62139 32.038 5.88811C32.6455 6.11797 33.1818 6.50173 33.5938 7.00128C33.9743 7.47348 34.1778 8.06236 34.1695 8.66718C34.1811 9.04308 34.108 9.4168 33.9556 9.76103C33.8041 10.1057 33.5784 10.4131 33.2944 10.6616C32.6821 11.1916 31.8886 11.4683 31.0773 11.4347C30.6705 11.4492 30.2653 11.3771 29.889 11.2231C29.5126 11.0691 29.1737 10.8368 28.8953 10.5418C28.8577 10.5416 28.8205 10.5495 28.7863 10.565C28.7528 10.5797 28.7224 10.6007 28.6969 10.6268C28.6693 10.655 28.6493 10.6895 28.6385 10.7273C28.6288 10.7641 28.6288 10.8027 28.6385 10.8394L28.6541 10.8626ZM29.2142 9.58709C29.2463 9.63407 29.2907 9.67148 29.3426 9.69532C29.3959 9.72099 29.4544 9.73421 29.5137 9.73397C29.7354 9.73397 29.8482 9.61028 29.8482 9.34745V6.73072C29.8482 6.47948 29.7354 6.3442 29.5137 6.3442C29.4544 6.34396 29.3959 6.35718 29.3426 6.38285C29.2897 6.40704 29.2451 6.44599 29.2142 6.49494V9.58709Z" fill="#3A3A3A"/>
<path fill-rule="evenodd" clip-rule="evenodd" d="M16.2418 5.72964C17.3128 5.72964 18.0401 6.0453 18.4239 6.67661C18.7579 6.29806 19.1706 5.99607 19.6335 5.79149C20.1277 5.59391 20.6567 5.49666 21.1894 5.50546C22.0021 5.47393 22.7986 5.73775 23.4297 6.24758C23.7108 6.47648 23.9357 6.766 24.0873 7.09416C24.239 7.42233 24.3134 7.78051 24.3049 8.14152C24.3128 8.43868 24.2515 8.73364 24.126 9.00345C24.0061 9.27607 23.8236 9.51699 23.5931 9.70692C23.078 10.1225 22.428 10.337 21.765 10.3099C21.1174 10.3414 20.4795 10.1443 19.9641 9.7533C19.7434 9.58999 19.5649 9.37694 19.4431 9.13167C19.3214 8.88641 19.26 8.61594 19.264 8.34251C19.2563 8.1208 19.2989 7.9002 19.3885 7.69702C19.4763 7.49031 19.6092 7.30551 19.7774 7.1559C20.1287 6.84229 20.5892 6.67726 21.061 6.69594C21.0988 6.64136 21.1192 6.57669 21.1193 6.51041C21.1193 6.33648 20.991 6.25144 20.7304 6.25144C20.4625 6.24661 20.1968 6.30072 19.9525 6.40992C19.707 6.51125 19.4857 6.66269 19.3029 6.85441C18.9514 7.22801 18.7414 7.71132 18.7088 8.22174C18.6761 8.73217 18.8229 9.23801 19.124 9.65281C19.4363 10.0536 19.8515 10.3633 20.3259 10.5495C20.4642 10.5985 20.5847 10.6873 20.672 10.8046C20.7392 10.9524 20.7686 11.1144 20.7576 11.2762V14.5384C20.7576 14.9249 20.5437 15.1298 20.1197 15.1298H16.3468C16.267 15.1396 16.1859 15.131 16.11 15.1045C16.0341 15.078 15.9654 15.0344 15.9093 14.9771C15.8531 14.9199 15.8111 14.8504 15.7865 14.7743C15.7618 14.6982 15.7553 14.6175 15.7673 14.5384V8.01397C15.7827 7.67056 15.7146 7.32851 15.5689 7.01675C15.4004 6.74591 15.1611 6.52552 14.8766 6.37899C14.8156 6.34886 14.7613 6.30679 14.7171 6.25531C14.6967 6.21739 14.6872 6.17456 14.6899 6.13162V5.91517C14.6899 5.79149 14.7638 5.72964 14.9116 5.72964H16.2418Z" fill="#3A3A3A"/>
<path fill-rule="evenodd" clip-rule="evenodd" d="M13.7172 1.23423C13.5146 1.03368 13.2705 0.879336 13.0018 0.781892C12.7332 0.684448 12.4464 0.646238 12.1614 0.669911H2.04853C1.76338 0.644373 1.47608 0.681712 1.20714 0.779261C0.938195 0.87681 0.694242 1.03216 0.492698 1.23423C0.125607 1.74287 -0.0455416 2.36557 0.0103918 2.98902V6.97016C-0.0386453 7.59107 0.142588 8.20835 0.519925 8.70563C0.723174 8.90533 0.967375 9.05912 1.23587 9.1565C1.50437 9.25389 1.79084 9.29258 2.07575 9.26995H3.34375C3.52633 9.28848 3.70902 9.23582 3.85328 9.12307C3.96674 8.97971 4.01973 8.79817 4.00109 8.61673V4.11766C4.00109 3.84709 4.11 3.73114 4.32003 3.73114C4.38043 3.72733 4.44078 3.73932 4.49506 3.76593C4.5504 3.79112 4.59853 3.82965 4.63509 3.87802V14.4957C4.61774 14.6758 4.66757 14.856 4.77511 15.002C4.84134 15.0568 4.9181 15.0975 5.00071 15.1218C5.08219 15.1482 5.16828 15.1574 5.25353 15.1489H9.00696C9.17843 15.164 9.34896 15.1112 9.48149 15.002C9.59074 14.8568 9.64075 14.676 9.62151 14.4957V3.85869C9.65818 3.8175 9.70326 3.78455 9.75376 3.76206C9.80926 3.73496 9.87099 3.72296 9.93268 3.72727C10.1427 3.72727 10.2477 3.85611 10.2477 4.11379V8.62446C10.2291 8.8059 10.2821 8.98744 10.3955 9.1308C10.5398 9.24355 10.7225 9.29621 10.9051 9.27768H12.177C12.462 9.30135 12.7487 9.26314 13.0174 9.1657C13.286 9.06825 13.5301 8.91391 13.7328 8.71336C14.1071 8.21474 14.2868 7.59813 14.2384 6.97789V2.98902C14.2832 2.36079 14.0981 1.73762 13.7172 1.23423V1.23423Z" fill="#3A3A3A"/>
</svg>
