<svg width="97" height="30" fill="none" xmlns="http://www.w3.org/2000/svg"><path d="M41.991 21.447c-.1-.14-.176-.26-.26-.37-.59-.774-1.175-1.549-1.776-2.319-.916-1.165-1.839-2.325-2.398-3.72a8.491 8.491 0 0 1-.124-5.853 8.004 8.004 0 0 1 9.315-5.126c.126.029.186-.004.256-.102.843-1.16 1.688-2.32 2.536-3.476.035-.046.07-.09.107-.135l.037.02-1.996 3.95c.125.054.238.105.35.152A7.903 7.903 0 0 1 51.416 7.1a7.774 7.774 0 0 1 1.553 4.135c.118 1.528-.135 2.997-.818 4.382-.517 1.05-1.214 1.976-1.94 2.882-1.126 1.407-2.253 2.813-3.118 4.404a17.808 17.808 0 0 0-1.634 4.118c-.15.587-.271 1.18-.406 1.772a1.325 1.325 0 0 1-.07.254c-.438-2.369-1.182-4.62-2.45-6.73l-3.5 4.872-.035-.02 2.992-5.74.555.852 7.564-10.536h-6.194l3.75-7.42c-.25-.07-.469-.144-.693-.193-.043-.009-.119.06-.156.11-.427.577-.851 1.155-1.273 1.735l-2.9 3.968-1.885 2.585-.98 1.343c-.03.04-.05.087-.085.146h6.167l-3.869 7.428z" fill="#737373"/><path d="M56.545 21.124l.07-1.33a22353.048 22353.048 0 0 1 .535-9.092c.028-.49.052-.98.082-1.466a.53.53 0 0 1 .061-.15c.05.022.098.052.14.087.709.79 1.414 1.583 2.117 2.376.737.827 1.475 1.653 2.214 2.478.391.439.78.88 1.17 1.32.043.048.088.092.146.153.17-.19.334-.369.49-.55l4.356-4.97c.238-.272.475-.544.716-.814a.644.644 0 0 1 .122-.086.5.5 0 0 1 .063.147c.047.71.091 1.42.133 2.129a6074.636 6074.636 0 0 1 .553 9.616v.149h-3.112l-.28-5.017c-.152.17-.276.303-.394.44l-2.5 2.901c-.116.137-.165.131-.303-.024l-2.853-3.194c-.038-.041-.07-.09-.102-.135l-.038.025c-.093 1.666-.185 3.334-.275 5.006h-3.111zm-29.274 0h-3.18V9.285c.044-.004.089-.012.133-.012 1.545 0 3.09-.016 4.635.011 1.158.02 2.237.34 3.142 1.094 1.064.885 1.52 2.063 1.562 3.42a4.793 4.793 0 0 1-.49 2.335c-.468.935-1.2 1.589-2.157 1.999-.718.309-1.474.42-2.25.435-.396.006-.792 0-1.19 0h-.203l-.002 2.555zm.006-9.128v3.913c.6-.031 1.19-.017 1.77-.105.688-.104 1.123-.553 1.25-1.242.059-.333.072-.672.04-1.008-.093-.932-.602-1.457-1.53-1.55-.5-.05-1.01-.008-1.53-.008zM83.23 9.278c.041 0 .07-.005.098-.005 1.557 0 3.114-.014 4.67.012 1.07.018 2.074.305 2.948.949a4.087 4.087 0 0 1 1.575 2.364c.295 1.173.233 2.325-.276 3.43-.47 1.023-1.26 1.718-2.294 2.139-.69.28-1.413.386-2.152.397-.403.007-.805 0-1.208 0-.062 0-.124.006-.201.01v2.541h-3.16V9.278zm3.167 6.604c.615-.028 1.221.062 1.82-.078.685-.16 1.087-.594 1.223-1.28a3.01 3.01 0 0 0-.01-1.232c-.14-.655-.535-1.077-1.184-1.24-.607-.153-1.227-.06-1.85-.086v3.916zM5.933 11.95H1.609V9.273H10.78c.14-.007.167.057.103.17-.13.229-.261.455-.394.682l-2.761 4.741-2.014 3.458c-.017.03-.031.06-.062.119h4.772v2.68c-.06 0-.122.008-.183.008H.865c-.236 0-.252-.023-.13-.234.773-1.33 1.546-2.66 2.321-3.99l2.779-4.772c.028-.046.053-.097.098-.185zm17.05 9.182h-.689c-.8 0-1.598-.004-2.397.004a.243.243 0 0 1-.268-.179c-.1-.248-.213-.49-.333-.73a.21.21 0 0 0-.152-.1 635.732 635.732 0 0 0-4.234 0 .204.204 0 0 0-.148.104c-.12.258-.223.525-.344.784a.21.21 0 0 1-.14.111c-.986.007-1.971 0-2.957 0-.01 0-.02-.007-.048-.02.128-.272.254-.544.384-.815l2.267-4.726a3200.21 3200.21 0 0 0 2.971-6.23c.033-.074.07-.146.112-.216.036-.053.084-.117.14-.13.031-.007.099.07.125.12.151.302.295.608.44.91l1.455 3.062c.552 1.162 1.107 2.324 1.662 3.485l1.243 2.6c.283.594.566 1.189.847 1.783.016.054.032.103.064.183zm-7.159-3.402h2.373c-.402-.91-.795-1.794-1.204-2.718-.394.924-.777 1.814-1.169 2.718zm66.286 3.402h-.652c-.816 0-1.633 0-2.45.004a.222.222 0 0 1-.244-.162 11.028 11.028 0 0 0-.337-.748.21.21 0 0 0-.153-.099c-1.41-.005-2.821-.005-4.232 0a.224.224 0 0 0-.157.116c-.122.257-.225.524-.346.782a.21.21 0 0 1-.148.102c-.968.006-1.936.005-2.904 0a.745.745 0 0 1-.089-.013c.044-.1.079-.19.12-.28l2.022-4.221 2.154-4.488 1.433-2.993a.83.83 0 0 1 .124-.153c.052.048.12.088.15.148.412.854.819 1.712 1.227 2.568l2.258 4.729 2.146 4.51c.027.064.047.121.078.198zm-4.778-3.394l-1.207-2.724c-.401.932-.784 1.82-1.171 2.724h2.378zm19.156-9.976c.06 1.059-.88 2.086-2.063 2.08a2.081 2.081 0 1 1 0-4.163c1.213.006 2.114 1.023 2.063 2.083zm-.38.007a1.68 1.68 0 1 0-3.359-.025 1.68 1.68 0 0 0 3.36.025z" fill="#3A3A3A"/><path d="M95.43 8.824c-.14 0-.28.008-.416-.004a.22.22 0 0 1-.13-.096c-.128-.18-.254-.363-.371-.55-.118-.187-.27-.267-.515-.219v.863h-.433V6.725c.432 0 .861-.024 1.287.009.293.021.436.232.45.533a.55.55 0 0 1-.396.588c-.033.011-.067.019-.07.021.21.295.42.596.63.897l-.037.051zm-1.436-1.248c.224 0 .43.008.637 0 .153-.007.222-.112.218-.26a.223.223 0 0 0-.226-.238 4.622 4.622 0 0 0-.52-.01.144.144 0 0 0-.104.098c-.012.133-.004.272-.004.41z" fill="#3A3A3A"/></svg>